<svg width="332" height="100" viewBox="0 0 332 100" fill="none" xmlns="http://www.w3.org/2000/svg">
<path d="M312.643 99.811H19.177C8.5859 99.811 0 91.225 0 80.634V19.177C0 8.586 8.5859 1.56446e-06 19.177 1.56446e-06H312.643C323.234 1.56446e-06 331.82 8.586 331.82 19.177V80.634C331.82 91.225 323.234 99.811 312.643 99.811Z" fill="#82C4C1"/>
<path d="M51.6716 40.613H55.8866C57.0656 40.613 58.0736 40.43 58.9136 40.063C59.7516 39.696 60.4326 39.227 60.9536 38.653C61.4746 38.078 61.8606 37.425 62.1096 36.691C62.3596 35.958 62.4836 35.201 62.4836 34.422C62.4836 33.689 62.3826 32.988 62.1786 32.323C61.9736 31.658 61.6686 31.073 61.2606 30.569C60.8516 30.064 60.3186 29.65 59.6616 29.33C59.0036 29.008 58.1996 28.849 57.2476 28.849H51.6716V40.613ZM51.6716 49.794V64.211H40.7216V19.668H59.2206C62.0306 19.668 64.3756 20.065 66.2586 20.857C68.1396 21.652 69.6586 22.717 70.8146 24.053C71.9716 25.392 72.7976 26.91 73.2976 28.61C73.7946 30.311 74.0456 32.068 74.0456 33.881C74.0456 36.193 73.6936 38.313 72.9906 40.239C72.2876 42.167 71.2106 43.844 69.7616 45.272C68.3096 46.7 66.4736 47.811 64.2526 48.605C62.0306 49.398 59.4006 49.794 56.3636 49.794" fill="white"/>
<path d="M91.3866 39.253H95.5346C96.7586 39.253 97.8126 39.071 98.6966 38.705C99.5806 38.341 100.306 37.884 100.873 37.336C101.44 36.789 101.847 36.172 102.098 35.489C102.346 34.803 102.472 34.143 102.472 33.503C102.472 32.636 102.302 31.906 101.962 31.313C101.621 30.721 101.19 30.241 100.669 29.876C100.147 29.51 99.5696 29.248 98.9356 29.089C98.2996 28.929 97.6876 28.849 97.0996 28.849H91.3866V39.253ZM115.868 64.211H103.016L96.0106 48.365C95.8746 48.365 95.7716 48.355 95.7046 48.332C95.6366 48.309 95.5566 48.298 95.4666 48.298H91.3866V64.211H80.4366V19.667H99.2066C101.928 19.667 104.228 20.053 106.109 20.823C107.991 21.595 109.51 22.603 110.666 23.85C111.822 25.097 112.661 26.514 113.183 28.101C113.702 29.687 113.965 31.296 113.965 32.929C113.965 35.332 113.318 37.666 112.026 39.933C110.734 42.201 108.84 44.059 106.348 45.51" fill="white"/>
<path d="M149.064 44.886C150.125 46.045 150.094 47.843 148.973 48.964C147.852 50.086 146.054 50.116 144.897 49.054C144.827 50.623 143.534 51.875 141.948 51.875C140.363 51.875 139.07 50.623 139.001 49.054C137.843 50.116 136.045 50.086 134.923 48.964C133.802 47.843 133.772 46.045 134.833 44.886C133.264 44.818 132.014 43.525 132.014 41.939C132.014 40.353 133.264 39.061 134.833 38.991C133.772 37.834 133.802 36.036 134.923 34.914C136.045 33.793 137.843 33.764 139.001 34.823C139.07 33.255 140.363 32.004 141.948 32.004C143.534 32.004 144.827 33.255 144.897 34.823C146.054 33.762 147.852 33.793 148.973 34.914C150.095 36.036 150.125 37.834 149.064 38.991C150.633 39.061 151.883 40.353 151.883 41.939C151.883 43.525 150.633 44.818 149.064 44.886ZM162.486 32.011C161.556 29.268 160.174 26.921 158.338 24.973C156.502 23.023 154.245 21.516 151.572 20.45C148.897 19.384 145.835 18.852 142.39 18.852C138.717 18.852 135.476 19.441 132.666 20.62C129.854 21.798 127.52 23.441 125.661 25.55C123.802 27.657 122.397 30.175 121.445 33.098C120.493 36.023 120.016 39.23 120.016 42.721C120.016 46.214 120.503 49.329 121.478 52.071C122.452 54.816 123.859 57.15 125.695 59.077C127.531 61.004 129.775 62.477 132.427 63.496C135.08 64.518 138.082 65.027 141.438 65.027C144.883 65.027 147.989 64.495 150.755 63.429C153.52 62.364 155.877 60.811 157.828 58.771C159.776 56.73 161.273 54.225 162.316 51.257C163.359 48.287 163.88 44.896 163.88 41.089C163.88 37.78 163.414 34.754 162.486 32.011Z" fill="white"/>
<path d="M191.53 53.707L188.143 58.327C188.143 60.728 188.205 62.207 188.205 62.207C178.412 61.961 171.576 62.207 171.576 62.207C172.007 29.873 171.76 20.882 171.76 20.882C182.97 21.191 188.327 21.005 188.327 21.005C188.205 29.75 188.205 36.648 188.143 42.253C191.099 34.923 192.885 29.566 192.885 29.566C206.127 30.12 212.284 30.057 212.284 30.057C208.159 35.848 205.325 40.096 203.417 42.93C209.575 55.925 213.27 63.5 213.27 63.5C199.783 63.932 195.717 64.425 195.717 64.425C193.931 59.743 192.577 56.234 191.53 53.707Z" fill="#12446C"/>
<path d="M215.364 32.584C215.364 32.584 221.83 32.584 231.931 32.46C231.931 32.46 231.993 54.693 232.178 62.946C232.178 62.946 224.91 62.884 215.549 63.007C215.549 63.007 215.611 55.186 215.364 32.584Z" fill="#12446C"/>
<path d="M263.032 47.303C263.032 43.607 261.185 40.282 257.921 40.282C254.226 40.282 252.562 43.547 252.562 47.179C252.562 52.292 254.965 54.386 257.675 54.386C260.631 54.386 263.032 52.353 263.032 47.303ZM264.265 64.486C264.265 64.486 264.511 62.022 264.696 58.451C262.232 62.331 256.874 64.117 252.502 64.117C242.647 64.117 235.564 57.649 235.564 47.488C235.564 37.634 241.292 30.551 251.085 30.551C255.95 30.551 259.522 32.584 261.739 35.047L261.431 20.389C261.431 20.389 264.572 20.451 278.183 20.328C278.183 20.328 278.06 40.837 278.183 64.608C278.183 64.608 267.528 64.363 264.265 64.486Z" fill="#12446C"/>
<path d="M233.705 19.63C233.705 18.044 232.454 16.751 230.886 16.683C231.947 15.525 231.916 13.726 230.795 12.605C229.674 11.484 227.877 11.454 226.718 12.514C226.649 10.946 225.356 9.69499 223.77 9.69499C222.186 9.69499 220.893 10.946 220.823 12.514C219.665 11.454 217.866 11.484 216.745 12.605C215.624 13.726 215.595 15.525 216.655 16.683C215.086 16.751 213.836 18.044 213.836 19.63C213.836 21.216 215.086 22.508 216.655 22.577C215.595 23.735 215.624 25.534 216.745 26.655C217.866 27.776 219.665 27.806 220.823 26.746C220.893 28.314 222.186 29.565 223.77 29.565C225.356 29.565 226.649 28.314 226.718 26.746C227.877 27.806 229.674 27.776 230.795 26.655C231.916 25.534 231.947 23.735 230.886 22.577C232.454 22.509 233.705 21.216 233.705 19.63Z" fill="white"/>
<path d="M46.0626 81.296L45.8226 82.318H40.7216L42.8176 73.568H44.0426L42.1856 81.296" fill="white"/>
<path d="M49.1436 81.485C49.4966 81.485 49.8006 81.409 50.0516 81.258C50.3046 81.106 50.5236 80.929 50.7086 80.728C50.7176 80.585 50.7326 80.435 50.7526 80.279C50.7746 80.124 50.8016 79.965 50.8346 79.806L51.5936 76.674C51.5516 76.658 51.4816 76.645 51.3846 76.636C51.2876 76.628 51.2016 76.624 51.1256 76.624C50.6456 76.624 50.2126 76.716 49.8246 76.901C49.4376 77.087 49.1076 77.333 48.8346 77.64C48.5596 77.947 48.3506 78.306 48.2026 78.714C48.0556 79.122 47.9816 79.549 47.9816 79.995C47.9816 80.172 47.9986 80.351 48.0316 80.531C48.0656 80.713 48.1276 80.873 48.2156 81.011C48.3046 81.15 48.4216 81.264 48.5696 81.352C48.7166 81.441 48.9076 81.485 49.1436 81.485ZM51.0246 82.394C50.9826 82.302 50.9406 82.198 50.8986 82.085C50.8566 81.971 50.8226 81.851 50.7966 81.724C50.6116 81.893 50.3636 82.061 50.0516 82.23C49.7406 82.398 49.3586 82.483 48.9036 82.483C48.5336 82.483 48.2156 82.423 47.9506 82.306C47.6846 82.188 47.4676 82.023 47.3006 81.813C47.1316 81.603 47.0076 81.354 46.9276 81.068C46.8466 80.782 46.8066 80.467 46.8066 80.121C46.8066 79.557 46.9026 79.007 47.0916 78.467C47.2806 77.929 47.5656 77.449 47.9436 77.028C48.3226 76.607 48.7986 76.266 49.3706 76.005C49.9426 75.744 50.6116 75.614 51.3786 75.614C51.6056 75.614 51.8706 75.639 52.1736 75.69C52.4766 75.74 52.7376 75.824 52.9566 75.942L51.9846 79.907C51.9416 80.101 51.9066 80.286 51.8766 80.463C51.8466 80.639 51.8326 80.824 51.8326 81.017C51.8326 81.212 51.8496 81.407 51.8826 81.605C51.9166 81.803 51.9756 82.015 52.0596 82.242" fill="white"/>
<path d="M57.7166 81.397C57.8006 81.413 57.8916 81.425 57.9876 81.429C58.0846 81.433 58.1796 81.435 58.2726 81.435C58.7526 81.435 59.1816 81.343 59.5596 81.158C59.9396 80.972 60.2606 80.722 60.5256 80.405C60.7906 80.09 60.9956 79.728 61.1386 79.32C61.2816 78.911 61.3526 78.485 61.3526 78.038C61.3526 77.853 61.3326 77.672 61.2906 77.495C61.2486 77.319 61.1706 77.163 61.0556 77.028C60.9426 76.893 60.7886 76.786 60.5956 76.706C60.4016 76.626 60.1536 76.586 59.8506 76.586C59.6406 76.586 59.4466 76.606 59.2706 76.644C59.0926 76.681 58.9456 76.717 58.8276 76.75L57.7166 81.397ZM60.1406 75.588C60.5536 75.588 60.9096 75.648 61.2086 75.766C61.5066 75.883 61.7526 76.046 61.9466 76.252C62.1406 76.458 62.2846 76.702 62.3826 76.984C62.4796 77.266 62.5276 77.576 62.5276 77.912C62.5276 78.493 62.4396 79.055 62.2626 79.598C62.0856 80.14 61.8146 80.622 61.4476 81.044C61.0816 81.465 60.6186 81.801 60.0596 82.054C59.4996 82.306 58.8366 82.433 58.0696 82.433C57.9776 82.433 57.8766 82.428 57.7666 82.419C57.6576 82.411 57.5606 82.399 57.4776 82.381L56.9336 84.654H55.7596L57.8306 76.031C58.1846 75.887 58.5696 75.778 58.9856 75.702C59.4026 75.626 59.7866 75.588 60.1406 75.588Z" fill="white"/>
<path d="M64.9636 79.427C64.9216 79.612 64.8796 79.793 64.8376 79.97C64.7946 80.146 64.7746 80.315 64.7746 80.475C64.7746 80.762 64.8436 80.989 64.9836 81.157C65.1216 81.325 65.3806 81.431 65.7586 81.473L65.4936 82.433C65.1486 82.423 64.8566 82.371 64.6166 82.274C64.3766 82.178 64.1826 82.049 64.0356 81.889C63.8886 81.73 63.7806 81.54 63.7146 81.321C63.6466 81.102 63.6126 80.862 63.6126 80.601C63.6126 80.407 63.6296 80.206 63.6636 79.995C63.6966 79.785 63.7426 79.566 63.8026 79.339L65.3936 72.722L66.6176 72.521" fill="white"/>
<path d="M69.1556 81.485C69.5086 81.485 69.8126 81.409 70.0636 81.258C70.3166 81.106 70.5356 80.929 70.7216 80.728C70.7296 80.585 70.7446 80.435 70.7646 80.279C70.7866 80.124 70.8136 79.965 70.8466 79.806L71.6056 76.674C71.5636 76.658 71.4936 76.645 71.3966 76.636C71.2996 76.628 71.2136 76.624 71.1376 76.624C70.6576 76.624 70.2246 76.716 69.8366 76.901C69.4496 77.087 69.1196 77.333 68.8466 77.64C68.5716 77.947 68.3626 78.306 68.2146 78.714C68.0676 79.122 67.9936 79.549 67.9936 79.995C67.9936 80.172 68.0106 80.351 68.0436 80.531C68.0776 80.713 68.1396 80.873 68.2276 81.011C68.3156 81.15 68.4336 81.264 68.5816 81.352C68.7286 81.441 68.9196 81.485 69.1556 81.485ZM71.0366 82.394C70.9946 82.302 70.9526 82.198 70.9106 82.085C70.8686 81.971 70.8346 81.851 70.8086 81.724C70.6236 81.893 70.3756 82.061 70.0636 82.23C69.7526 82.398 69.3716 82.483 68.9156 82.483C68.5466 82.483 68.2276 82.423 67.9626 82.306C67.6966 82.188 67.4796 82.023 67.3126 81.813C67.1436 81.603 67.0196 81.354 66.9396 81.068C66.8586 80.782 66.8186 80.467 66.8186 80.121C66.8186 79.557 66.9146 79.007 67.1036 78.467C67.2926 77.929 67.5776 77.449 67.9556 77.028C68.3346 76.607 68.8106 76.266 69.3826 76.005C69.9546 75.744 70.6236 75.614 71.3906 75.614C71.6176 75.614 71.8826 75.639 72.1856 75.69C72.4886 75.74 72.7496 75.824 72.9686 75.942L71.9966 79.907C71.9536 80.101 71.9186 80.286 71.8886 80.463C71.8586 80.639 71.8446 80.824 71.8446 81.017C71.8446 81.212 71.8616 81.407 71.8946 81.605C71.9286 81.803 71.9876 82.015 72.0716 82.242" fill="white"/>
<path d="M75.6586 82.495C75.0276 82.495 74.5636 82.356 74.2696 82.079C73.9746 81.8 73.8276 81.397 73.8276 80.866C73.8276 80.521 73.8856 80.079 74.0046 79.541L75.3546 73.921L76.5796 73.72L76.0886 75.752H78.3226L78.0816 76.738H75.8476L75.1526 79.642C75.0526 80.037 75.0016 80.382 75.0016 80.677C75.0016 80.955 75.0776 81.155 75.2286 81.276C75.3816 81.399 75.6316 81.459 75.9866 81.459C76.2296 81.459 76.4706 81.42 76.7066 81.34C76.9406 81.26 77.1226 81.186 77.2496 81.119L77.3376 82.116C77.2116 82.192 76.9966 82.274 76.6946 82.362C76.3906 82.451 76.0456 82.495 75.6586 82.495Z" fill="white"/>
<path d="M79.8766 78.871C80.3636 78.855 80.8106 78.823 81.2136 78.776C81.6186 78.73 81.9676 78.65 82.2626 78.537C82.5566 78.423 82.7866 78.27 82.9506 78.076C83.1136 77.883 83.1966 77.63 83.1966 77.318C83.1966 77.242 83.1816 77.162 83.1526 77.078C83.1226 76.995 83.0726 76.917 83.0016 76.845C82.9296 76.774 82.8296 76.714 82.7046 76.668C82.5776 76.622 82.4216 76.599 82.2366 76.599C81.9426 76.599 81.6656 76.662 81.4096 76.788C81.1536 76.915 80.9226 77.081 80.7226 77.287C80.5196 77.493 80.3476 77.734 80.2046 78.007C80.0616 78.28 79.9516 78.568 79.8766 78.871ZM81.0756 82.483C80.6466 82.483 80.2756 82.421 79.9636 82.3C79.6526 82.178 79.3906 82.009 79.1816 81.794C78.9716 81.58 78.8156 81.33 78.7136 81.043C78.6136 80.758 78.5636 80.454 78.5636 80.134C78.5636 79.545 78.6516 78.977 78.8286 78.429C79.0046 77.883 79.2566 77.399 79.5856 76.977C79.9136 76.557 80.3136 76.222 80.7846 75.973C81.2566 75.726 81.7906 75.601 82.3886 75.601C82.7346 75.601 83.0296 75.646 83.2786 75.734C83.5276 75.822 83.7286 75.943 83.8846 76.094C84.0406 76.245 84.1566 76.42 84.2316 76.618C84.3086 76.816 84.3456 77.019 84.3456 77.23C84.3456 77.626 84.2746 77.961 84.1316 78.234C83.9876 78.507 83.7976 78.736 83.5636 78.922C83.3266 79.107 83.0516 79.25 82.7366 79.351C82.4206 79.453 82.0906 79.533 81.7506 79.591C81.4096 79.65 81.0636 79.69 80.7156 79.712C80.3656 79.732 80.0356 79.752 79.7246 79.768C79.7156 79.835 79.7126 79.89 79.7126 79.932V80.033C79.7126 80.226 79.7346 80.41 79.7796 80.582C79.8276 80.754 79.9136 80.907 80.0386 81.037C80.1656 81.168 80.3406 81.27 80.5636 81.346C80.7866 81.422 81.0796 81.459 81.4406 81.459C81.6016 81.459 81.7686 81.445 81.9406 81.415C82.1126 81.386 82.2766 81.348 82.4336 81.302C82.5886 81.256 82.7266 81.21 82.8496 81.163C82.9716 81.117 83.0566 81.073 83.1086 81.031L83.2096 82.028C83.0406 82.121 82.7696 82.22 82.3946 82.325C82.0196 82.429 81.5796 82.483 81.0756 82.483Z" fill="white"/>
<path d="M87.5516 75.753H89.7496L89.5216 76.737H87.3246L86.3146 80.905C86.2136 81.335 86.1256 81.717 86.0496 82.053C85.9736 82.391 85.8826 82.705 85.7776 83.001C85.6726 83.295 85.5336 83.58 85.3606 83.853C85.1886 84.126 84.9546 84.411 84.6606 84.705L83.6256 84.553C83.8786 84.225 84.0756 83.948 84.2186 83.721C84.3626 83.493 84.4816 83.261 84.5786 83.026C84.6756 82.791 84.7596 82.518 84.8306 82.212C84.9026 81.905 84.9976 81.507 85.1156 81.018L86.5166 75.16C86.6176 74.739 86.7456 74.364 86.9026 74.036C87.0576 73.707 87.2556 73.432 87.4946 73.209C87.7356 72.986 88.0196 72.814 88.3476 72.698C88.6756 72.58 89.0676 72.521 89.5216 72.521C89.8166 72.521 90.0956 72.55 90.3616 72.61C90.6266 72.668 90.8266 72.73 90.9606 72.798L90.4946 73.732C90.4266 73.7 90.3106 73.657 90.1476 73.605C89.9826 73.555 89.7406 73.53 89.4206 73.53C89.1436 73.53 88.9066 73.571 88.7136 73.651C88.5196 73.73 88.3566 73.843 88.2216 73.986C88.0866 74.128 87.9786 74.301 87.8986 74.503C87.8186 74.705 87.7496 74.932 87.6916 75.185" fill="white"/>
<path d="M92.1616 81.485C92.5396 81.485 92.8786 81.376 93.1776 81.157C93.4756 80.938 93.7286 80.658 93.9356 80.317C94.1416 79.977 94.2986 79.599 94.4086 79.187C94.5176 78.774 94.5736 78.375 94.5736 77.987C94.5736 77.558 94.4796 77.218 94.2946 76.965C94.1096 76.712 93.7906 76.586 93.3346 76.586C92.9566 76.586 92.6176 76.696 92.3186 76.915C92.0196 77.133 91.7676 77.413 91.5616 77.754C91.3546 78.095 91.1966 78.471 91.0876 78.884C90.9786 79.296 90.9236 79.696 90.9236 80.083C90.9236 80.513 91.0156 80.854 91.2016 81.106C91.3866 81.359 91.7066 81.485 92.1616 81.485ZM91.9596 82.483C91.2686 82.483 90.7286 82.278 90.3366 81.87C89.9456 81.462 89.7496 80.9 89.7496 80.184C89.7496 79.696 89.8186 79.183 89.9576 78.644C90.0966 78.105 90.3186 77.609 90.6206 77.154C90.9236 76.7 91.3146 76.325 91.7946 76.031C92.2746 75.736 92.8556 75.588 93.5376 75.588C94.2276 75.588 94.7686 75.792 95.1596 76.2C95.5516 76.609 95.7466 77.171 95.7466 77.887C95.7466 78.375 95.6776 78.888 95.5396 79.427C95.3996 79.965 95.1786 80.463 94.8756 80.917C94.5736 81.371 94.1816 81.746 93.7016 82.041C93.2216 82.335 92.6416 82.483 91.9596 82.483Z" fill="white"/>
<path d="M100.217 75.614C100.318 75.614 100.432 75.618 100.558 75.626C100.685 75.636 100.808 75.65 100.93 75.671C101.052 75.692 101.164 75.713 101.265 75.734C101.366 75.755 101.442 75.778 101.492 75.803L101.151 76.827C100.983 76.759 100.789 76.708 100.57 76.674C100.352 76.642 100.141 76.624 99.9396 76.624C99.7626 76.624 99.5866 76.636 99.4156 76.662C99.2426 76.688 99.0926 76.721 98.9656 76.763L97.6286 82.319H96.4536L97.9696 76.005C98.3056 75.887 98.6676 75.793 99.0546 75.722C99.4416 75.65 99.8296 75.614 100.217 75.614Z" fill="white"/>
<path d="M108.752 75.614C109.123 75.614 109.436 75.671 109.693 75.785C109.95 75.899 110.155 76.052 110.311 76.245C110.468 76.439 110.579 76.664 110.647 76.921C110.714 77.178 110.747 77.449 110.747 77.735C110.747 77.921 110.732 78.12 110.702 78.335C110.673 78.55 110.632 78.758 110.582 78.96L109.775 82.319H108.6L109.345 79.212C109.388 79.019 109.436 78.802 109.491 78.562C109.545 78.323 109.573 78.084 109.573 77.849C109.573 77.69 109.554 77.533 109.516 77.381C109.477 77.23 109.416 77.1 109.327 76.99C109.239 76.881 109.114 76.793 108.954 76.725C108.793 76.658 108.597 76.624 108.361 76.624C108.091 76.624 107.83 76.676 107.579 76.782C107.325 76.887 107.114 76.995 106.947 77.104C106.964 77.222 106.977 77.337 106.991 77.451C107.004 77.565 107.009 77.676 107.009 77.786C107.009 77.979 106.995 78.176 106.966 78.373C106.936 78.571 106.9 78.766 106.857 78.96L106.05 82.319H104.875L105.62 79.212C105.663 79.019 105.709 78.8 105.759 78.556C105.809 78.312 105.836 78.068 105.836 77.823C105.836 77.664 105.818 77.51 105.784 77.363C105.752 77.216 105.695 77.087 105.614 76.978C105.534 76.869 105.427 76.782 105.293 76.719C105.157 76.656 104.984 76.624 104.775 76.624C104.564 76.624 104.359 76.636 104.163 76.662C103.964 76.688 103.798 76.721 103.664 76.763L102.325 82.319H101.15L102.666 76.005C103.045 75.887 103.459 75.793 103.909 75.722C104.359 75.65 104.763 75.614 105.116 75.614C105.47 75.614 105.768 75.676 106.013 75.797C106.257 75.919 106.45 76.082 106.593 76.283C106.677 76.224 106.793 76.157 106.939 76.082C107.086 76.005 107.255 75.934 107.445 75.867C107.634 75.799 107.841 75.74 108.064 75.69C108.288 75.64 108.516 75.614 108.752 75.614Z" fill="white"/>
<path d="M113.222 78.871C113.71 78.855 114.156 78.823 114.56 78.776C114.964 78.73 115.313 78.65 115.608 78.537C115.903 78.423 116.132 78.27 116.296 78.076C116.46 77.883 116.542 77.63 116.542 77.318C116.542 77.242 116.528 77.162 116.498 77.078C116.468 76.995 116.418 76.917 116.347 76.845C116.275 76.774 116.176 76.714 116.05 76.668C115.923 76.622 115.767 76.599 115.582 76.599C115.288 76.599 115.012 76.662 114.755 76.788C114.499 76.915 114.269 77.081 114.068 77.287C113.865 77.493 113.693 77.734 113.55 78.007C113.407 78.28 113.297 78.568 113.222 78.871ZM114.421 82.483C113.992 82.483 113.621 82.421 113.31 82.3C112.998 82.178 112.737 82.009 112.527 81.794C112.317 81.58 112.161 81.33 112.06 81.043C111.959 80.758 111.909 80.454 111.909 80.134C111.909 79.545 111.997 78.977 112.174 78.429C112.351 77.883 112.602 77.399 112.931 76.977C113.259 76.557 113.659 76.222 114.13 75.973C114.602 75.726 115.136 75.601 115.734 75.601C116.08 75.601 116.376 75.646 116.624 75.734C116.873 75.822 117.074 75.943 117.23 76.094C117.386 76.245 117.502 76.42 117.578 76.618C117.654 76.816 117.691 77.019 117.691 77.23C117.691 77.626 117.62 77.961 117.477 78.234C117.333 78.507 117.144 78.736 116.909 78.922C116.672 79.107 116.397 79.25 116.082 79.351C115.766 79.453 115.437 79.533 115.096 79.591C114.755 79.65 114.41 79.69 114.061 79.712C113.712 79.732 113.381 79.752 113.07 79.768C113.062 79.835 113.058 79.89 113.058 79.932V80.033C113.058 80.226 113.08 80.41 113.126 80.582C113.173 80.754 113.259 80.907 113.385 81.037C113.512 81.168 113.686 81.27 113.909 81.346C114.132 81.422 114.425 81.459 114.787 81.459C114.947 81.459 115.114 81.445 115.286 81.415C115.458 81.386 115.622 81.348 115.779 81.302C115.934 81.256 116.072 81.21 116.195 81.163C116.317 81.117 116.403 81.073 116.454 81.031L116.555 82.028C116.387 82.121 116.115 82.22 115.74 82.325C115.365 82.429 114.926 82.483 114.421 82.483Z" fill="white"/>
<path d="M123.727 81.485C124.08 81.485 124.382 81.411 124.629 81.264C124.878 81.117 125.095 80.947 125.28 80.752C125.288 80.618 125.303 80.473 125.324 80.317C125.345 80.162 125.376 79.991 125.418 79.806L126.177 76.649C126.101 76.632 126.016 76.622 125.924 76.618C125.831 76.613 125.743 76.611 125.659 76.611C125.179 76.611 124.745 76.704 124.358 76.889C123.971 77.074 123.641 77.322 123.367 77.634C123.093 77.945 122.883 78.306 122.735 78.714C122.588 79.122 122.515 79.549 122.515 79.995C122.515 80.189 122.536 80.374 122.578 80.551C122.62 80.728 122.687 80.885 122.78 81.024C122.872 81.163 122.996 81.274 123.153 81.359C123.308 81.443 123.5 81.485 123.727 81.485ZM126.404 81.017C126.404 81.212 126.42 81.407 126.454 81.605C126.488 81.803 126.547 82.015 126.631 82.242L125.596 82.394C125.503 82.209 125.432 81.985 125.381 81.724C125.195 81.893 124.948 82.061 124.636 82.23C124.324 82.398 123.942 82.483 123.487 82.483C123.117 82.483 122.797 82.425 122.528 82.312C122.258 82.198 122.035 82.037 121.858 81.826C121.681 81.615 121.551 81.365 121.466 81.075C121.382 80.784 121.34 80.467 121.34 80.121C121.34 79.557 121.436 79.007 121.625 78.467C121.814 77.929 122.096 77.449 122.47 77.028C122.845 76.607 123.314 76.268 123.878 76.011C124.442 75.754 125.099 75.626 125.848 75.626C125.94 75.626 126.033 75.631 126.126 75.639C126.219 75.648 126.315 75.66 126.416 75.677L127.123 72.722L128.348 72.521L126.568 79.907C126.526 80.101 126.488 80.286 126.454 80.463C126.42 80.639 126.404 80.824 126.404 81.017Z" fill="white"/>
<path d="M129.586 78.871C130.074 78.855 130.52 78.823 130.924 78.776C131.328 78.73 131.677 78.65 131.972 78.537C132.267 78.423 132.496 78.27 132.66 78.076C132.824 77.883 132.906 77.63 132.906 77.318C132.906 77.242 132.892 77.162 132.862 77.078C132.832 76.995 132.782 76.917 132.711 76.845C132.639 76.774 132.54 76.714 132.414 76.668C132.287 76.622 132.131 76.599 131.946 76.599C131.652 76.599 131.376 76.662 131.119 76.788C130.863 76.915 130.633 77.081 130.432 77.287C130.229 77.493 130.057 77.734 129.914 78.007C129.771 78.28 129.661 78.568 129.586 78.871ZM130.785 82.483C130.356 82.483 129.985 82.421 129.674 82.3C129.362 82.178 129.101 82.009 128.891 81.794C128.681 81.58 128.525 81.33 128.424 81.043C128.323 80.758 128.273 80.454 128.273 80.134C128.273 79.545 128.361 78.977 128.538 78.429C128.715 77.883 128.966 77.399 129.295 76.977C129.623 76.557 130.023 76.222 130.494 75.973C130.966 75.726 131.5 75.601 132.098 75.601C132.444 75.601 132.74 75.646 132.988 75.734C133.237 75.822 133.438 75.943 133.594 76.094C133.75 76.245 133.866 76.42 133.942 76.618C134.018 76.816 134.055 77.019 134.055 77.23C134.055 77.626 133.984 77.961 133.841 78.234C133.697 78.507 133.508 78.736 133.273 78.922C133.036 79.107 132.761 79.25 132.446 79.351C132.13 79.453 131.801 79.533 131.46 79.591C131.119 79.65 130.774 79.69 130.426 79.712C130.076 79.732 129.745 79.752 129.434 79.768C129.426 79.835 129.422 79.89 129.422 79.932V80.033C129.422 80.226 129.444 80.41 129.49 80.582C129.537 80.754 129.623 80.907 129.749 81.037C129.876 81.168 130.05 81.27 130.273 81.346C130.496 81.422 130.789 81.459 131.151 81.459C131.311 81.459 131.478 81.445 131.65 81.415C131.822 81.386 131.986 81.348 132.143 81.302C132.298 81.256 132.436 81.21 132.559 81.163C132.681 81.117 132.767 81.073 132.818 81.031L132.919 82.028C132.751 82.121 132.479 82.22 132.105 82.325C131.729 82.429 131.29 82.483 130.785 82.483Z" fill="white"/>
<path d="M136.151 81.498C136.328 81.498 136.507 81.482 136.687 81.448C136.868 81.414 137.029 81.359 137.167 81.282C137.306 81.207 137.42 81.103 137.508 80.973C137.597 80.843 137.641 80.682 137.641 80.487C137.641 80.362 137.62 80.251 137.578 80.153C137.536 80.057 137.468 79.966 137.376 79.882C137.283 79.798 137.167 79.716 137.029 79.636C136.89 79.555 136.723 79.466 136.53 79.364C136.336 79.271 136.159 79.18 136 79.086C135.84 78.994 135.699 78.885 135.577 78.759C135.454 78.632 135.36 78.482 135.292 78.311C135.225 78.137 135.191 77.928 135.191 77.685C135.191 77.053 135.418 76.546 135.874 76.164C136.328 75.78 136.988 75.589 137.856 75.589C138.26 75.589 138.615 75.628 138.922 75.709C139.23 75.789 139.442 75.862 139.56 75.93L139.119 76.889C139 76.823 138.811 76.751 138.55 76.675C138.289 76.6 137.999 76.562 137.679 76.562C137.519 76.562 137.359 76.578 137.199 76.612C137.039 76.646 136.894 76.702 136.763 76.782C136.633 76.862 136.528 76.968 136.448 77.098C136.368 77.228 136.328 77.387 136.328 77.571C136.328 77.798 136.416 77.986 136.593 78.134C136.77 78.28 137.035 78.435 137.388 78.594C137.607 78.695 137.803 78.798 137.976 78.903C138.149 79.009 138.295 79.126 138.418 79.257C138.539 79.387 138.633 79.542 138.695 79.718C138.759 79.895 138.79 80.105 138.79 80.348C138.79 80.703 138.723 81.014 138.588 81.282C138.454 81.553 138.266 81.776 138.026 81.953C137.786 82.13 137.502 82.262 137.173 82.351C136.846 82.439 136.488 82.482 136.101 82.482C135.814 82.482 135.555 82.464 135.324 82.426C135.093 82.389 134.89 82.345 134.718 82.293C134.545 82.243 134.402 82.191 134.289 82.136C134.175 82.082 134.089 82.037 134.03 82.003L134.484 81.044C134.543 81.078 134.625 81.12 134.731 81.17C134.836 81.221 134.962 81.271 135.109 81.321C135.257 81.371 135.418 81.414 135.595 81.448C135.772 81.482 135.958 81.498 136.151 81.498Z" fill="white"/>
<path d="M144.03 81.397C144.113 81.413 144.205 81.425 144.301 81.429C144.398 81.433 144.492 81.435 144.585 81.435C145.065 81.435 145.494 81.343 145.873 81.158C146.252 80.972 146.574 80.722 146.839 80.405C147.104 80.09 147.308 79.728 147.452 79.32C147.595 78.911 147.666 78.485 147.666 78.038C147.666 77.853 147.645 77.672 147.603 77.495C147.561 77.319 147.483 77.163 147.37 77.028C147.255 76.893 147.102 76.786 146.908 76.706C146.715 76.626 146.466 76.586 146.163 76.586C145.953 76.586 145.759 76.606 145.583 76.644C145.406 76.681 145.259 76.717 145.141 76.75L144.03 81.397ZM146.454 75.588C146.866 75.588 147.222 75.648 147.521 75.766C147.82 75.883 148.066 76.046 148.259 76.252C148.453 76.458 148.598 76.702 148.695 76.984C148.792 77.266 148.84 77.576 148.84 77.912C148.84 78.493 148.752 79.055 148.575 79.598C148.398 80.14 148.127 80.622 147.761 81.044C147.394 81.465 146.932 81.801 146.372 82.054C145.812 82.306 145.149 82.433 144.383 82.433C144.29 82.433 144.189 82.428 144.08 82.419C143.97 82.411 143.874 82.399 143.79 82.381L143.247 84.654H142.073L144.143 76.031C144.497 75.887 144.882 75.778 145.299 75.702C145.715 75.626 146.1 75.588 146.454 75.588Z" fill="white"/>
<path d="M153.284 75.614C153.386 75.614 153.499 75.618 153.625 75.626C153.752 75.636 153.876 75.65 153.998 75.671C154.119 75.692 154.231 75.713 154.332 75.734C154.434 75.755 154.509 75.778 154.56 75.803L154.219 76.827C154.051 76.759 153.856 76.708 153.639 76.674C153.419 76.642 153.209 76.624 153.007 76.624C152.83 76.624 152.655 76.636 152.483 76.662C152.31 76.688 152.161 76.721 152.035 76.763L150.696 82.319H149.522L151.037 76.005C151.374 75.887 151.736 75.793 152.123 75.722C152.51 75.65 152.898 75.614 153.284 75.614Z" fill="white"/>
<path d="M156.87 81.485C157.249 81.485 157.587 81.376 157.886 81.157C158.185 80.938 158.438 80.658 158.645 80.317C158.85 79.977 159.008 79.599 159.117 79.187C159.227 78.774 159.282 78.375 159.282 77.987C159.282 77.558 159.189 77.218 159.004 76.965C158.818 76.712 158.499 76.586 158.044 76.586C157.665 76.586 157.326 76.696 157.028 76.915C156.729 77.133 156.476 77.413 156.27 77.754C156.064 78.095 155.906 78.471 155.797 78.884C155.687 79.296 155.633 79.696 155.633 80.083C155.633 80.513 155.725 80.854 155.91 81.106C156.095 81.359 156.416 81.485 156.87 81.485ZM156.668 82.483C155.978 82.483 155.437 82.278 155.045 81.87C154.655 81.462 154.458 80.9 154.458 80.184C154.458 79.696 154.528 79.183 154.667 78.644C154.806 78.105 155.027 77.609 155.33 77.154C155.633 76.7 156.024 76.325 156.504 76.031C156.984 75.736 157.565 75.588 158.246 75.588C158.936 75.588 159.478 75.792 159.868 76.2C160.26 76.609 160.456 77.171 160.456 77.887C160.456 78.375 160.386 78.888 160.248 79.427C160.109 79.965 159.888 80.463 159.585 80.917C159.282 81.371 158.89 81.746 158.41 82.041C157.93 82.335 157.35 82.483 156.668 82.483Z" fill="white"/>
<path d="M162.804 81.498C162.981 81.498 163.16 81.482 163.34 81.448C163.521 81.414 163.682 81.359 163.82 81.282C163.959 81.207 164.073 81.103 164.161 80.973C164.25 80.843 164.294 80.682 164.294 80.487C164.294 80.362 164.273 80.251 164.231 80.153C164.189 80.057 164.121 79.966 164.029 79.882C163.936 79.798 163.82 79.716 163.682 79.636C163.543 79.555 163.376 79.466 163.183 79.364C162.989 79.271 162.812 79.18 162.653 79.086C162.493 78.994 162.352 78.885 162.23 78.759C162.107 78.632 162.013 78.482 161.945 78.311C161.878 78.137 161.844 77.928 161.844 77.685C161.844 77.053 162.071 76.546 162.527 76.164C162.981 75.78 163.641 75.589 164.509 75.589C164.913 75.589 165.268 75.628 165.575 75.709C165.883 75.789 166.095 75.862 166.213 75.93L165.772 76.889C165.653 76.823 165.464 76.751 165.203 76.675C164.942 76.6 164.652 76.562 164.332 76.562C164.172 76.562 164.012 76.578 163.852 76.612C163.692 76.646 163.547 76.702 163.416 76.782C163.286 76.862 163.181 76.968 163.101 77.098C163.021 77.228 162.981 77.387 162.981 77.571C162.981 77.798 163.069 77.986 163.246 78.134C163.423 78.28 163.688 78.435 164.041 78.594C164.26 78.695 164.456 78.798 164.629 78.903C164.802 79.009 164.948 79.126 165.071 79.257C165.192 79.387 165.286 79.542 165.348 79.718C165.412 79.895 165.443 80.105 165.443 80.348C165.443 80.703 165.376 81.014 165.241 81.282C165.107 81.553 164.919 81.776 164.679 81.953C164.439 82.13 164.155 82.262 163.826 82.351C163.499 82.439 163.141 82.482 162.754 82.482C162.467 82.482 162.208 82.464 161.977 82.426C161.746 82.389 161.543 82.345 161.371 82.293C161.198 82.243 161.055 82.191 160.942 82.136C160.828 82.082 160.742 82.037 160.683 82.003L161.137 81.044C161.196 81.078 161.278 81.12 161.384 81.17C161.489 81.221 161.615 81.271 161.762 81.321C161.91 81.371 162.071 81.414 162.248 81.448C162.425 81.482 162.611 81.498 162.804 81.498Z" fill="white"/>
<path d="M171.945 81.485C172.298 81.485 172.6 81.411 172.848 81.264C173.097 81.117 173.314 80.947 173.499 80.752C173.507 80.618 173.521 80.473 173.543 80.317C173.563 80.162 173.595 79.991 173.637 79.806L174.395 76.649C174.32 76.632 174.235 76.622 174.143 76.618C174.049 76.613 173.961 76.611 173.877 76.611C173.398 76.611 172.964 76.704 172.577 76.889C172.19 77.074 171.859 77.322 171.585 77.634C171.312 77.945 171.101 78.306 170.954 78.714C170.806 79.122 170.734 79.549 170.734 79.995C170.734 80.189 170.754 80.374 170.796 80.551C170.838 80.728 170.906 80.885 170.999 81.024C171.091 81.163 171.215 81.274 171.371 81.359C171.527 81.443 171.718 81.485 171.945 81.485ZM174.622 81.017C174.622 81.212 174.639 81.407 174.673 81.605C174.706 81.803 174.766 82.015 174.85 82.242L173.814 82.394C173.722 82.209 173.65 81.985 173.599 81.724C173.414 81.893 173.166 82.061 172.854 82.23C172.543 82.398 172.16 82.483 171.706 82.483C171.335 82.483 171.015 82.425 170.746 82.312C170.477 82.198 170.254 82.037 170.077 81.826C169.9 81.615 169.77 81.365 169.685 81.075C169.601 80.784 169.559 80.467 169.559 80.121C169.559 79.557 169.654 79.007 169.843 78.467C170.033 77.929 170.314 77.449 170.689 77.028C171.063 76.607 171.533 76.268 172.097 76.011C172.661 75.754 173.318 75.626 174.067 75.626C174.159 75.626 174.252 75.631 174.344 75.639C174.437 75.648 174.533 75.66 174.635 75.677L175.342 72.722L176.567 72.521L174.786 79.907C174.744 80.101 174.706 80.286 174.673 80.463C174.639 80.639 174.622 80.824 174.622 81.017Z" fill="white"/>
<path d="M177.804 78.871C178.292 78.855 178.738 78.823 179.143 78.776C179.547 78.73 179.896 78.65 180.19 78.537C180.485 78.423 180.714 78.27 180.878 78.076C181.043 77.883 181.125 77.63 181.125 77.318C181.125 77.242 181.11 77.162 181.081 77.078C181.051 76.995 181.001 76.917 180.929 76.845C180.858 76.774 180.758 76.714 180.633 76.668C180.506 76.622 180.35 76.599 180.165 76.599C179.87 76.599 179.595 76.662 179.338 76.788C179.081 76.915 178.852 77.081 178.65 77.287C178.448 77.493 178.276 77.734 178.132 78.007C177.989 78.28 177.88 78.568 177.804 78.871ZM179.003 82.483C178.575 82.483 178.204 82.421 177.892 82.3C177.581 82.178 177.32 82.009 177.109 81.794C176.899 81.58 176.744 81.33 176.643 81.043C176.541 80.758 176.491 80.454 176.491 80.134C176.491 79.545 176.579 78.977 176.756 78.429C176.933 77.883 177.185 77.399 177.513 76.977C177.842 76.557 178.242 76.222 178.713 75.973C179.184 75.726 179.719 75.601 180.316 75.601C180.662 75.601 180.959 75.646 181.207 75.734C181.455 75.822 181.657 75.943 181.812 76.094C181.969 76.245 182.085 76.42 182.16 76.618C182.236 76.816 182.274 77.019 182.274 77.23C182.274 77.626 182.202 77.961 182.059 78.234C181.916 78.507 181.726 78.736 181.491 78.922C181.255 79.107 180.979 79.25 180.664 79.351C180.348 79.453 180.02 79.533 179.679 79.591C179.338 79.65 178.993 79.69 178.643 79.712C178.294 79.732 177.964 79.752 177.653 79.768C177.644 79.835 177.64 79.89 177.64 79.932V80.033C177.64 80.226 177.663 80.41 177.709 80.582C177.756 80.754 177.842 80.907 177.968 81.037C178.095 81.168 178.269 81.27 178.492 81.346C178.715 81.422 179.007 81.459 179.37 81.459C179.529 81.459 179.696 81.445 179.868 81.415C180.041 81.386 180.205 81.348 180.361 81.302C180.517 81.256 180.655 81.21 180.778 81.163C180.899 81.117 180.986 81.073 181.037 81.031L181.137 82.028C180.969 82.121 180.698 82.22 180.322 82.325C179.948 82.429 179.509 82.483 179.003 82.483Z" fill="white"/>
<path d="M187.4 79.427C187.358 79.612 187.316 79.793 187.274 79.97C187.231 80.146 187.21 80.315 187.21 80.475C187.21 80.762 187.28 80.989 187.418 81.157C187.557 81.325 187.816 81.431 188.195 81.473L187.93 82.433C187.585 82.423 187.292 82.371 187.053 82.274C186.813 82.178 186.619 82.049 186.472 81.889C186.324 81.73 186.217 81.54 186.149 81.321C186.082 81.102 186.049 80.862 186.049 80.601C186.049 80.407 186.065 80.206 186.099 79.995C186.133 79.785 186.179 79.566 186.238 79.339L187.828 72.722L189.053 72.521" fill="white"/>
<path d="M191.591 81.485C191.945 81.485 192.248 81.409 192.501 81.258C192.754 81.106 192.973 80.929 193.157 80.728C193.166 80.585 193.18 80.435 193.202 80.279C193.223 80.124 193.25 79.965 193.284 79.806L194.041 76.674C194 76.658 193.93 76.645 193.834 76.636C193.737 76.628 193.65 76.624 193.575 76.624C193.095 76.624 192.662 76.716 192.273 76.901C191.887 77.087 191.555 77.333 191.282 77.64C191.009 77.947 190.798 78.306 190.652 78.714C190.504 79.122 190.43 79.549 190.43 79.995C190.43 80.172 190.447 80.351 190.48 80.531C190.514 80.713 190.576 80.873 190.664 81.011C190.753 81.15 190.871 81.264 191.018 81.352C191.164 81.441 191.357 81.485 191.591 81.485ZM193.473 82.394C193.43 82.302 193.389 82.198 193.348 82.085C193.305 81.971 193.272 81.851 193.246 81.724C193.061 81.893 192.813 82.061 192.501 82.23C192.189 82.398 191.807 82.483 191.353 82.483C190.982 82.483 190.664 82.423 190.398 82.306C190.134 82.188 189.916 82.023 189.748 81.813C189.58 81.603 189.455 81.354 189.377 81.068C189.296 80.782 189.255 80.467 189.255 80.121C189.255 79.557 189.351 79.007 189.539 78.467C189.73 77.929 190.014 77.449 190.393 77.028C190.772 76.607 191.247 76.266 191.819 76.005C192.391 75.744 193.061 75.614 193.827 75.614C194.055 75.614 194.32 75.639 194.623 75.69C194.926 75.74 195.186 75.824 195.405 75.942L194.432 79.907C194.391 80.101 194.355 80.286 194.326 80.463C194.296 80.639 194.282 80.824 194.282 81.017C194.282 81.212 194.298 81.407 194.332 81.605C194.366 81.803 194.425 82.015 194.509 82.242" fill="white"/>
<path d="M200.165 81.397C200.249 81.413 200.34 81.425 200.436 81.429C200.533 81.433 200.627 81.435 200.722 81.435C201.2 81.435 201.629 81.343 202.008 81.158C202.388 80.972 202.709 80.722 202.974 80.405C203.239 80.09 203.445 79.728 203.588 79.32C203.73 78.911 203.802 78.485 203.802 78.038C203.802 77.853 203.78 77.672 203.738 77.495C203.697 77.319 203.62 77.163 203.505 77.028C203.39 76.893 203.238 76.786 203.045 76.706C202.85 76.626 202.602 76.586 202.299 76.586C202.089 76.586 201.895 76.606 201.718 76.644C201.541 76.681 201.395 76.717 201.277 76.75L200.165 81.397ZM202.589 75.588C203.002 75.588 203.358 75.648 203.656 75.766C203.955 75.883 204.202 76.046 204.395 76.252C204.589 76.458 204.733 76.702 204.83 76.984C204.927 77.266 204.977 77.576 204.977 77.912C204.977 78.493 204.888 79.055 204.711 79.598C204.534 80.14 204.263 80.622 203.897 81.044C203.53 81.465 203.068 81.801 202.507 82.054C201.947 82.306 201.284 82.433 200.518 82.433C200.427 82.433 200.324 82.428 200.215 82.419C200.105 82.411 200.009 82.399 199.925 82.381L199.382 84.654H198.208L200.279 76.031C200.633 75.887 201.018 75.778 201.434 75.702C201.85 75.626 202.236 75.588 202.589 75.588Z" fill="white"/>
<path d="M207.274 78.871C207.762 78.855 208.208 78.823 208.612 78.776C209.016 78.73 209.365 78.65 209.66 78.537C209.955 78.423 210.184 78.27 210.348 78.076C210.513 77.883 210.594 77.63 210.594 77.318C210.594 77.242 210.58 77.162 210.55 77.078C210.521 76.995 210.471 76.917 210.399 76.845C210.327 76.774 210.228 76.714 210.102 76.668C209.975 76.622 209.82 76.599 209.635 76.599C209.34 76.599 209.065 76.662 208.808 76.788C208.551 76.915 208.322 77.081 208.12 77.287C207.917 77.493 207.745 77.734 207.602 78.007C207.459 78.28 207.349 78.568 207.274 78.871ZM208.473 82.483C208.044 82.483 207.674 82.421 207.362 82.3C207.051 82.178 206.79 82.009 206.579 81.794C206.369 81.58 206.214 81.33 206.112 81.043C206.011 80.758 205.961 80.454 205.961 80.134C205.961 79.545 206.049 78.977 206.226 78.429C206.403 77.883 206.655 77.399 206.983 76.977C207.312 76.557 207.712 76.222 208.182 75.973C208.654 75.726 209.188 75.601 209.786 75.601C210.132 75.601 210.429 75.646 210.676 75.734C210.925 75.822 211.127 75.943 211.282 76.094C211.439 76.245 211.554 76.42 211.63 76.618C211.706 76.816 211.744 77.019 211.744 77.23C211.744 77.626 211.672 77.961 211.529 78.234C211.385 78.507 211.196 78.736 210.961 78.922C210.724 79.107 210.449 79.25 210.134 79.351C209.818 79.453 209.489 79.533 209.149 79.591C208.808 79.65 208.463 79.69 208.113 79.712C207.764 79.732 207.433 79.752 207.122 79.768C207.114 79.835 207.11 79.89 207.11 79.932V80.033C207.11 80.226 207.132 80.41 207.179 80.582C207.226 80.754 207.312 80.907 207.437 81.037C207.564 81.168 207.738 81.27 207.961 81.346C208.184 81.422 208.477 81.459 208.839 81.459C208.999 81.459 209.166 81.445 209.338 81.415C209.511 81.386 209.674 81.348 209.831 81.302C209.987 81.256 210.125 81.21 210.248 81.163C210.369 81.117 210.455 81.073 210.506 81.031L210.607 82.028C210.439 82.121 210.168 82.22 209.792 82.325C209.418 82.429 208.979 82.483 208.473 82.483Z" fill="white"/>
<path d="M214.445 82.495C213.814 82.495 213.351 82.356 213.056 82.079C212.762 81.8 212.614 81.397 212.614 80.866C212.614 80.521 212.674 80.079 212.791 79.541L214.142 73.921L215.367 73.72L214.875 75.752H217.109L216.869 76.738H214.634L213.94 79.642C213.839 80.037 213.788 80.382 213.788 80.677C213.788 80.955 213.864 81.155 214.015 81.276C214.168 81.399 214.42 81.459 214.774 81.459C215.017 81.459 215.258 81.42 215.493 81.34C215.728 81.26 215.91 81.186 216.036 81.119L216.124 82.116C215.999 82.192 215.784 82.274 215.481 82.362C215.178 82.451 214.832 82.495 214.445 82.495Z" fill="white"/>
<path d="M219.648 74.566C219.454 74.566 219.291 74.507 219.161 74.389C219.03 74.272 218.966 74.108 218.966 73.897C218.966 73.628 219.05 73.415 219.218 73.259C219.386 73.104 219.575 73.026 219.786 73.026C219.98 73.026 220.143 73.087 220.279 73.209C220.414 73.331 220.48 73.501 220.48 73.72C220.48 73.973 220.393 74.177 220.216 74.333C220.039 74.489 219.848 74.566 219.648 74.566ZM218.284 82.319H217.109L218.688 75.753H219.863" fill="white"/>
<path d="M222.501 82.495C221.87 82.495 221.407 82.356 221.112 82.079C220.818 81.8 220.67 81.397 220.67 80.866C220.67 80.521 220.73 80.079 220.847 79.541L222.198 73.921L223.423 73.72L222.931 75.752H225.165L224.925 76.738H222.69L221.996 79.642C221.895 80.037 221.844 80.382 221.844 80.677C221.844 80.955 221.92 81.155 222.071 81.276C222.224 81.399 222.476 81.459 222.83 81.459C223.073 81.459 223.314 81.42 223.549 81.34C223.784 81.26 223.966 81.186 224.092 81.119L224.18 82.116C224.055 82.192 223.84 82.274 223.537 82.362C223.234 82.451 222.888 82.495 222.501 82.495Z" fill="white"/>
<path d="M226.718 78.871C227.206 78.855 227.652 78.823 228.056 78.776C228.46 78.73 228.809 78.65 229.104 78.537C229.399 78.423 229.628 78.27 229.792 78.076C229.957 77.883 230.038 77.63 230.038 77.318C230.038 77.242 230.024 77.162 229.994 77.078C229.965 76.995 229.915 76.917 229.843 76.845C229.771 76.774 229.672 76.714 229.546 76.668C229.419 76.622 229.264 76.599 229.079 76.599C228.784 76.599 228.509 76.662 228.252 76.788C227.995 76.915 227.766 77.081 227.564 77.287C227.361 77.493 227.189 77.734 227.046 78.007C226.903 78.28 226.793 78.568 226.718 78.871ZM227.917 82.483C227.488 82.483 227.118 82.421 226.806 82.3C226.495 82.178 226.234 82.009 226.023 81.794C225.813 81.58 225.658 81.33 225.556 81.043C225.455 80.758 225.405 80.454 225.405 80.134C225.405 79.545 225.493 78.977 225.67 78.429C225.847 77.883 226.099 77.399 226.427 76.977C226.756 76.557 227.156 76.222 227.626 75.973C228.098 75.726 228.632 75.601 229.23 75.601C229.576 75.601 229.873 75.646 230.12 75.734C230.369 75.822 230.571 75.943 230.726 76.094C230.883 76.245 230.998 76.42 231.074 76.618C231.15 76.816 231.188 77.019 231.188 77.23C231.188 77.626 231.116 77.961 230.973 78.234C230.829 78.507 230.64 78.736 230.405 78.922C230.168 79.107 229.893 79.25 229.578 79.351C229.262 79.453 228.933 79.533 228.593 79.591C228.252 79.65 227.907 79.69 227.558 79.712C227.208 79.732 226.877 79.752 226.566 79.768C226.558 79.835 226.554 79.89 226.554 79.932V80.033C226.554 80.226 226.576 80.41 226.623 80.582C226.67 80.754 226.756 80.907 226.881 81.037C227.008 81.168 227.182 81.27 227.405 81.346C227.628 81.422 227.921 81.459 228.283 81.459C228.443 81.459 228.61 81.445 228.782 81.415C228.955 81.386 229.118 81.348 229.275 81.302C229.431 81.256 229.569 81.21 229.692 81.163C229.813 81.117 229.899 81.073 229.95 81.031L230.051 82.028C229.883 82.121 229.612 82.22 229.236 82.325C228.862 82.429 228.423 82.483 227.917 82.483Z" fill="white"/>
<path d="M236.175 78.871C236.663 78.855 237.109 78.823 237.513 78.776C237.916 78.73 238.266 78.65 238.561 78.537C238.855 78.423 239.084 78.27 239.248 78.076C239.414 77.883 239.495 77.63 239.495 77.318C239.495 77.242 239.48 77.162 239.45 77.078C239.422 76.995 239.372 76.917 239.3 76.845C239.227 76.774 239.129 76.714 239.002 76.668C238.875 76.622 238.72 76.599 238.536 76.599C238.241 76.599 237.966 76.662 237.709 76.788C237.452 76.915 237.223 77.081 237.02 77.287C236.818 77.493 236.645 77.734 236.502 78.007C236.359 78.28 236.25 78.568 236.175 78.871ZM237.373 82.483C236.945 82.483 236.575 82.421 236.263 82.3C235.952 82.178 235.691 82.009 235.48 81.794C235.27 81.58 235.114 81.33 235.013 81.043C234.911 80.758 234.861 80.454 234.861 80.134C234.861 79.545 234.95 78.977 235.127 78.429C235.304 77.883 235.555 77.399 235.884 76.977C236.213 76.557 236.613 76.222 237.082 75.973C237.555 75.726 238.089 75.601 238.686 75.601C239.032 75.601 239.33 75.646 239.577 75.734C239.825 75.822 240.027 75.943 240.182 76.094C240.339 76.245 240.455 76.42 240.53 76.618C240.607 76.816 240.645 77.019 240.645 77.23C240.645 77.626 240.573 77.961 240.43 78.234C240.286 78.507 240.097 78.736 239.861 78.922C239.625 79.107 239.35 79.25 239.034 79.351C238.718 79.453 238.389 79.533 238.05 79.591C237.709 79.65 237.364 79.69 237.014 79.712C236.664 79.732 236.334 79.752 236.023 79.768C236.014 79.835 236.011 79.89 236.011 79.932V80.033C236.011 80.226 236.032 80.41 236.08 80.582C236.127 80.754 236.213 80.907 236.338 81.037C236.464 81.168 236.639 81.27 236.861 81.346C237.084 81.422 237.377 81.459 237.739 81.459C237.9 81.459 238.066 81.445 238.239 81.415C238.411 81.386 238.575 81.348 238.732 81.302C238.888 81.256 239.025 81.21 239.148 81.163C239.27 81.117 239.355 81.073 239.407 81.031L239.507 82.028C239.339 82.121 239.068 82.22 238.693 82.325C238.318 82.429 237.88 82.483 237.373 82.483Z" fill="white"/>
<path d="M242.273 82.319H241.099L242.613 76.005C243.001 75.887 243.42 75.793 243.87 75.721C244.32 75.65 244.723 75.614 245.076 75.614C245.454 75.614 245.781 75.667 246.054 75.773C246.328 75.877 246.549 76.02 246.717 76.201C246.886 76.383 247.01 76.602 247.09 76.858C247.169 77.114 247.209 77.395 247.209 77.698C247.209 77.891 247.193 78.096 247.159 78.311C247.125 78.523 247.083 78.741 247.033 78.96L246.225 82.319H245.05L245.795 79.212C245.854 78.977 245.912 78.737 245.966 78.493C246.02 78.248 246.048 78.018 246.048 77.798C246.048 77.462 245.956 77.182 245.77 76.959C245.585 76.736 245.24 76.623 244.735 76.623C244.524 76.623 244.318 76.637 244.116 76.662C243.914 76.687 243.745 76.721 243.611 76.762" fill="white"/>
<path d="M250.809 75.753H253.006L252.779 76.737H250.581L249.571 80.905C249.47 81.335 249.382 81.717 249.306 82.053C249.231 82.391 249.14 82.705 249.034 83.001C248.93 83.295 248.791 83.58 248.618 83.853C248.446 84.126 248.211 84.411 247.918 84.705L246.882 84.553C247.135 84.225 247.332 83.948 247.476 83.721C247.619 83.493 247.739 83.261 247.835 83.026C247.932 82.791 248.016 82.518 248.088 82.212C248.159 81.905 248.254 81.507 248.372 81.018L249.773 75.16C249.874 74.739 250.002 74.364 250.159 74.036C250.314 73.707 250.512 73.432 250.751 73.209C250.992 72.986 251.276 72.814 251.604 72.698C251.932 72.58 252.324 72.521 252.779 72.521C253.073 72.521 253.353 72.55 253.618 72.61C253.883 72.668 254.083 72.73 254.217 72.798L253.751 73.732C253.683 73.7 253.568 73.657 253.404 73.605C253.239 73.555 252.998 73.53 252.677 73.53C252.4 73.53 252.164 73.571 251.97 73.651C251.777 73.73 251.613 73.843 251.478 73.986C251.343 74.128 251.235 74.301 251.156 74.503C251.076 74.705 251.006 74.932 250.948 75.185" fill="white"/>
<path d="M255.316 81.485C255.67 81.485 255.973 81.409 256.225 81.258C256.477 81.106 256.697 80.929 256.882 80.728C256.889 80.585 256.905 80.435 256.925 80.279C256.948 80.124 256.973 79.965 257.007 79.806L257.766 76.674C257.723 76.658 257.654 76.645 257.557 76.636C257.459 76.628 257.373 76.624 257.298 76.624C256.818 76.624 256.386 76.716 255.998 76.901C255.611 77.087 255.28 77.333 255.007 77.64C254.732 77.947 254.523 78.306 254.375 78.714C254.229 79.122 254.154 79.549 254.154 79.995C254.154 80.172 254.17 80.351 254.204 80.531C254.239 80.713 254.3 80.873 254.388 81.011C254.475 81.15 254.595 81.264 254.741 81.352C254.889 81.441 255.08 81.485 255.316 81.485ZM257.197 82.394C257.154 82.302 257.113 82.198 257.072 82.085C257.029 81.971 256.995 81.851 256.97 81.724C256.784 81.893 256.536 82.061 256.225 82.23C255.914 82.398 255.53 82.483 255.077 82.483C254.705 82.483 254.388 82.423 254.123 82.306C253.857 82.188 253.641 82.023 253.473 81.813C253.304 81.603 253.18 81.354 253.1 81.068C253.02 80.782 252.979 80.467 252.979 80.121C252.979 79.557 253.075 79.007 253.264 78.467C253.454 77.929 253.739 77.449 254.116 77.028C254.495 76.607 254.972 76.266 255.543 76.005C256.116 75.744 256.784 75.614 257.55 75.614C257.779 75.614 258.043 75.639 258.347 75.69C258.65 75.74 258.909 75.824 259.129 75.942L258.157 79.907C258.114 80.101 258.079 80.286 258.05 80.463C258.02 80.639 258.005 80.824 258.005 81.017C258.005 81.212 258.023 81.407 258.055 81.605C258.089 81.803 258.148 82.015 258.232 82.242" fill="white"/>
<path d="M260.746 82.319H259.572L261.086 76.005C261.473 75.887 261.893 75.793 262.343 75.721C262.793 75.65 263.196 75.614 263.549 75.614C263.927 75.614 264.254 75.667 264.527 75.773C264.801 75.877 265.022 76.02 265.19 76.201C265.359 76.383 265.483 76.602 265.563 76.858C265.642 77.114 265.682 77.395 265.682 77.698C265.682 77.891 265.666 78.096 265.632 78.311C265.598 78.523 265.556 78.741 265.506 78.96L264.698 82.319H263.523L264.268 79.212C264.327 78.977 264.384 78.737 264.439 78.493C264.493 78.248 264.521 78.018 264.521 77.798C264.521 77.462 264.429 77.182 264.243 76.959C264.058 76.736 263.712 76.623 263.208 76.623C262.997 76.623 262.791 76.637 262.589 76.662C262.387 76.687 262.218 76.721 262.084 76.762" fill="white"/>
<path d="M266.832 79.97C266.832 79.398 266.918 78.846 267.091 78.317C267.264 77.786 267.517 77.319 267.854 76.914C268.191 76.511 268.603 76.189 269.092 75.948C269.58 75.709 270.14 75.589 270.772 75.589C271.049 75.589 271.314 75.608 271.567 75.646C271.82 75.684 272.059 75.757 272.286 75.867L271.844 76.851C271.71 76.776 271.551 76.717 271.371 76.675C271.19 76.633 270.957 76.612 270.67 76.612C270.258 76.612 269.887 76.702 269.559 76.883C269.231 77.064 268.951 77.305 268.72 77.603C268.487 77.902 268.311 78.246 268.189 78.637C268.067 79.03 268.006 79.436 268.006 79.857C268.006 80.076 268.029 80.282 268.075 80.476C268.122 80.669 268.204 80.839 268.322 80.987C268.439 81.134 268.597 81.25 268.796 81.335C268.993 81.419 269.244 81.46 269.547 81.46C269.698 81.46 269.858 81.446 270.027 81.416C270.194 81.387 270.35 81.351 270.493 81.309C270.637 81.267 270.765 81.223 270.878 81.176C270.993 81.13 271.075 81.086 271.125 81.044L271.226 82.042C271.065 82.142 270.818 82.241 270.481 82.337C270.144 82.435 269.762 82.483 269.332 82.483C268.928 82.483 268.57 82.421 268.258 82.3C267.947 82.178 267.686 82.005 267.475 81.783C267.266 81.56 267.105 81.294 266.996 80.987C266.886 80.68 266.832 80.341 266.832 79.97Z" fill="white"/>
<path d="M273.714 78.871C274.202 78.855 274.648 78.823 275.052 78.776C275.455 78.73 275.804 78.65 276.1 78.537C276.395 78.423 276.623 78.27 276.788 78.076C276.952 77.883 277.034 77.63 277.034 77.318C277.034 77.242 277.02 77.162 276.989 77.078C276.961 76.995 276.911 76.917 276.839 76.845C276.766 76.774 276.668 76.714 276.541 76.668C276.414 76.622 276.259 76.599 276.075 76.599C275.779 76.599 275.504 76.662 275.248 76.788C274.991 76.915 274.761 77.081 274.559 77.287C274.357 77.493 274.184 77.734 274.041 78.007C273.898 78.28 273.789 78.568 273.714 78.871ZM274.913 82.483C274.484 82.483 274.114 82.421 273.802 82.3C273.491 82.178 273.229 82.009 273.018 81.794C272.809 81.58 272.654 81.33 272.552 81.043C272.45 80.758 272.4 80.454 272.4 80.134C272.4 79.545 272.489 78.977 272.666 78.429C272.843 77.883 273.095 77.399 273.423 76.977C273.752 76.557 274.152 76.222 274.622 75.973C275.093 75.726 275.627 75.601 276.225 75.601C276.572 75.601 276.868 75.646 277.116 75.734C277.364 75.822 277.566 75.943 277.722 76.094C277.879 76.245 277.993 76.42 278.07 76.618C278.145 76.816 278.184 77.019 278.184 77.23C278.184 77.626 278.111 77.961 277.968 78.234C277.825 78.507 277.636 78.736 277.4 78.922C277.164 79.107 276.889 79.25 276.573 79.351C276.257 79.453 275.929 79.533 275.589 79.591C275.248 79.65 274.902 79.69 274.552 79.712C274.204 79.732 273.873 79.752 273.561 79.768C273.554 79.835 273.55 79.89 273.55 79.932V80.033C273.55 80.226 273.572 80.41 273.618 80.582C273.666 80.754 273.752 80.907 273.877 81.037C274.004 81.168 274.177 81.27 274.4 81.346C274.623 81.422 274.916 81.459 275.279 81.459C275.439 81.459 275.605 81.445 275.777 81.415C275.95 81.386 276.114 81.348 276.27 81.302C276.427 81.256 276.564 81.21 276.688 81.163C276.809 81.117 276.895 81.073 276.945 81.031L277.047 82.028C276.879 82.121 276.607 82.22 276.232 82.325C275.857 82.429 275.418 82.483 274.913 82.483Z" fill="white"/>
</svg>
