<svg width="253" height="60" viewBox="0 0 253 60" fill="none" xmlns="http://www.w3.org/2000/svg">
<path d="M11.666 33.028H16.157C17.413 33.028 18.487 32.834 19.382 32.443C20.275 32.052 21 31.552 21.556 30.941C22.111 30.328 22.522 29.6319 22.787 28.8499C23.053 28.0699 23.186 27.262 23.186 26.432C23.186 25.652 23.078 24.9049 22.861 24.1959C22.642 23.4869 22.317 22.8639 21.882 22.3269C21.447 21.7889 20.879 21.348 20.179 21.007C19.478 20.664 18.621 20.495 17.607 20.495H11.666V33.028ZM11.666 42.811V58.17H0V10.712H19.709C22.703 10.712 25.202 11.136 27.208 11.98C29.211 12.827 30.83 13.961 32.061 15.386C33.294 16.811 34.174 18.428 34.707 20.241C35.237 22.052 35.504 23.925 35.504 25.855C35.504 28.318 35.129 30.578 34.38 32.63C33.631 34.684 32.483 36.47 30.939 37.993C29.393 39.514 27.436 40.698 25.07 41.543C22.703 42.389 19.901 42.811 16.665 42.811" fill="#558CC9"/>
<path d="M52.2329 31.579H56.6519C57.9569 31.579 59.0789 31.385 60.0209 30.996C60.9629 30.607 61.736 30.12 62.34 29.537C62.943 28.954 63.3779 28.297 63.6449 27.568C63.9089 26.838 64.0429 26.134 64.0429 25.453C64.0429 24.529 63.8619 23.751 63.4999 23.119C63.1369 22.489 62.6779 21.977 62.1229 21.589C61.5669 21.199 60.9509 20.92 60.2759 20.749C59.5979 20.579 58.946 20.494 58.319 20.494H52.2329V31.579ZM78.3159 58.17H64.6229L57.1599 41.288C57.0149 41.288 56.9049 41.276 56.8329 41.252C56.7609 41.228 56.6759 41.216 56.5799 41.216H52.2329V58.17H40.567V10.712H60.565C63.464 10.712 65.914 11.123 67.919 11.943C69.923 12.765 71.5419 13.84 72.7739 15.168C74.0049 16.497 74.8989 18.006 75.4549 19.697C76.0089 21.388 76.288 23.102 76.288 24.841C76.288 27.402 75.5989 29.888 74.2219 32.304C72.8459 34.72 70.8279 36.7 68.1729 38.245" fill="#558CC9"/>
<path d="M114.515 37.712C115.645 38.946 115.613 40.8619 114.417 42.0569C113.224 43.2509 111.308 43.2829 110.074 42.1529C110.001 43.8239 108.622 45.1569 106.933 45.1569C105.245 45.1569 103.867 43.8239 103.794 42.1529C102.56 43.2829 100.644 43.2509 99.4489 42.0569C98.2549 40.8619 98.2219 38.946 99.3529 37.712C97.6809 37.639 96.3489 36.2609 96.3489 34.5719C96.3489 32.8829 97.6809 31.5049 99.3529 31.4319C98.2219 30.1979 98.2549 28.282 99.4489 27.087C100.644 25.893 102.56 25.861 103.794 26.991C103.867 25.32 105.245 23.987 106.933 23.987C108.622 23.987 110.001 25.32 110.074 26.991C111.308 25.861 113.224 25.893 114.419 27.087C115.613 28.282 115.645 30.1979 114.515 31.4319C116.186 31.5049 117.519 32.8819 117.519 34.5719C117.519 36.2609 116.186 37.639 114.515 37.712ZM128.815 23.9939C127.824 21.0719 126.352 18.571 124.396 16.495C122.439 14.418 120.035 12.8119 117.186 11.6759C114.336 10.5409 111.074 9.97392 107.404 9.97392C103.492 9.97392 100.038 10.6019 97.044 11.8569C94.049 13.1129 91.5609 14.864 89.5809 17.11C87.5989 19.356 86.103 22.0369 85.088 25.1529C84.074 28.2679 83.567 31.6859 83.567 35.4049C83.567 39.1259 84.0849 42.4449 85.1239 45.3669C86.1619 48.2909 87.661 50.7779 89.617 52.8299C91.572 54.8849 93.9639 56.4539 96.7889 57.5399C99.6149 58.6269 102.815 59.17 106.39 59.17C110.061 59.17 113.37 58.603 116.317 57.468C119.263 56.333 121.774 54.6789 123.852 52.5049C125.928 50.3319 127.522 47.6629 128.633 44.4979C129.745 41.3349 130.301 37.723 130.301 33.666C130.301 30.141 129.804 26.9169 128.815 23.9939Z" fill="#558CC9"/>
<path d="M156.826 46.752L153.217 51.674C153.217 54.232 153.283 55.808 153.283 55.808C142.85 55.546 135.567 55.808 135.567 55.808C136.026 21.359 135.763 11.778 135.763 11.778C147.706 12.107 153.414 11.91 153.414 11.91C153.283 21.227 153.283 28.576 153.217 34.548C156.367 26.739 158.27 21.03 158.27 21.03C172.378 21.621 178.938 21.555 178.938 21.555C174.543 27.723 171.524 32.251 169.49 35.269C176.052 49.114 179.988 57.186 179.988 57.186C165.619 57.645 161.287 58.17 161.287 58.17C159.384 53.183 157.942 49.443 156.826 46.752Z" fill="#82C4C1"/>
<path d="M186.068 24.879C186.068 24.879 192.958 24.879 203.719 24.748C203.719 24.748 203.785 48.435 203.982 57.227C203.982 57.227 196.238 57.162 186.265 57.293C186.265 57.293 186.331 48.96 186.068 24.879Z" fill="#82C4C1"/>
<path d="M236.856 40.561C236.856 36.623 234.888 33.082 231.41 33.082C227.474 33.082 225.701 36.559 225.701 40.429C225.701 45.876 228.261 48.107 231.148 48.107C234.298 48.107 236.856 45.941 236.856 40.561ZM238.169 58.868C238.169 58.868 238.431 56.243 238.629 52.438C236.003 56.572 230.295 58.475 225.637 58.475C215.137 58.475 207.591 51.584 207.591 40.758C207.591 30.259 213.694 22.713 224.127 22.713C229.311 22.713 233.116 24.8789 235.478 27.5029L235.15 11.886C235.15 11.886 238.497 11.952 252.999 11.821C252.999 11.821 252.867 33.672 252.999 59C252.999 59 241.646 58.737 238.169 58.868Z" fill="#82C4C1"/>
<path d="M205.737 10.585C205.737 8.89596 204.405 7.51797 202.733 7.44497C203.863 6.21097 203.831 4.295 202.637 3.1C201.443 1.906 199.526 1.87395 198.293 3.00395C198.219 1.33295 196.841 -3.36721e-06 195.152 -3.36721e-06C193.463 -3.36721e-06 192.085 1.33295 192.012 3.00395C190.778 1.87395 188.862 1.906 187.667 3.1C186.473 4.295 186.441 6.21097 187.571 7.44497C185.9 7.51797 184.567 8.89596 184.567 10.585C184.567 12.274 185.9 13.652 187.571 13.725C186.441 14.959 186.473 16.875 187.667 18.07C188.862 19.264 190.778 19.296 192.012 18.166C192.085 19.837 193.463 21.17 195.152 21.17C196.842 21.17 198.219 19.837 198.293 18.166C199.526 19.296 201.443 19.264 202.637 18.07C203.831 16.875 203.863 14.959 202.733 13.725C204.405 13.652 205.737 12.274 205.737 10.585Z" fill="#558CC9"/>
</svg>
