<svg width="103" height="103" viewBox="0 0 103 103" fill="none" xmlns="http://www.w3.org/2000/svg">
<path d="M102.265 51.6293C101.845 47.6353 100.056 44.0613 97.3181 41.1693C98.5381 35.5183 97.5671 29.8203 94.1091 25.3943C91.6361 22.2303 88.2251 20.1463 84.3701 19.1453C82.4101 13.7063 78.5681 9.38829 73.2881 7.46729C69.5161 6.09429 65.5181 6.13628 61.7181 7.32828C57.1751 3.75628 51.6271 2.12927 46.1331 3.29827C42.2061 4.13327 38.8381 6.28628 36.2471 9.31028C30.5011 8.68828 24.9361 10.2503 20.8951 14.1523C18.0061 16.9423 16.2911 20.5523 15.6971 24.4903C10.4931 27.0073 6.6011 31.2803 5.2431 36.7313C4.2701 40.6283 4.72912 44.5973 6.31312 48.2513C3.23512 53.1443 2.19712 58.8313 3.93412 64.1743C5.17512 67.9933 7.6681 71.1183 10.9471 73.3763C10.9291 79.1573 13.0631 84.5293 17.3681 88.1393C21.3401 91.4743 26.4741 92.7233 31.7171 92.0913C35.4411 98.3353 41.4931 102.401 48.3311 102.401C52.3451 102.401 56.0881 100.995 59.2501 98.5753C64.7431 100.379 70.5111 100.009 75.2751 97.0323C78.6791 94.9043 81.1091 91.7293 82.5081 88.0003C88.1201 86.6193 92.8171 83.2493 95.2791 78.2013C97.0401 74.5913 97.4171 70.6103 96.6271 66.7083C100.656 62.5623 102.852 57.2163 102.265 51.6293Z" fill="#12446C"/>
<path d="M99.1701 48.7053C98.7501 44.7113 96.9611 41.1372 94.2241 38.2452C95.4431 32.5942 94.4721 26.8962 91.0141 22.4702C88.5421 19.3062 85.1301 17.2222 81.2761 16.2212C79.3161 10.7822 75.4731 6.46427 70.1941 4.54327C66.4211 3.17027 62.4231 3.21226 58.6241 4.40426C54.0801 0.832257 48.5331 -0.794747 43.0381 0.375253C39.1111 1.20925 35.7431 3.36226 33.1531 6.38626C27.4061 5.76426 21.8411 7.32726 17.8001 11.2283C14.9121 14.0183 13.1961 17.6283 12.6021 21.5663C7.39906 24.0843 3.50605 28.3563 2.14805 33.8073C1.17605 37.7043 1.63507 41.6733 3.21807 45.3273C0.140072 50.2203 -0.896932 55.9073 0.839068 61.2503C2.08007 65.0693 4.57408 68.1943 7.85308 70.4523C7.83508 76.2343 9.96905 81.6053 14.2731 85.2153C18.2461 88.5503 23.3791 89.8003 28.6221 89.1683C32.3461 95.4113 38.3981 99.4773 45.2361 99.4773C49.2511 99.4773 52.9941 98.0713 56.1551 95.6523C61.6481 97.4553 67.4161 97.0863 72.1801 94.1093C75.5851 91.9803 78.0141 88.8053 79.4131 85.0773C85.0271 83.6953 89.7221 80.3253 92.1851 75.2773C93.9451 71.6683 94.3221 67.6863 93.5331 63.7843C97.5611 59.6383 99.7571 54.2933 99.1701 48.7053Z" fill="#82C4C1"/>
<path d="M27.6091 33.5543H29.443C29.955 33.5543 30.3941 33.4753 30.7591 33.3163C31.1241 33.1553 31.42 32.9523 31.647 32.7023C31.873 32.4523 32.041 32.1682 32.149 31.8482C32.258 31.5292 32.312 31.2003 32.312 30.8613C32.312 30.5433 32.268 30.2372 32.179 29.9482C32.09 29.6592 31.9571 29.4043 31.7801 29.1863C31.6021 28.9663 31.371 28.7862 31.085 28.6462C30.798 28.5062 30.449 28.4373 30.035 28.4373H27.6091V33.5543ZM27.6091 37.5482V43.8193H22.8461V24.4433H30.893C32.115 24.4433 33.135 24.6163 33.954 24.9613C34.772 25.3063 35.4331 25.7693 35.9361 26.3523C36.4391 26.9343 36.798 27.5933 37.016 28.3343C37.232 29.0733 37.341 29.8373 37.341 30.6273C37.341 31.6313 37.188 32.5543 36.883 33.3913C36.576 34.2303 36.1081 34.9593 35.4781 35.5813C34.8461 36.2023 34.047 36.6863 33.081 37.0303C32.115 37.3753 30.971 37.5482 29.65 37.5482" fill="white"/>
<path d="M44.8851 32.9633H46.6891C47.2221 32.9633 47.6801 32.8842 48.0651 32.7252C48.4491 32.5662 48.7651 32.3683 49.0111 32.1293C49.2581 31.8913 49.4351 31.6232 49.5431 31.3262C49.6521 31.0282 49.7071 30.7403 49.7071 30.4623C49.7071 30.0853 49.6331 29.7673 49.4851 29.5093C49.3361 29.2523 49.149 29.0433 48.923 28.8843C48.695 28.7253 48.4431 28.6113 48.1681 28.5423C47.8921 28.4723 47.6261 28.4373 47.3701 28.4373H44.8851V32.9633ZM55.5341 43.8193H49.9431L46.8971 36.9273C46.8361 36.9273 46.7931 36.9223 46.7631 36.9123C46.7341 36.9023 46.6991 36.8972 46.6601 36.8972H44.8851V43.8193H40.1221V24.4443H48.2861C49.4701 24.4443 50.4701 24.6112 51.2891 24.9462C52.1081 25.2822 52.7681 25.7213 53.2701 26.2633C53.7741 26.8053 54.1391 27.4223 54.3661 28.1123C54.5921 28.8023 54.7061 29.5023 54.7061 30.2123C54.7061 31.2583 54.4251 32.2733 53.8631 33.2593C53.3011 34.2453 52.4771 35.0543 51.3931 35.6853" fill="white"/>
<path d="M69.973 35.4133C70.434 35.9183 70.4211 36.7003 69.9341 37.1873C69.4461 37.6753 68.664 37.6873 68.16 37.2273C68.13 37.9093 67.5681 38.4533 66.8781 38.4533C66.1881 38.4533 65.6261 37.9093 65.5961 37.2273C65.0921 37.6873 64.3101 37.6753 63.8221 37.1873C63.3341 36.7003 63.321 35.9183 63.783 35.4133C63.1 35.3843 62.556 34.8213 62.556 34.1313C62.556 33.4413 63.1 32.8793 63.783 32.8503C63.321 32.3453 63.3341 31.5633 63.8221 31.0753C64.3101 30.5883 65.0921 30.5753 65.5961 31.0363C65.6261 30.3543 66.1881 29.8093 66.8781 29.8093C67.5681 29.8093 68.13 30.3543 68.16 31.0363C68.664 30.5753 69.4461 30.5883 69.9341 31.0753C70.4211 31.5633 70.434 32.3453 69.973 32.8503C70.655 32.8793 71.1991 33.4413 71.1991 34.1313C71.1991 34.8213 70.655 35.3843 69.973 35.4133ZM75.8111 29.8123C75.4071 28.6193 74.8061 27.6003 74.0071 26.7523C73.2081 25.9033 72.2271 25.2473 71.0641 24.7843C69.9001 24.3203 68.5691 24.0883 67.0701 24.0883C65.4721 24.0883 64.0631 24.3453 62.8401 24.8573C61.6171 25.3703 60.6021 26.0863 59.7931 27.0023C58.9841 27.9193 58.3731 29.0143 57.9591 30.2863C57.5451 31.5573 57.3381 32.9533 57.3381 34.4713C57.3381 35.9903 57.5501 37.3453 57.9741 38.5383C58.3971 39.7323 59.009 40.7483 59.808 41.5863C60.607 42.4253 61.5831 43.0653 62.7361 43.5093C63.8901 43.9523 65.196 44.1753 66.656 44.1753C68.154 44.1753 69.5061 43.9433 70.7091 43.4793C71.9111 43.0163 72.937 42.3403 73.785 41.4533C74.632 40.5653 75.284 39.4773 75.737 38.1843C76.191 36.8933 76.4181 35.4183 76.4181 33.7613C76.4181 32.3223 76.2151 31.0063 75.8111 29.8123Z" fill="white"/>
<path d="M32.9361 69.9183L31.2361 72.2363C31.2361 73.4413 31.2671 74.1833 31.2671 74.1833C26.3531 74.0603 22.923 74.1833 22.923 74.1833C23.14 57.9583 23.0161 53.4463 23.0161 53.4463C28.6411 53.6013 31.329 53.5083 31.329 53.5083C31.267 57.8963 31.2671 61.3583 31.2361 64.1703C32.7201 60.4923 33.6161 57.8033 33.6161 57.8033C40.2611 58.0823 43.35 58.0513 43.35 58.0513C41.28 60.9563 39.8581 63.0883 38.9011 64.5103C41.9911 71.0313 43.8451 74.8323 43.8451 74.8323C37.0771 75.0483 35.037 75.2963 35.037 75.2963C34.141 72.9473 33.4621 71.1863 32.9361 69.9183Z" fill="#12446C"/>
<path d="M44.8961 59.3183C44.8961 59.3183 48.1411 59.3183 53.2091 59.2563C53.2091 59.2563 53.2401 70.4123 53.3331 74.5533C53.3331 74.5533 49.6861 74.5223 44.9891 74.5843C44.9891 74.5843 45.0201 70.6603 44.8961 59.3183Z" fill="#12446C"/>
<path d="M68.8151 66.7043C68.8151 64.8503 67.8881 63.1813 66.2511 63.1813C64.3971 63.1813 63.5611 64.8193 63.5611 66.6423C63.5611 69.2073 64.7671 70.2583 66.1271 70.2583C67.6101 70.2583 68.8151 69.2383 68.8151 66.7043ZM69.4351 75.3263C69.4351 75.3263 69.5581 74.0903 69.6511 72.2983C68.4131 74.2453 65.7261 75.1413 63.5311 75.1413C58.5861 75.1413 55.0331 71.8963 55.0331 66.7973C55.0331 61.8523 57.9061 58.2983 62.8201 58.2983C65.2611 58.2983 67.0531 59.3183 68.1671 60.5543L68.0131 53.1993C68.0131 53.1993 69.5881 53.2303 76.4181 53.1683C76.4181 53.1683 76.3561 63.4593 76.4181 75.3883C76.4181 75.3883 71.0721 75.2643 69.4351 75.3263Z" fill="#12446C"/>
<path d="M54.099 52.8183C54.099 52.0223 53.472 51.3743 52.685 51.3393C53.217 50.7583 53.2011 49.8553 52.6401 49.2933C52.0761 48.7303 51.174 48.7153 50.593 49.2473C50.558 48.4603 49.9101 47.8333 49.1151 47.8333C48.3181 47.8333 47.67 48.4603 47.635 49.2473C47.054 48.7153 46.1511 48.7303 45.5901 49.2933C45.0261 49.8553 45.011 50.7583 45.543 51.3393C44.756 51.3743 44.129 52.0223 44.129 52.8183C44.129 53.6143 44.756 54.2623 45.543 54.2973C45.011 54.8783 45.0261 55.7803 45.5901 56.3433C46.1511 56.9063 47.054 56.9213 47.635 56.3893C47.67 57.1763 48.3181 57.8033 49.1151 57.8033C49.9101 57.8033 50.558 57.1763 50.593 56.3893C51.174 56.9213 52.0761 56.9063 52.6401 56.3433C53.2011 55.7803 53.217 54.8783 52.685 54.2973C53.472 54.2623 54.099 53.6143 54.099 52.8183Z" fill="white"/>
</svg>
