<svg width="192" height="45" viewBox="0 0 192 45" fill="none" xmlns="http://www.w3.org/2000/svg">
<path d="M8.81899 24.902H12.214C13.164 24.902 13.976 24.755 14.652 24.459C15.327 24.163 15.875 23.784 16.295 23.324C16.715 22.861 17.025 22.334 17.226 21.743C17.427 21.152 17.527 20.543 17.527 19.915C17.527 19.325 17.446 18.761 17.282 18.225C17.116 17.689 16.871 17.218 16.542 16.811C16.213 16.406 15.784 16.073 15.255 15.814C14.724 15.555 14.077 15.427 13.31 15.427H8.81899V24.902ZM8.81899 32.297V43.909H0V8.03201H14.899C17.162 8.03201 19.051 8.352 20.568 8.99C22.082 9.63 23.306 10.488 24.237 11.565C25.169 12.643 25.834 13.865 26.237 15.234C26.638 16.605 26.839 18.02 26.839 19.48C26.839 21.341 26.556 23.05 25.99 24.6C25.423 26.154 24.556 27.504 23.389 28.655C22.22 29.804 20.741 30.699 18.952 31.339C17.162 31.977 15.044 32.297 12.598 32.297" fill="#949494"/>
<path d="M40.807 23.806H44.148C45.134 23.806 45.982 23.661 46.695 23.365C47.407 23.072 47.991 22.704 48.448 22.263C48.904 21.822 49.232 21.325 49.434 20.774C49.634 20.222 49.735 19.69 49.735 19.175C49.735 18.477 49.598 17.888 49.324 17.411C49.05 16.934 48.703 16.547 48.283 16.254C47.863 15.959 47.397 15.749 46.887 15.62C46.375 15.491 45.882 15.427 45.408 15.427H40.807V23.806ZM60.525 43.909H50.173L44.532 31.145C44.422 31.145 44.339 31.138 44.285 31.118C44.23 31.1 44.166 31.091 44.093 31.091H40.807V43.909H31.988V8.03101H47.106C49.297 8.03101 51.149 8.343 52.665 8.963C54.18 9.584 55.404 10.397 56.335 11.4C57.266 12.404 57.941 13.545 58.362 14.824C58.78 16.102 58.992 17.399 58.992 18.713C58.992 20.649 58.471 22.529 57.43 24.354C56.389 26.181 54.864 27.677 52.857 28.845" fill="#949494"/>
<path d="M87.261 28.344C88.115 29.277 88.091 30.725 87.188 31.628C86.285 32.531 84.836 32.555 83.904 31.701C83.848 32.965 82.807 33.972 81.53 33.972C80.253 33.972 79.211 32.965 79.156 31.701C78.224 32.555 76.775 32.531 75.872 31.628C74.969 30.725 74.945 29.277 75.799 28.344C74.535 28.289 73.528 27.247 73.528 25.97C73.528 24.693 74.535 23.652 75.799 23.596C74.945 22.664 74.969 21.215 75.872 20.312C76.775 19.409 78.224 19.385 79.156 20.239C79.211 18.976 80.253 17.968 81.53 17.968C82.807 17.968 83.848 18.976 83.904 20.239C84.836 19.385 86.285 19.409 87.188 20.312C88.091 21.215 88.115 22.664 87.261 23.596C88.524 23.652 89.532 24.693 89.532 25.97C89.532 27.247 88.524 28.289 87.261 28.344ZM98.071 17.974C97.322 15.765 96.209 13.875 94.73 12.305C93.252 10.735 91.434 9.52001 89.28 8.66201C87.126 7.80401 84.66 7.37502 81.886 7.37502C78.928 7.37502 76.317 7.85002 74.054 8.79902C71.789 9.74802 69.909 11.072 68.412 12.77C66.914 14.468 65.782 16.495 65.016 18.85C64.249 21.205 63.865 23.789 63.865 26.6C63.865 29.413 64.258 31.922 65.043 34.131C65.827 36.341 66.96 38.222 68.439 39.773C69.918 41.326 71.725 42.512 73.861 43.332C75.998 44.155 78.416 44.565 81.119 44.565C83.894 44.565 86.396 44.136 88.623 43.279C90.85 42.421 92.749 41.17 94.319 39.527C95.888 37.884 97.094 35.866 97.934 33.474C98.774 31.082 99.194 28.352 99.194 25.286C99.194 22.621 98.819 20.184 98.071 17.974Z" fill="#949494"/>
<path d="M121.464 35.449L118.736 39.169C118.736 41.103 118.786 42.294 118.786 42.294C110.898 42.097 105.393 42.294 105.393 42.294C105.74 16.252 105.541 9.00898 105.541 9.00898C114.569 9.25798 118.884 9.10898 118.884 9.10898C118.786 16.152 118.786 21.708 118.736 26.222C121.117 20.319 122.555 16.003 122.555 16.003C133.22 16.45 138.18 16.4 138.18 16.4C134.857 21.063 132.575 24.486 131.038 26.768C135.998 37.234 138.974 43.335 138.974 43.335C128.111 43.683 124.837 44.079 124.837 44.079C123.398 40.31 122.308 37.482 121.464 35.449Z" fill="#CCCCCC"/>
<path d="M140.66 18.435C140.66 18.435 145.868 18.435 154.003 18.336C154.003 18.336 154.053 36.242 154.202 42.889C154.202 42.889 148.348 42.839 140.809 42.939C140.809 42.939 140.859 36.639 140.66 18.435Z" fill="#CCCCCC"/>
<path d="M179.053 30.29C179.053 27.313 177.566 24.635 174.936 24.635C171.961 24.635 170.621 27.265 170.621 30.191C170.621 34.308 172.556 35.995 174.738 35.995C177.119 35.995 179.053 34.357 179.053 30.29ZM180.046 44.13C180.046 44.13 180.244 42.145 180.393 39.269C178.408 42.394 174.094 43.832 170.572 43.832C162.635 43.832 156.93 38.623 156.93 30.439C156.93 22.502 161.543 16.798 169.431 16.798C173.349 16.798 176.226 18.435 178.011 20.419L177.764 8.613C177.764 8.613 180.294 8.662 191.256 8.564C191.256 8.564 191.157 25.082 191.256 44.228C191.256 44.228 182.674 44.03 180.046 44.13Z" fill="#CCCCCC"/>
<path d="M155.433 8.002C155.433 6.725 154.426 5.68401 153.162 5.62801C154.017 4.69601 153.992 3.247 153.089 2.344C152.187 1.441 150.738 1.417 149.805 2.271C149.75 1.008 148.708 2.47979e-06 147.431 2.47979e-06C146.154 2.47979e-06 145.113 1.008 145.057 2.271C144.125 1.417 142.676 1.441 141.773 2.344C140.87 3.247 140.846 4.69501 141.7 5.62801C140.437 5.68401 139.43 6.725 139.43 8.002C139.43 9.279 140.437 10.32 141.7 10.376C140.846 11.308 140.87 12.757 141.773 13.66C142.676 14.563 144.125 14.587 145.057 13.733C145.113 14.996 146.154 16.004 147.431 16.004C148.708 16.004 149.75 14.996 149.805 13.733C150.738 14.587 152.187 14.563 153.089 13.66C153.992 12.757 154.017 11.308 153.162 10.376C154.426 10.32 155.433 9.279 155.433 8.002Z" fill="#949494"/>
</svg>
