<svg width="103" height="103" viewBox="0 0 103 103" fill="none" xmlns="http://www.w3.org/2000/svg">
<path d="M102.265 51.6297C101.844 47.6357 100.056 44.0617 97.3181 41.1697C98.5371 35.5187 97.5671 29.8207 94.1081 25.3947C91.6361 22.2307 88.2241 20.1467 84.3701 19.1457C82.4101 13.7067 78.567 9.38871 73.288 7.46772C69.515 6.09472 65.5171 6.13673 61.7181 7.32873C57.1741 3.75673 51.6271 2.12972 46.1331 3.29872C42.2061 4.13372 38.8371 6.28673 36.2471 9.31073C30.5001 8.68873 24.935 10.2507 20.894 14.1527C18.006 16.9427 16.2901 20.5527 15.6961 24.4907C10.4931 27.0077 6.60005 31.2807 5.24205 36.7317C4.27005 40.6287 4.72907 44.5977 6.31207 48.2517C3.23407 53.1447 2.19706 58.8317 3.93306 64.1747C5.17406 67.9937 7.66808 71.1187 10.9471 73.3767C10.9291 79.1577 13.063 84.5297 17.367 88.1397C21.34 91.4747 26.474 92.7237 31.717 92.0917C35.44 98.3357 41.4921 102.402 48.3311 102.402C52.3451 102.402 56.0881 100.996 59.2491 98.5757C64.7421 100.38 70.5101 100.01 75.2741 97.0327C78.6791 94.9047 81.1081 91.7297 82.5081 88.0007C88.1211 86.6197 92.8171 83.2497 95.2791 78.2017C97.0401 74.5917 97.4171 70.6107 96.6271 66.7087C100.656 62.5627 102.851 57.2167 102.265 51.6297Z" fill="#C5DEE5"/>
<path d="M99.1701 48.7057C98.7501 44.7117 96.9611 41.1377 94.2241 38.2457C95.4431 32.5947 94.4721 26.8967 91.0141 22.4707C88.5421 19.3067 85.1301 17.2227 81.2761 16.2217C79.3151 10.7827 75.4731 6.46473 70.1941 4.54373C66.4211 3.17073 62.4231 3.21275 58.6241 4.40475C54.0801 0.832745 48.533 -0.794259 43.038 0.37474C39.111 1.20974 35.7431 3.36275 33.1531 6.38675C27.4061 5.76475 21.8411 7.32674 17.8001 11.2287C14.9111 14.0187 13.1961 17.6287 12.6021 21.5667C7.39906 24.0837 3.50605 28.3567 2.14805 33.8077C1.17605 37.7047 1.63507 41.6737 3.21807 45.3277C0.140072 50.2207 -0.896932 55.9077 0.839068 61.2507C2.08007 65.0697 4.57408 68.1947 7.85308 70.4527C7.83508 76.2337 9.96905 81.6057 14.2731 85.2157C18.2461 88.5507 23.3791 89.7997 28.6221 89.1677C32.3461 95.4117 38.398 99.4777 45.236 99.4777C49.251 99.4777 52.994 98.0717 56.155 95.6517C61.648 97.4557 67.416 97.0857 72.18 94.1087C75.585 91.9807 78.014 88.8057 79.413 85.0767C85.026 83.6957 89.7221 80.3257 92.1851 75.2777C93.9451 71.6677 94.3221 67.6867 93.5331 63.7847C97.5611 59.6387 99.7571 54.2927 99.1701 48.7057Z" fill="#12446C"/>
<path d="M27.609 33.5547H29.4431C29.9551 33.5547 30.394 33.4747 30.759 33.3157C31.124 33.1557 31.4201 32.9517 31.6471 32.7027C31.8731 32.4527 32.0411 32.1677 32.1491 31.8487C32.2581 31.5297 32.3121 31.2007 32.3121 30.8617C32.3121 30.5427 32.268 30.2377 32.179 29.9487C32.09 29.6597 31.957 29.4047 31.78 29.1857C31.602 28.9657 31.3711 28.7857 31.0851 28.6467C30.7981 28.5067 30.4491 28.4377 30.0351 28.4377H27.609V33.5547ZM27.609 37.5487V43.8197H22.846V24.4437H30.8931C32.1151 24.4437 33.135 24.6167 33.954 24.9617C34.772 25.3067 35.433 25.7697 35.936 26.3517C36.439 26.9337 36.7981 27.5937 37.0161 28.3337C37.2321 29.0737 37.3411 29.8377 37.3411 30.6267C37.3411 31.6317 37.1881 32.5547 36.8831 33.3917C36.5761 34.2307 36.1081 34.9597 35.4781 35.5817C34.8461 36.2027 34.047 36.6857 33.082 37.0307C32.115 37.3757 30.971 37.5487 29.65 37.5487" fill="white"/>
<path d="M44.8841 32.9637H46.6881C47.2221 32.9637 47.6791 32.8847 48.0651 32.7257C48.4491 32.5657 48.7651 32.3677 49.0111 32.1297C49.2581 31.8907 49.4341 31.6227 49.5431 31.3257C49.6521 31.0277 49.7061 30.7407 49.7061 30.4617C49.7061 30.0857 49.6331 29.7677 49.4841 29.5097C49.3361 29.2527 49.1491 29.0437 48.9221 28.8847C48.6951 28.7257 48.4431 28.6117 48.1681 28.5427C47.8921 28.4727 47.6251 28.4367 47.3701 28.4367H44.8841V32.9637ZM55.5341 43.8197H49.9431L46.8971 36.9277C46.8361 36.9277 46.7931 36.9227 46.7631 36.9117C46.7341 36.9027 46.6991 36.8977 46.6591 36.8977H44.8841V43.8197H40.1221V24.4447H48.2861C49.4701 24.4447 50.4701 24.6117 51.2881 24.9457C52.1081 25.2817 52.7681 25.7207 53.2701 26.2637C53.7741 26.8047 54.1381 27.4227 54.3651 28.1117C54.5921 28.8027 54.7061 29.5027 54.7061 30.2117C54.7061 31.2587 54.4241 32.2727 53.8631 33.2597C53.2991 34.2457 52.4771 35.0547 51.3931 35.6857" fill="white"/>
<path d="M69.9731 35.4137C70.4341 35.9177 70.421 36.6997 69.934 37.1877C69.446 37.6747 68.6641 37.6877 68.1601 37.2267C68.1301 37.9087 67.5681 38.4527 66.8781 38.4527C66.1881 38.4527 65.6261 37.9087 65.5961 37.2267C65.0921 37.6877 64.3101 37.6747 63.8221 37.1877C63.3341 36.6997 63.3211 35.9177 63.7831 35.4137C63.1001 35.3837 62.5561 34.8217 62.5561 34.1317C62.5561 33.4417 63.1001 32.8797 63.7831 32.8497C63.3211 32.3457 63.3341 31.5637 63.8221 31.0757C64.3101 30.5887 65.0921 30.5747 65.5961 31.0367C65.6261 30.3547 66.1881 29.8097 66.8781 29.8097C67.5671 29.8097 68.1301 30.3547 68.1601 31.0367C68.6641 30.5747 69.446 30.5887 69.934 31.0757C70.421 31.5637 70.4341 32.3457 69.9731 32.8497C70.6551 32.8797 71.1991 33.4417 71.1991 34.1317C71.1991 34.8217 70.6551 35.3837 69.9731 35.4137ZM75.811 29.8127C75.407 28.6197 74.806 27.5997 74.007 26.7517C73.208 25.9037 72.2271 25.2477 71.0641 24.7837C69.9001 24.3207 68.5691 24.0887 67.0701 24.0887C65.4721 24.0887 64.062 24.3457 62.84 24.8577C61.617 25.3707 60.6011 26.0857 59.7931 27.0027C58.9841 27.9197 58.373 29.0147 57.959 30.2867C57.545 31.5577 57.338 32.9537 57.338 34.4717C57.338 35.9907 57.5501 37.3457 57.9741 38.5387C58.3971 39.7327 59.0091 40.7487 59.8081 41.5857C60.6071 42.4247 61.583 43.0657 62.736 43.5087C63.89 43.9527 65.1961 44.1747 66.6561 44.1747C68.1541 44.1747 69.506 43.9427 70.709 43.4797C71.911 43.0167 72.9371 42.3407 73.7851 41.4537C74.6321 40.5657 75.2841 39.4767 75.7371 38.1847C76.1911 36.8927 76.4181 35.4187 76.4181 33.7617C76.4181 32.3227 76.215 31.0067 75.811 29.8127Z" fill="white"/>
<path d="M32.9361 69.9187L31.2361 72.2368C31.2361 73.4418 31.2671 74.1837 31.2671 74.1837C26.3531 74.0607 22.9231 74.1837 22.9231 74.1837C23.1401 57.9587 23.0161 53.4467 23.0161 53.4467C28.6411 53.6017 31.3291 53.5087 31.3291 53.5087C31.2671 57.8967 31.2671 61.3587 31.2361 64.1707C32.7201 60.4927 33.6161 57.8037 33.6161 57.8037C40.2601 58.0827 43.3501 58.0517 43.3501 58.0517C41.2801 60.9567 39.8581 63.0888 38.9011 64.5108C41.9911 71.0318 43.8451 74.8327 43.8451 74.8327C37.0771 75.0487 35.0371 75.2967 35.0371 75.2967C34.1411 72.9477 33.4621 71.1867 32.9361 69.9187Z" fill="#82C4C1"/>
<path d="M44.8951 59.3187C44.8951 59.3187 48.1411 59.3187 53.2091 59.2567C53.2091 59.2567 53.2401 70.4127 53.3331 74.5537C53.3331 74.5537 49.6861 74.5227 44.9881 74.5847C44.9881 74.5847 45.0201 70.6607 44.8951 59.3187Z" fill="#82C4C1"/>
<path d="M68.815 66.7047C68.815 64.8497 67.888 63.1817 66.25 63.1817C64.396 63.1817 63.561 64.8197 63.561 66.6427C63.561 69.2077 64.767 70.2587 66.127 70.2587C67.61 70.2587 68.815 69.2387 68.815 66.7047ZM69.434 75.3267C69.434 75.3267 69.557 74.0907 69.65 72.2987C68.413 74.2457 65.725 75.1417 63.531 75.1417C58.586 75.1417 55.032 71.8967 55.032 66.7977C55.032 61.8527 57.9061 58.2987 62.8201 58.2987C65.2621 58.2987 67.053 59.3187 68.166 60.5547L68.012 53.1997C68.012 53.1997 69.588 53.2307 76.418 53.1687C76.418 53.1687 76.356 63.4597 76.418 75.3887C76.418 75.3887 71.071 75.2647 69.434 75.3267Z" fill="#82C4C1"/>
<path d="M54.0991 52.8187C54.0991 52.0227 53.471 51.3747 52.684 51.3397C53.217 50.7587 53.2021 49.8557 52.6391 49.2937C52.0761 48.7307 51.1741 48.7157 50.5931 49.2477C50.5581 48.4607 49.9091 47.8337 49.1141 47.8337C48.3181 47.8337 47.6691 48.4607 47.6351 49.2477C47.0541 48.7157 46.1511 48.7307 45.5891 49.2937C45.0261 49.8557 45.0111 50.7587 45.5431 51.3397C44.7561 51.3747 44.1291 52.0227 44.1291 52.8187C44.1291 53.6147 44.7561 54.2627 45.5431 54.2977C45.0111 54.8787 45.0261 55.7807 45.5891 56.3437C46.1511 56.9067 47.0541 56.9217 47.6351 56.3897C47.6691 57.1767 48.3181 57.8037 49.1141 57.8037C49.9101 57.8037 50.5581 57.1767 50.5931 56.3897C51.1741 56.9217 52.0761 56.9067 52.6391 56.3437C53.2011 55.7807 53.217 54.8787 52.684 54.2977C53.471 54.2627 54.0991 53.6147 54.0991 52.8187Z" fill="white"/>
</svg>
