<svg width="332" height="100" viewBox="0 0 332 100" fill="none" xmlns="http://www.w3.org/2000/svg">
<path d="M312.643 99.8117H19.177C8.5859 99.8117 0 91.2254 0 80.6343V19.177C0 8.58601 8.5859 1.81563e-05 19.177 1.81563e-05H312.643C323.234 1.81563e-05 331.82 8.58601 331.82 19.177V80.6343C331.82 91.2254 323.234 99.8117 312.643 99.8117Z" fill="#558CC9"/>
<path d="M51.6716 40.613H55.8866C57.0656 40.613 58.0736 40.43 58.9136 40.063C59.7516 39.696 60.4326 39.227 60.9536 38.653C61.4746 38.079 61.8606 37.425 62.1096 36.691C62.3596 35.958 62.4836 35.201 62.4836 34.422C62.4836 33.689 62.3826 32.988 62.1786 32.323C61.9736 31.658 61.6686 31.073 61.2606 30.569C60.8516 30.064 60.3186 29.65 59.6616 29.33C59.0036 29.008 58.1996 28.849 57.2476 28.849H51.6716V40.613ZM51.6716 49.794V64.2113H40.7216V19.668H59.2206C62.0306 19.668 64.3756 20.065 66.2586 20.857C68.1396 21.652 69.6586 22.717 70.8146 24.054C71.9716 25.392 72.7976 26.91 73.2976 28.61C73.7946 30.311 74.0456 32.068 74.0456 33.881C74.0456 36.193 73.6936 38.3129 72.9906 40.2389C72.2876 42.1669 71.2106 43.844 69.7616 45.272C68.3096 46.7 66.4736 47.811 64.2526 48.605C62.0306 49.398 59.4006 49.794 56.3636 49.794" fill="white"/>
<path d="M91.3866 39.253H95.5346C96.7586 39.253 97.8126 39.071 98.6966 38.705C99.5806 38.342 100.306 37.885 100.873 37.337C101.44 36.789 101.847 36.1729 102.098 35.4889C102.346 34.8029 102.472 34.144 102.472 33.503C102.472 32.637 102.302 31.9069 101.962 31.3139C101.621 30.7209 101.19 30.2419 100.669 29.8769C100.147 29.5109 99.5696 29.2479 98.9356 29.0889C98.2996 28.9299 97.6876 28.85 97.0996 28.85H91.3866V39.253ZM115.868 64.2117H103.016L96.0106 48.366C95.8746 48.366 95.7716 48.355 95.7046 48.333C95.6366 48.31 95.5566 48.298 95.4666 48.298H91.3866V64.2117H80.4366V19.668H99.2066C101.928 19.668 104.228 20.053 106.109 20.823C107.991 21.596 109.51 22.6049 110.666 23.8509C111.822 25.0979 112.661 26.5139 113.183 28.1019C113.702 29.6869 113.965 31.296 113.965 32.93C113.965 35.333 113.318 37.667 112.026 39.934C110.734 42.202 108.84 44.06 106.348 45.511" fill="white"/>
<path d="M149.064 44.887C150.125 46.045 150.094 47.844 148.973 48.965C147.852 50.086 146.054 50.116 144.897 49.055C144.827 50.624 143.534 51.875 141.948 51.875C140.363 51.875 139.07 50.624 139.001 49.055C137.843 50.116 136.045 50.086 134.923 48.965C133.802 47.844 133.772 46.045 134.833 44.887C133.264 44.818 132.014 43.525 132.014 41.94C132.014 40.354 133.264 39.061 134.833 38.992C133.772 37.834 133.802 36.036 134.923 34.915C136.045 33.794 137.843 33.764 139.001 34.824C139.07 33.256 140.363 32.005 141.948 32.005C143.534 32.005 144.827 33.256 144.897 34.824C146.054 33.763 147.852 33.794 148.973 34.915C150.095 36.036 150.125 37.834 149.064 38.992C150.633 39.061 151.883 40.354 151.883 41.94C151.883 43.525 150.633 44.818 149.064 44.887ZM162.486 32.011C161.556 29.269 160.174 26.922 158.338 24.973C156.502 23.024 154.245 21.516 151.572 20.45C148.897 19.385 145.835 18.852 142.39 18.852C138.717 18.852 135.476 19.442 132.666 20.62C129.854 21.799 127.52 23.442 125.661 25.551C123.802 27.658 122.397 30.175 121.445 33.099C120.493 36.023 120.016 39.231 120.016 42.722C120.016 46.214 120.503 49.33 121.478 52.072C122.452 54.816 123.859 57.1511 125.695 59.0769C127.531 61.005 129.775 62.4781 132.427 63.4968C135.08 64.5179 138.082 65.0269 141.438 65.0269C144.883 65.0269 147.989 64.4949 150.755 63.43C153.52 62.3648 155.877 60.8121 157.828 58.7718C159.776 56.7308 161.273 54.2261 162.316 51.257C163.359 48.288 163.88 44.897 163.88 41.09C163.88 37.781 163.414 34.755 162.486 32.011Z" fill="white"/>
<path d="M191.53 53.7082L188.143 58.3281C188.143 60.7289 188.205 62.2082 188.205 62.2082C178.412 61.9621 171.576 62.2082 171.576 62.2082C172.007 29.874 171.76 20.882 171.76 20.882C182.97 21.191 188.327 21.006 188.327 21.006C188.205 29.751 188.205 36.648 188.143 42.254C191.099 34.924 192.885 29.566 192.885 29.566C206.127 30.12 212.284 30.058 212.284 30.058C208.159 35.848 205.325 40.097 203.417 42.931C209.575 55.925 213.27 63.5011 213.27 63.5011C199.783 63.932 195.717 64.425 195.717 64.425C193.931 59.7441 192.577 56.234 191.53 53.7082Z" fill="#C5DEE5"/>
<path d="M215.364 32.584C215.364 32.584 221.83 32.584 231.931 32.461C231.931 32.461 231.993 54.6933 232.178 62.9465C232.178 62.9465 224.91 62.8843 215.549 63.0074C215.549 63.0074 215.611 55.1867 215.364 32.584Z" fill="#C5DEE5"/>
<path d="M263.032 47.303C263.032 43.607 261.185 40.282 257.921 40.282C254.226 40.282 252.562 43.547 252.562 47.179C252.562 52.293 254.965 54.3863 257.675 54.3863C260.631 54.3863 263.032 52.353 263.032 47.303ZM264.265 64.4863C264.265 64.4863 264.511 62.0222 264.696 58.4515C262.232 62.3312 256.874 64.1175 252.502 64.1175C242.647 64.1175 235.564 57.6496 235.564 47.488C235.564 37.634 241.292 30.552 251.085 30.552C255.95 30.552 259.522 32.584 261.739 35.047L261.431 20.389C261.431 20.389 264.572 20.452 278.183 20.328C278.183 20.328 278.06 40.837 278.183 64.6086C278.183 64.6086 267.528 64.3632 264.265 64.4863Z" fill="#C5DEE5"/>
<path d="M233.705 19.631C233.705 18.045 232.454 16.752 230.886 16.684C231.947 15.526 231.916 13.727 230.795 12.606C229.674 11.485 227.877 11.455 226.718 12.515C226.649 10.947 225.356 9.69597 223.77 9.69597C222.186 9.69597 220.893 10.947 220.823 12.515C219.665 11.455 217.866 11.485 216.745 12.606C215.624 13.727 215.595 15.526 216.655 16.684C215.086 16.752 213.836 18.045 213.836 19.631C213.836 21.217 215.086 22.509 216.655 22.578C215.595 23.736 215.624 25.535 216.745 26.656C217.866 27.777 219.665 27.807 220.823 26.747C220.893 28.315 222.186 29.566 223.77 29.566C225.356 29.566 226.649 28.315 226.718 26.747C227.877 27.807 229.674 27.777 230.795 26.656C231.916 25.535 231.947 23.736 230.886 22.578C232.454 22.51 233.705 21.217 233.705 19.631Z" fill="white"/>
<path d="M46.0626 81.2967L45.8226 82.3186H40.7216L42.8176 73.5686H44.0426L42.1856 81.2967" fill="white"/>
<path d="M49.1436 81.4859C49.4966 81.4859 49.8006 81.4097 50.0516 81.259C50.3046 81.1066 50.5236 80.9297 50.7086 80.7289C50.7176 80.5859 50.7326 80.4359 50.7526 80.2797C50.7746 80.125 50.8016 79.966 50.8346 79.8066L51.5936 76.675C51.5516 76.659 51.4816 76.6457 51.3846 76.6367C51.2876 76.6289 51.2016 76.625 51.1256 76.625C50.6456 76.625 50.2126 76.7168 49.8246 76.9019C49.4376 77.0879 49.1076 77.334 48.8346 77.641C48.5596 77.9476 48.3506 78.3066 48.2026 78.7148C48.0556 79.1226 47.9816 79.55 47.9816 79.9957C47.9816 80.1726 47.9986 80.3519 48.0316 80.5316C48.0656 80.7136 48.1276 80.8738 48.2156 81.0117C48.3046 81.1507 48.4216 81.2648 48.5696 81.3527C48.7166 81.4418 48.9076 81.4859 49.1436 81.4859ZM51.0246 82.3949C50.9826 82.3027 50.9406 82.1988 50.8986 82.0859C50.8566 81.9718 50.8226 81.8519 50.7966 81.725C50.6116 81.8937 50.3636 82.0617 50.0516 82.2308C49.7406 82.3988 49.3586 82.484 48.9036 82.484C48.5336 82.484 48.2156 82.4238 47.9506 82.3066C47.6846 82.1886 47.4676 82.0238 47.3006 81.8136C47.1316 81.6039 47.0076 81.3558 46.9276 81.0687C46.8466 80.7828 46.8066 80.4679 46.8066 80.1218C46.8066 79.5578 46.9026 79.0078 47.0916 78.4679C47.2806 77.9297 47.5656 77.45 47.9436 77.0289C48.3226 76.6078 48.7986 76.2668 49.3706 76.0058C49.9426 75.7449 50.6116 75.6148 51.3786 75.6148C51.6056 75.6148 51.8706 75.6398 52.1736 75.691C52.4766 75.741 52.7376 75.825 52.9566 75.9429L51.9846 79.9078C51.9416 80.1019 51.9066 80.2867 51.8766 80.4636C51.8466 80.6398 51.8326 80.825 51.8326 81.0179C51.8326 81.2129 51.8496 81.4078 51.8826 81.6058C51.9166 81.8039 51.9756 82.016 52.0596 82.2429" fill="white"/>
<path d="M57.7166 81.3972C57.8006 81.4132 57.8916 81.4254 57.9876 81.4293C58.0846 81.4336 58.1796 81.4355 58.2726 81.4355C58.7526 81.4355 59.1816 81.3433 59.5596 81.1586C59.9396 80.9722 60.2606 80.7222 60.5256 80.4054C60.7906 80.0906 60.9956 79.7285 61.1386 79.3203C61.2816 78.9113 61.3526 78.4855 61.3526 78.0382C61.3526 77.8535 61.3326 77.6722 61.2906 77.4953C61.2486 77.3195 61.1706 77.1632 61.0556 77.0285C60.9426 76.8933 60.7886 76.7863 60.5956 76.7062C60.4016 76.6265 60.1536 76.5863 59.8506 76.5863C59.6406 76.5863 59.4466 76.6062 59.2706 76.6445C59.0926 76.6812 58.9456 76.7175 58.8276 76.7504L57.7166 81.3972ZM60.1406 75.5882C60.5536 75.5882 60.9096 75.6484 61.2086 75.7664C61.5066 75.8836 61.7526 76.0465 61.9466 76.2523C62.1406 76.4586 62.2846 76.7023 62.3826 76.9843C62.4796 77.2664 62.5276 77.5765 62.5276 77.9125C62.5276 78.4933 62.4396 79.0554 62.2626 79.5984C62.0856 80.1406 61.8146 80.6222 61.4476 81.0445C61.0816 81.4656 60.6186 81.8015 60.0596 82.0543C59.4996 82.3062 58.8366 82.4336 58.0696 82.4336C57.9776 82.4336 57.8766 82.4285 57.7666 82.4195C57.6576 82.4113 57.5606 82.3996 57.4776 82.3812L56.9336 84.6543H55.7596L57.8306 76.0312C58.1846 75.8875 58.5696 75.7785 58.9856 75.7023C59.4026 75.6265 59.7866 75.5882 60.1406 75.5882Z" fill="white"/>
<path d="M64.9636 79.4277C64.9216 79.6125 64.8796 79.7937 64.8376 79.9707C64.7946 80.1465 64.7746 80.3156 64.7746 80.4757C64.7746 80.7625 64.8436 80.9894 64.9836 81.1578C65.1216 81.3257 65.3806 81.4316 65.7586 81.4734L65.4936 82.4336C65.1486 82.4234 64.8566 82.3715 64.6166 82.2746C64.3766 82.1785 64.1826 82.0496 64.0356 81.8894C63.8886 81.7304 63.7806 81.5406 63.7146 81.3215C63.6466 81.1027 63.6126 80.8625 63.6126 80.6015C63.6126 80.4078 63.6296 80.2066 63.6636 79.9957C63.6966 79.7855 63.7426 79.5668 63.8026 79.3394L65.3936 72.7226L66.6176 72.5215" fill="white"/>
<path d="M69.1556 81.4859C69.5086 81.4859 69.8126 81.4097 70.0636 81.259C70.3166 81.1066 70.5356 80.9297 70.7216 80.7289C70.7296 80.5859 70.7446 80.4359 70.7646 80.2797C70.7866 80.125 70.8136 79.966 70.8466 79.8066L71.6056 76.675C71.5636 76.659 71.4936 76.6457 71.3966 76.6367C71.2996 76.6289 71.2136 76.625 71.1376 76.625C70.6576 76.625 70.2246 76.7168 69.8366 76.9019C69.4496 77.0879 69.1196 77.334 68.8466 77.641C68.5716 77.9476 68.3626 78.3066 68.2146 78.7148C68.0676 79.1226 67.9936 79.55 67.9936 79.9957C67.9936 80.1726 68.0106 80.3519 68.0436 80.5316C68.0776 80.7136 68.1396 80.8738 68.2276 81.0117C68.3156 81.1507 68.4336 81.2648 68.5816 81.3527C68.7286 81.4418 68.9196 81.4859 69.1556 81.4859ZM71.0366 82.3949C70.9946 82.3027 70.9526 82.1988 70.9106 82.0859C70.8686 81.9718 70.8346 81.8519 70.8086 81.725C70.6236 81.8937 70.3756 82.0617 70.0636 82.2308C69.7526 82.3988 69.3716 82.484 68.9156 82.484C68.5466 82.484 68.2276 82.4238 67.9626 82.3066C67.6966 82.1886 67.4796 82.0238 67.3126 81.8136C67.1436 81.6039 67.0196 81.3558 66.9396 81.0687C66.8586 80.7828 66.8186 80.4679 66.8186 80.1218C66.8186 79.5578 66.9146 79.0078 67.1036 78.4679C67.2926 77.9297 67.5776 77.45 67.9556 77.0289C68.3346 76.6078 68.8106 76.2668 69.3826 76.0058C69.9546 75.7449 70.6236 75.6148 71.3906 75.6148C71.6176 75.6148 71.8826 75.6398 72.1856 75.691C72.4886 75.741 72.7496 75.825 72.9686 75.9429L71.9966 79.9078C71.9536 80.1019 71.9186 80.2867 71.8886 80.4636C71.8586 80.6398 71.8446 80.825 71.8446 81.0179C71.8446 81.2129 71.8616 81.4078 71.8946 81.6058C71.9286 81.8039 71.9876 82.016 72.0716 82.2429" fill="white"/>
<path d="M75.6586 82.4961C75.0276 82.4961 74.5636 82.357 74.2696 82.08C73.9746 81.8007 73.8276 81.398 73.8276 80.8668C73.8276 80.5218 73.8856 80.08 74.0046 79.5418L75.3546 73.9218L76.5796 73.7211L76.0886 75.7527H78.3226L78.0816 76.739H75.8476L75.1526 79.6429C75.0526 80.0379 75.0016 80.3828 75.0016 80.6777C75.0016 80.9558 75.0776 81.1558 75.2286 81.2769C75.3816 81.4 75.6316 81.4597 75.9866 81.4597C76.2296 81.4597 76.4706 81.4211 76.7066 81.341C76.9406 81.2609 77.1226 81.1871 77.2496 81.1199L77.3376 82.1168C77.2116 82.1929 76.9966 82.275 76.6946 82.3629C76.3906 82.4519 76.0456 82.4961 75.6586 82.4961Z" fill="white"/>
<path d="M79.8766 78.8718C80.3636 78.8558 80.8106 78.8238 81.2136 78.7765C81.6186 78.7308 81.9676 78.6507 82.2626 78.5379C82.5566 78.4238 82.7866 78.2707 82.9506 78.0765C83.1136 77.8836 83.1966 77.6308 83.1966 77.3187C83.1966 77.2425 83.1816 77.1629 83.1526 77.0789C83.1226 76.9957 83.0726 76.9175 83.0016 76.8457C82.9296 76.7746 82.8296 76.7148 82.7046 76.6687C82.5776 76.6226 82.4216 76.5996 82.2366 76.5996C81.9426 76.5996 81.6656 76.6629 81.4096 76.7886C81.1536 76.9156 80.9226 77.0816 80.7226 77.2879C80.5196 77.4937 80.3476 77.7347 80.2046 78.0078C80.0616 78.2808 79.9516 78.5687 79.8766 78.8718ZM81.0756 82.4836C80.6466 82.4836 80.2756 82.4218 79.9636 82.3007C79.6526 82.1789 79.3906 82.0097 79.1816 81.7945C78.9716 81.5808 78.8156 81.3308 78.7136 81.0437C78.6136 80.7586 78.5636 80.4547 78.5636 80.1347C78.5636 79.5457 78.6516 78.9777 78.8286 78.4297C79.0046 77.8836 79.2566 77.3996 79.5856 76.9777C79.9136 76.5578 80.3136 76.2226 80.7846 75.9738C81.2566 75.7265 81.7906 75.6015 82.3886 75.6015C82.7346 75.6015 83.0296 75.6468 83.2786 75.7347C83.5276 75.8226 83.7286 75.9437 83.8846 76.0945C84.0406 76.2457 84.1566 76.4207 84.2316 76.6187C84.3086 76.8168 84.3456 77.0195 84.3456 77.2308C84.3456 77.6265 84.2746 77.9617 84.1316 78.2347C83.9876 78.5078 83.7976 78.7367 83.5636 78.9226C83.3266 79.1078 83.0516 79.2507 82.7366 79.3515C82.4206 79.4539 82.0906 79.5336 81.7506 79.5918C81.4096 79.6507 81.0636 79.6906 80.7156 79.7129C80.3656 79.7328 80.0356 79.7527 79.7246 79.7687C79.7156 79.8355 79.7126 79.8906 79.7126 79.9328V80.0336C79.7126 80.2265 79.7346 80.4105 79.7796 80.5828C79.8276 80.7547 79.9136 80.9078 80.0386 81.0379C80.1656 81.1687 80.3406 81.2707 80.5636 81.3468C80.7866 81.4226 81.0796 81.4597 81.4406 81.4597C81.6016 81.4597 81.7686 81.4457 81.9406 81.4156C82.1126 81.3867 82.2766 81.3488 82.4336 81.3027C82.5886 81.2566 82.7266 81.2105 82.8496 81.1636C82.9716 81.1175 83.0566 81.0738 83.1086 81.0316L83.2096 82.0289C83.0406 82.1218 82.7696 82.2207 82.3946 82.3257C82.0196 82.4297 81.5796 82.4836 81.0756 82.4836Z" fill="white"/>
<path d="M87.5516 75.753H89.7496L89.5216 76.7381H87.3246L86.3146 80.9049C86.2136 81.335 86.1256 81.7171 86.0496 82.0542C85.9736 82.3913 85.8826 82.7061 85.7776 83.001C85.6726 83.2952 85.5336 83.5799 85.3606 83.853C85.1886 84.126 84.9546 84.4112 84.6606 84.7049L83.6256 84.5542C83.8786 84.2253 84.0756 83.9479 84.2186 83.721C84.3626 83.4932 84.4816 83.2612 84.5786 83.026C84.6756 82.7913 84.7596 82.5182 84.8306 82.212C84.9026 81.9049 84.9976 81.5069 85.1156 81.0182L86.5166 75.16C86.6176 74.7389 86.7456 74.3651 86.9026 74.0362C87.0576 73.7081 87.2556 73.4319 87.4946 73.2092C87.7356 72.9862 88.0196 72.8151 88.3476 72.6979C88.6756 72.5799 89.0676 72.521 89.5216 72.521C89.8166 72.521 90.0956 72.5503 90.3616 72.61C90.6266 72.6682 90.8266 72.7311 90.9606 72.7991L90.4946 73.7331C90.4266 73.7003 90.3106 73.6569 90.1476 73.6061C89.9826 73.5561 89.7406 73.5311 89.4206 73.5311C89.1436 73.5311 88.9066 73.5721 88.7136 73.651C88.5196 73.7311 88.3566 73.8432 88.2216 73.9862C88.0866 74.128 87.9786 74.301 87.8986 74.5042C87.8186 74.7049 87.7496 74.9331 87.6916 75.185" fill="white"/>
<path d="M92.1616 81.4859C92.5396 81.4859 92.8786 81.3769 93.1776 81.1578C93.4756 80.9386 93.7286 80.659 93.9356 80.3179C94.1416 79.9777 94.2986 79.6 94.4086 79.1879C94.5176 78.775 94.5736 78.3757 94.5736 77.9879C94.5736 77.559 94.4796 77.2187 94.2946 76.966C94.1096 76.7129 93.7906 76.5867 93.3346 76.5867C92.9566 76.5867 92.6176 76.6968 92.3186 76.916C92.0196 77.134 91.7676 77.4136 91.5616 77.7547C91.3546 78.0957 91.1966 78.4718 91.0876 78.8847C90.9786 79.2968 90.9236 79.6968 90.9236 80.084C90.9236 80.5136 91.0156 80.8547 91.2016 81.1066C91.3866 81.3597 91.7066 81.4859 92.1616 81.4859ZM91.9596 82.484C91.2686 82.484 90.7286 82.2789 90.3366 81.8707C89.9456 81.4629 89.7496 80.9007 89.7496 80.1847C89.7496 79.6968 89.8186 79.184 89.9576 78.6449C90.0966 78.1058 90.3186 77.6097 90.6206 77.1547C90.9236 76.7007 91.3146 76.3257 91.7946 76.0316C92.2746 75.7367 92.8556 75.5886 93.5376 75.5886C94.2276 75.5886 94.7686 75.7929 95.1596 76.2007C95.5516 76.6097 95.7466 77.1718 95.7466 77.8879C95.7466 78.3757 95.6776 78.8886 95.5396 79.4277C95.3996 79.966 95.1786 80.4636 94.8756 80.9179C94.5736 81.3718 94.1816 81.7468 93.7016 82.0418C93.2216 82.3359 92.6416 82.484 91.9596 82.484Z" fill="white"/>
<path d="M100.217 75.6143C100.318 75.6143 100.432 75.6182 100.558 75.6264C100.685 75.6362 100.808 75.6503 100.93 75.6714C101.052 75.6924 101.164 75.7131 101.265 75.7342C101.366 75.7553 101.442 75.7784 101.492 75.8034L101.151 76.8264C100.983 76.7592 100.789 76.7085 100.57 76.6745C100.352 76.6424 100.141 76.6245 99.9396 76.6245C99.7626 76.6245 99.5866 76.6362 99.4156 76.6624C99.2426 76.6881 99.0926 76.7214 98.9656 76.7631L97.6286 82.3194H96.4536L97.9696 76.0053C98.3056 75.8874 98.6676 75.7932 99.0546 75.7221C99.4416 75.6503 99.8296 75.6143 100.217 75.6143Z" fill="white"/>
<path d="M108.752 75.6143C109.123 75.6143 109.436 75.6714 109.693 75.7854C109.95 75.8995 110.155 76.0522 110.311 76.2452C110.468 76.4393 110.579 76.6643 110.647 76.9214C110.714 77.1784 110.747 77.4495 110.747 77.7354C110.747 77.9214 110.732 78.1202 110.702 78.3354C110.673 78.5503 110.632 78.7585 110.582 78.9604L109.775 82.3194H108.6L109.345 79.2124C109.388 79.0194 109.436 78.8022 109.491 78.5624C109.545 78.3233 109.573 78.0842 109.573 77.8495C109.573 77.6901 109.554 77.5335 109.516 77.3811C109.477 77.2303 109.416 77.1003 109.327 76.9901C109.239 76.8811 109.114 76.7932 108.954 76.7253C108.793 76.6585 108.597 76.6245 108.361 76.6245C108.091 76.6245 107.83 76.6764 107.579 76.7823C107.325 76.8874 107.114 76.9952 106.947 77.1042C106.964 77.2221 106.977 77.3374 106.991 77.4514C107.004 77.5651 107.009 77.6764 107.009 77.7862C107.009 77.9792 106.995 78.1764 106.966 78.3733C106.936 78.5714 106.9 78.7663 106.857 78.9604L106.05 82.3194H104.875L105.62 79.2124C105.663 79.0194 105.709 78.8003 105.759 78.5561C105.809 78.3124 105.836 78.0682 105.836 77.8233C105.836 77.6643 105.818 77.5104 105.784 77.3631C105.752 77.2163 105.695 77.0874 105.614 76.9784C105.534 76.8694 105.427 76.7823 105.293 76.7194C105.157 76.6561 104.984 76.6245 104.775 76.6245C104.564 76.6245 104.359 76.6362 104.163 76.6624C103.964 76.6881 103.798 76.7214 103.664 76.7631L102.325 82.3194H101.15L102.666 76.0053C103.045 75.8874 103.459 75.7932 103.909 75.7221C104.359 75.6503 104.763 75.6143 105.116 75.6143C105.47 75.6143 105.768 75.6764 106.013 75.7971C106.257 75.9194 106.45 76.0823 106.593 76.2835C106.677 76.2245 106.793 76.1573 106.939 76.0823C107.086 76.0053 107.255 75.9342 107.445 75.8674C107.634 75.7995 107.841 75.7401 108.064 75.6901C108.288 75.6401 108.516 75.6143 108.752 75.6143Z" fill="white"/>
<path d="M113.222 78.8718C113.71 78.8558 114.156 78.8238 114.56 78.7765C114.964 78.7308 115.313 78.6507 115.608 78.5379C115.903 78.4238 116.132 78.2707 116.296 78.0765C116.46 77.8836 116.542 77.6308 116.542 77.3187C116.542 77.2425 116.528 77.1629 116.498 77.0789C116.468 76.9957 116.418 76.9175 116.347 76.8457C116.275 76.7746 116.176 76.7148 116.05 76.6687C115.923 76.6226 115.767 76.5996 115.582 76.5996C115.288 76.5996 115.012 76.6629 114.755 76.7886C114.499 76.9156 114.269 77.0816 114.068 77.2879C113.865 77.4937 113.693 77.7347 113.55 78.0078C113.407 78.2808 113.297 78.5687 113.222 78.8718ZM114.421 82.4836C113.992 82.4836 113.621 82.4218 113.31 82.3007C112.998 82.1789 112.737 82.0097 112.527 81.7945C112.317 81.5808 112.161 81.3308 112.06 81.0437C111.959 80.7586 111.909 80.4547 111.909 80.1347C111.909 79.5457 111.997 78.9777 112.174 78.4297C112.351 77.8836 112.602 77.3996 112.931 76.9777C113.259 76.5578 113.659 76.2226 114.13 75.9738C114.602 75.7265 115.136 75.6015 115.734 75.6015C116.08 75.6015 116.376 75.6468 116.624 75.7347C116.873 75.8226 117.074 75.9437 117.23 76.0945C117.386 76.2457 117.502 76.4207 117.578 76.6187C117.654 76.8168 117.691 77.0195 117.691 77.2308C117.691 77.6265 117.62 77.9617 117.477 78.2347C117.333 78.5078 117.144 78.7367 116.909 78.9226C116.672 79.1078 116.397 79.2507 116.082 79.3515C115.766 79.4539 115.437 79.5336 115.096 79.5918C114.755 79.6507 114.41 79.6906 114.061 79.7129C113.712 79.7328 113.381 79.7527 113.07 79.7687C113.062 79.8355 113.058 79.8906 113.058 79.9328V80.0336C113.058 80.2265 113.08 80.4105 113.126 80.5828C113.173 80.7547 113.259 80.9078 113.385 81.0379C113.512 81.1687 113.686 81.2707 113.909 81.3468C114.132 81.4226 114.425 81.4597 114.787 81.4597C114.947 81.4597 115.114 81.4457 115.286 81.4156C115.458 81.3867 115.622 81.3488 115.779 81.3027C115.934 81.2566 116.072 81.2105 116.195 81.1636C116.317 81.1175 116.403 81.0738 116.454 81.0316L116.555 82.0289C116.387 82.1218 116.115 82.2207 115.74 82.3257C115.365 82.4297 114.926 82.4836 114.421 82.4836Z" fill="white"/>
<path d="M123.727 81.4859C124.08 81.4859 124.382 81.4117 124.629 81.2648C124.878 81.1179 125.095 80.9476 125.28 80.7527C125.288 80.6187 125.303 80.4738 125.324 80.3179C125.345 80.1629 125.376 79.9918 125.418 79.8066L126.177 76.65C126.101 76.6328 126.016 76.6226 125.924 76.6187C125.831 76.6136 125.743 76.6117 125.659 76.6117C125.179 76.6117 124.745 76.7047 124.358 76.8898C123.971 77.075 123.641 77.3226 123.367 77.6347C123.093 77.9457 122.883 78.3066 122.735 78.7148C122.588 79.1226 122.515 79.55 122.515 79.9957C122.515 80.1898 122.536 80.375 122.578 80.5519C122.62 80.7289 122.687 80.8859 122.78 81.025C122.872 81.1636 122.996 81.275 123.153 81.3597C123.308 81.4437 123.5 81.4859 123.727 81.4859ZM126.404 81.0179C126.404 81.2129 126.42 81.4078 126.454 81.6058C126.488 81.8039 126.547 82.016 126.631 82.2429L125.596 82.3949C125.503 82.2097 125.432 81.9859 125.381 81.725C125.195 81.8937 124.948 82.0617 124.636 82.2308C124.324 82.3988 123.942 82.484 123.487 82.484C123.117 82.484 122.797 82.4257 122.528 82.3129C122.258 82.1988 122.035 82.0379 121.858 81.8269C121.681 81.616 121.551 81.366 121.466 81.0757C121.382 80.7847 121.34 80.4679 121.34 80.1218C121.34 79.5578 121.436 79.0078 121.625 78.4679C121.814 77.9297 122.096 77.45 122.47 77.0289C122.845 76.6078 123.314 76.2687 123.878 76.0117C124.442 75.7547 125.099 75.6269 125.848 75.6269C125.94 75.6269 126.033 75.6316 126.126 75.6398C126.219 75.6488 126.315 75.6609 126.416 75.6777L127.123 72.7226L128.348 72.5218L126.568 79.9078C126.526 80.1019 126.488 80.2867 126.454 80.4636C126.42 80.6398 126.404 80.825 126.404 81.0179Z" fill="white"/>
<path d="M129.586 78.8718C130.074 78.8558 130.52 78.8238 130.924 78.7765C131.328 78.7308 131.677 78.6507 131.972 78.5379C132.267 78.4238 132.496 78.2707 132.66 78.0765C132.824 77.8836 132.906 77.6308 132.906 77.3187C132.906 77.2425 132.892 77.1629 132.862 77.0789C132.832 76.9957 132.782 76.9175 132.711 76.8457C132.639 76.7746 132.54 76.7148 132.414 76.6687C132.287 76.6226 132.131 76.5996 131.946 76.5996C131.652 76.5996 131.376 76.6629 131.119 76.7886C130.863 76.9156 130.633 77.0816 130.432 77.2879C130.229 77.4937 130.057 77.7347 129.914 78.0078C129.771 78.2808 129.661 78.5687 129.586 78.8718ZM130.785 82.4836C130.356 82.4836 129.985 82.4218 129.674 82.3007C129.362 82.1789 129.101 82.0097 128.891 81.7945C128.681 81.5808 128.525 81.3308 128.424 81.0437C128.323 80.7586 128.273 80.4547 128.273 80.1347C128.273 79.5457 128.361 78.9777 128.538 78.4297C128.715 77.8836 128.966 77.3996 129.295 76.9777C129.623 76.5578 130.023 76.2226 130.494 75.9738C130.966 75.7265 131.5 75.6015 132.098 75.6015C132.444 75.6015 132.74 75.6468 132.988 75.7347C133.237 75.8226 133.438 75.9437 133.594 76.0945C133.75 76.2457 133.866 76.4207 133.942 76.6187C134.018 76.8168 134.055 77.0195 134.055 77.2308C134.055 77.6265 133.984 77.9617 133.841 78.2347C133.697 78.5078 133.508 78.7367 133.273 78.9226C133.036 79.1078 132.761 79.2507 132.446 79.3515C132.13 79.4539 131.801 79.5336 131.46 79.5918C131.119 79.6507 130.774 79.6906 130.426 79.7129C130.076 79.7328 129.745 79.7527 129.434 79.7687C129.426 79.8355 129.422 79.8906 129.422 79.9328V80.0336C129.422 80.2265 129.444 80.4105 129.49 80.5828C129.537 80.7547 129.623 80.9078 129.749 81.0379C129.876 81.1687 130.05 81.2707 130.273 81.3468C130.496 81.4226 130.789 81.4597 131.151 81.4597C131.311 81.4597 131.478 81.4457 131.65 81.4156C131.822 81.3867 131.986 81.3488 132.143 81.3027C132.298 81.2566 132.436 81.2105 132.559 81.1636C132.681 81.1175 132.767 81.0738 132.818 81.0316L132.919 82.0289C132.751 82.1218 132.479 82.2207 132.105 82.3257C131.729 82.4297 131.29 82.4836 130.785 82.4836Z" fill="white"/>
<path d="M136.151 81.4979C136.328 81.4979 136.507 81.4819 136.687 81.4479C136.868 81.4139 137.029 81.3589 137.167 81.2831C137.306 81.2081 137.42 81.1042 137.508 80.9741C137.597 80.8428 137.641 80.6819 137.641 80.4881C137.641 80.362 137.62 80.251 137.578 80.1542C137.536 80.0569 137.468 79.9659 137.376 79.8819C137.283 79.7979 137.167 79.7159 137.029 79.6358C136.89 79.5561 136.723 79.4659 136.53 79.3651C136.336 79.2721 136.159 79.1799 136 79.0858C135.84 78.994 135.699 78.885 135.577 78.7589C135.454 78.6319 135.36 78.4831 135.292 78.3108C135.225 78.1381 135.191 77.9292 135.191 77.685C135.191 77.0542 135.418 76.546 135.874 76.1639C136.328 75.7811 136.988 75.5889 137.856 75.5889C138.26 75.5889 138.615 75.6292 138.922 75.7089C139.23 75.7889 139.442 75.8631 139.56 75.9299L139.119 76.8889C139 76.8229 138.811 76.751 138.55 76.6749C138.289 76.5999 137.999 76.562 137.679 76.562C137.519 76.562 137.359 76.578 137.199 76.612C137.039 76.646 136.894 76.7018 136.763 76.7831C136.633 76.8631 136.528 76.9678 136.448 77.0979C136.368 77.2292 136.328 77.387 136.328 77.5721C136.328 77.7991 136.416 77.9858 136.593 78.1339C136.77 78.2811 137.035 78.435 137.388 78.594C137.607 78.6952 137.803 78.7991 137.976 78.903C138.149 79.0089 138.295 79.126 138.418 79.2569C138.539 79.387 138.633 79.5421 138.695 79.7178C138.759 79.8952 138.79 80.1061 138.79 80.3491C138.79 80.703 138.723 81.0139 138.588 81.2831C138.454 81.553 138.266 81.776 138.026 81.953C137.786 82.1299 137.502 82.262 137.173 82.351C136.846 82.4389 136.488 82.4831 136.101 82.4831C135.814 82.4831 135.555 82.4639 135.324 82.426C135.093 82.3889 134.89 82.3452 134.718 82.2928C134.545 82.2428 134.402 82.1909 134.289 82.1358C134.175 82.0819 134.089 82.037 134.03 82.0042L134.484 81.044C134.543 81.078 134.625 81.1202 134.731 81.1702C134.836 81.221 134.962 81.271 135.109 81.321C135.257 81.3721 135.418 81.4139 135.595 81.4479C135.772 81.4819 135.958 81.4979 136.151 81.4979Z" fill="white"/>
<path d="M144.03 81.3972C144.113 81.4132 144.205 81.4254 144.301 81.4293C144.398 81.4336 144.492 81.4355 144.585 81.4355C145.065 81.4355 145.494 81.3433 145.873 81.1586C146.252 80.9722 146.574 80.7222 146.839 80.4054C147.104 80.0906 147.308 79.7285 147.452 79.3203C147.595 78.9113 147.666 78.4855 147.666 78.0382C147.666 77.8535 147.645 77.6722 147.603 77.4953C147.561 77.3195 147.483 77.1632 147.37 77.0285C147.255 76.8933 147.102 76.7863 146.908 76.7062C146.715 76.6265 146.466 76.5863 146.163 76.5863C145.953 76.5863 145.759 76.6062 145.583 76.6445C145.406 76.6812 145.259 76.7175 145.141 76.7504L144.03 81.3972ZM146.454 75.5882C146.866 75.5882 147.222 75.6484 147.521 75.7664C147.82 75.8836 148.066 76.0465 148.259 76.2523C148.453 76.4586 148.598 76.7023 148.695 76.9843C148.792 77.2664 148.84 77.5765 148.84 77.9125C148.84 78.4933 148.752 79.0554 148.575 79.5984C148.398 80.1406 148.127 80.6222 147.761 81.0445C147.394 81.4656 146.932 81.8015 146.372 82.0543C145.812 82.3062 145.149 82.4336 144.383 82.4336C144.29 82.4336 144.189 82.4285 144.08 82.4195C143.97 82.4113 143.874 82.3996 143.79 82.3812L143.247 84.6543H142.073L144.143 76.0312C144.497 75.8875 144.882 75.7785 145.299 75.7023C145.715 75.6265 146.1 75.5882 146.454 75.5882Z" fill="white"/>
<path d="M153.284 75.6143C153.386 75.6143 153.499 75.6182 153.625 75.6264C153.752 75.6362 153.876 75.6503 153.998 75.6714C154.119 75.6924 154.231 75.7131 154.332 75.7342C154.434 75.7553 154.509 75.7784 154.56 75.8034L154.219 76.8264C154.051 76.7592 153.856 76.7085 153.639 76.6745C153.419 76.6424 153.209 76.6245 153.007 76.6245C152.83 76.6245 152.655 76.6362 152.483 76.6624C152.31 76.6881 152.161 76.7214 152.035 76.7631L150.696 82.3194H149.522L151.037 76.0053C151.374 75.8874 151.736 75.7932 152.123 75.7221C152.51 75.6503 152.898 75.6143 153.284 75.6143Z" fill="white"/>
<path d="M156.87 81.4859C157.249 81.4859 157.587 81.3769 157.886 81.1578C158.185 80.9386 158.438 80.659 158.645 80.3179C158.85 79.9777 159.008 79.6 159.117 79.1879C159.227 78.775 159.282 78.3757 159.282 77.9879C159.282 77.559 159.189 77.2187 159.004 76.966C158.818 76.7129 158.499 76.5867 158.044 76.5867C157.665 76.5867 157.326 76.6968 157.028 76.916C156.729 77.134 156.476 77.4136 156.27 77.7547C156.064 78.0957 155.906 78.4718 155.797 78.8847C155.687 79.2968 155.633 79.6968 155.633 80.084C155.633 80.5136 155.725 80.8547 155.91 81.1066C156.095 81.3597 156.416 81.4859 156.87 81.4859ZM156.668 82.484C155.978 82.484 155.437 82.2789 155.045 81.8707C154.655 81.4629 154.458 80.9007 154.458 80.1847C154.458 79.6968 154.528 79.184 154.667 78.6449C154.806 78.1058 155.027 77.6097 155.33 77.1547C155.633 76.7007 156.024 76.3257 156.504 76.0316C156.984 75.7367 157.565 75.5886 158.246 75.5886C158.936 75.5886 159.478 75.7929 159.868 76.2007C160.26 76.6097 160.456 77.1718 160.456 77.8879C160.456 78.3757 160.386 78.8886 160.248 79.4277C160.109 79.966 159.888 80.4636 159.585 80.9179C159.282 81.3718 158.89 81.7468 158.41 82.0418C157.93 82.3359 157.35 82.484 156.668 82.484Z" fill="white"/>
<path d="M162.804 81.4979C162.981 81.4979 163.16 81.4819 163.34 81.4479C163.521 81.4139 163.682 81.3589 163.82 81.2831C163.959 81.2081 164.073 81.1042 164.161 80.9741C164.25 80.8428 164.294 80.6819 164.294 80.4881C164.294 80.362 164.273 80.251 164.231 80.1542C164.189 80.0569 164.121 79.9659 164.029 79.8819C163.936 79.7979 163.82 79.7159 163.682 79.6358C163.543 79.5561 163.376 79.4659 163.183 79.3651C162.989 79.2721 162.812 79.1799 162.653 79.0858C162.493 78.994 162.352 78.885 162.23 78.7589C162.107 78.6319 162.013 78.4831 161.945 78.3108C161.878 78.1381 161.844 77.9292 161.844 77.685C161.844 77.0542 162.071 76.546 162.527 76.1639C162.981 75.7811 163.641 75.5889 164.509 75.5889C164.913 75.5889 165.268 75.6292 165.575 75.7089C165.883 75.7889 166.095 75.8631 166.213 75.9299L165.772 76.8889C165.653 76.8229 165.464 76.751 165.203 76.6749C164.942 76.5999 164.652 76.562 164.332 76.562C164.172 76.562 164.012 76.578 163.852 76.612C163.692 76.646 163.547 76.7018 163.416 76.7831C163.286 76.8631 163.181 76.9678 163.101 77.0979C163.021 77.2292 162.981 77.387 162.981 77.5721C162.981 77.7991 163.069 77.9858 163.246 78.1339C163.423 78.2811 163.688 78.435 164.041 78.594C164.26 78.6952 164.456 78.7991 164.629 78.903C164.802 79.0089 164.948 79.126 165.071 79.2569C165.192 79.387 165.286 79.5421 165.348 79.7178C165.412 79.8952 165.443 80.1061 165.443 80.3491C165.443 80.703 165.376 81.0139 165.241 81.2831C165.107 81.553 164.919 81.776 164.679 81.953C164.439 82.1299 164.155 82.262 163.826 82.351C163.499 82.4389 163.141 82.4831 162.754 82.4831C162.467 82.4831 162.208 82.4639 161.977 82.426C161.746 82.3889 161.543 82.3452 161.371 82.2928C161.198 82.2428 161.055 82.1909 160.942 82.1358C160.828 82.0819 160.742 82.037 160.683 82.0042L161.137 81.044C161.196 81.078 161.278 81.1202 161.384 81.1702C161.489 81.221 161.615 81.271 161.762 81.321C161.91 81.3721 162.071 81.4139 162.248 81.4479C162.425 81.4819 162.611 81.4979 162.804 81.4979Z" fill="white"/>
<path d="M171.945 81.4859C172.298 81.4859 172.6 81.4117 172.848 81.2648C173.097 81.1179 173.314 80.9476 173.499 80.7527C173.507 80.6187 173.521 80.4738 173.543 80.3179C173.563 80.1629 173.595 79.9918 173.637 79.8066L174.395 76.65C174.32 76.6328 174.235 76.6226 174.143 76.6187C174.049 76.6136 173.961 76.6117 173.877 76.6117C173.398 76.6117 172.964 76.7047 172.577 76.8898C172.19 77.075 171.859 77.3226 171.585 77.6347C171.312 77.9457 171.101 78.3066 170.954 78.7148C170.806 79.1226 170.734 79.55 170.734 79.9957C170.734 80.1898 170.754 80.375 170.796 80.5519C170.838 80.7289 170.906 80.8859 170.999 81.025C171.091 81.1636 171.215 81.275 171.371 81.3597C171.527 81.4437 171.718 81.4859 171.945 81.4859ZM174.622 81.0179C174.622 81.2129 174.639 81.4078 174.673 81.6058C174.706 81.8039 174.766 82.016 174.85 82.2429L173.814 82.3949C173.722 82.2097 173.65 81.9859 173.599 81.725C173.414 81.8937 173.166 82.0617 172.854 82.2308C172.543 82.3988 172.16 82.484 171.706 82.484C171.335 82.484 171.015 82.4257 170.746 82.3129C170.477 82.1988 170.254 82.0379 170.077 81.8269C169.9 81.616 169.77 81.366 169.685 81.0757C169.601 80.7847 169.559 80.4679 169.559 80.1218C169.559 79.5578 169.654 79.0078 169.843 78.4679C170.033 77.9297 170.314 77.45 170.689 77.0289C171.063 76.6078 171.533 76.2687 172.097 76.0117C172.661 75.7547 173.318 75.6269 174.067 75.6269C174.159 75.6269 174.252 75.6316 174.344 75.6398C174.437 75.6488 174.533 75.6609 174.635 75.6777L175.342 72.7226L176.567 72.5218L174.786 79.9078C174.744 80.1019 174.706 80.2867 174.673 80.4636C174.639 80.6398 174.622 80.825 174.622 81.0179Z" fill="white"/>
<path d="M177.804 78.8718C178.292 78.8558 178.738 78.8238 179.143 78.7765C179.547 78.7308 179.896 78.6507 180.19 78.5379C180.485 78.4238 180.714 78.2707 180.878 78.0765C181.043 77.8836 181.125 77.6308 181.125 77.3187C181.125 77.2425 181.11 77.1629 181.081 77.0789C181.051 76.9957 181.001 76.9175 180.929 76.8457C180.858 76.7746 180.758 76.7148 180.633 76.6687C180.506 76.6226 180.35 76.5996 180.165 76.5996C179.87 76.5996 179.595 76.6629 179.338 76.7886C179.081 76.9156 178.852 77.0816 178.65 77.2879C178.448 77.4937 178.276 77.7347 178.132 78.0078C177.989 78.2808 177.88 78.5687 177.804 78.8718ZM179.003 82.4836C178.575 82.4836 178.204 82.4218 177.892 82.3007C177.581 82.1789 177.32 82.0097 177.109 81.7945C176.899 81.5808 176.744 81.3308 176.643 81.0437C176.541 80.7586 176.491 80.4547 176.491 80.1347C176.491 79.5457 176.579 78.9777 176.756 78.4297C176.933 77.8836 177.185 77.3996 177.513 76.9777C177.842 76.5578 178.242 76.2226 178.713 75.9738C179.184 75.7265 179.719 75.6015 180.316 75.6015C180.662 75.6015 180.959 75.6468 181.207 75.7347C181.455 75.8226 181.657 75.9437 181.812 76.0945C181.969 76.2457 182.085 76.4207 182.16 76.6187C182.236 76.8168 182.274 77.0195 182.274 77.2308C182.274 77.6265 182.202 77.9617 182.059 78.2347C181.916 78.5078 181.726 78.7367 181.491 78.9226C181.255 79.1078 180.979 79.2507 180.664 79.3515C180.348 79.4539 180.02 79.5336 179.679 79.5918C179.338 79.6507 178.993 79.6906 178.643 79.7129C178.294 79.7328 177.964 79.7527 177.653 79.7687C177.644 79.8355 177.64 79.8906 177.64 79.9328V80.0336C177.64 80.2265 177.663 80.4105 177.709 80.5828C177.756 80.7547 177.842 80.9078 177.968 81.0379C178.095 81.1687 178.269 81.2707 178.492 81.3468C178.715 81.4226 179.007 81.4597 179.37 81.4597C179.529 81.4597 179.696 81.4457 179.868 81.4156C180.041 81.3867 180.205 81.3488 180.361 81.3027C180.517 81.2566 180.655 81.2105 180.778 81.1636C180.899 81.1175 180.986 81.0738 181.037 81.0316L181.137 82.0289C180.969 82.1218 180.698 82.2207 180.322 82.3257C179.948 82.4297 179.509 82.4836 179.003 82.4836Z" fill="white"/>
<path d="M187.4 79.4277C187.358 79.6125 187.316 79.7937 187.274 79.9707C187.231 80.1465 187.21 80.3156 187.21 80.4757C187.21 80.7625 187.28 80.9894 187.418 81.1578C187.557 81.3257 187.816 81.4316 188.195 81.4734L187.93 82.4336C187.585 82.4234 187.292 82.3715 187.053 82.2746C186.813 82.1785 186.619 82.0496 186.472 81.8894C186.324 81.7304 186.217 81.5406 186.149 81.3215C186.082 81.1027 186.049 80.8625 186.049 80.6015C186.049 80.4078 186.065 80.2066 186.099 79.9957C186.133 79.7855 186.179 79.5668 186.238 79.3394L187.828 72.7226L189.053 72.5215" fill="white"/>
<path d="M191.591 81.4859C191.945 81.4859 192.248 81.4097 192.501 81.259C192.754 81.1066 192.973 80.9297 193.157 80.7289C193.166 80.5859 193.18 80.4359 193.202 80.2797C193.223 80.125 193.25 79.966 193.284 79.8066L194.041 76.675C194 76.659 193.93 76.6457 193.834 76.6367C193.737 76.6289 193.65 76.625 193.575 76.625C193.095 76.625 192.662 76.7168 192.273 76.9019C191.887 77.0879 191.555 77.334 191.282 77.641C191.009 77.9476 190.798 78.3066 190.652 78.7148C190.504 79.1226 190.43 79.55 190.43 79.9957C190.43 80.1726 190.447 80.3519 190.48 80.5316C190.514 80.7136 190.576 80.8738 190.664 81.0117C190.753 81.1507 190.871 81.2648 191.018 81.3527C191.164 81.4418 191.357 81.4859 191.591 81.4859ZM193.473 82.3949C193.43 82.3027 193.389 82.1988 193.348 82.0859C193.305 81.9718 193.272 81.8519 193.246 81.725C193.061 81.8937 192.813 82.0617 192.501 82.2308C192.189 82.3988 191.807 82.484 191.353 82.484C190.982 82.484 190.664 82.4238 190.398 82.3066C190.134 82.1886 189.916 82.0238 189.748 81.8136C189.58 81.6039 189.455 81.3558 189.377 81.0687C189.296 80.7828 189.255 80.4679 189.255 80.1218C189.255 79.5578 189.351 79.0078 189.539 78.4679C189.73 77.9297 190.014 77.45 190.393 77.0289C190.772 76.6078 191.247 76.2668 191.819 76.0058C192.391 75.7449 193.061 75.6148 193.827 75.6148C194.055 75.6148 194.32 75.6398 194.623 75.691C194.926 75.741 195.186 75.825 195.405 75.9429L194.432 79.9078C194.391 80.1019 194.355 80.2867 194.326 80.4636C194.296 80.6398 194.282 80.825 194.282 81.0179C194.282 81.2129 194.298 81.4078 194.332 81.6058C194.366 81.8039 194.425 82.016 194.509 82.2429" fill="white"/>
<path d="M200.165 81.3972C200.249 81.4132 200.34 81.4254 200.436 81.4293C200.533 81.4336 200.627 81.4355 200.722 81.4355C201.2 81.4355 201.629 81.3433 202.008 81.1586C202.388 80.9722 202.709 80.7222 202.974 80.4054C203.239 80.0906 203.445 79.7285 203.588 79.3203C203.73 78.9113 203.802 78.4855 203.802 78.0382C203.802 77.8535 203.78 77.6722 203.738 77.4953C203.697 77.3195 203.62 77.1632 203.505 77.0285C203.39 76.8933 203.238 76.7863 203.045 76.7062C202.85 76.6265 202.602 76.5863 202.299 76.5863C202.089 76.5863 201.895 76.6062 201.718 76.6445C201.541 76.6812 201.395 76.7175 201.277 76.7504L200.165 81.3972ZM202.589 75.5882C203.002 75.5882 203.358 75.6484 203.656 75.7664C203.955 75.8836 204.202 76.0465 204.395 76.2523C204.589 76.4586 204.733 76.7023 204.83 76.9843C204.927 77.2664 204.977 77.5765 204.977 77.9125C204.977 78.4933 204.888 79.0554 204.711 79.5984C204.534 80.1406 204.263 80.6222 203.897 81.0445C203.53 81.4656 203.068 81.8015 202.507 82.0543C201.947 82.3062 201.284 82.4336 200.518 82.4336C200.427 82.4336 200.324 82.4285 200.215 82.4195C200.105 82.4113 200.009 82.3996 199.925 82.3812L199.382 84.6543H198.208L200.279 76.0312C200.633 75.8875 201.018 75.7785 201.434 75.7023C201.85 75.6265 202.236 75.5882 202.589 75.5882Z" fill="white"/>
<path d="M207.274 78.8718C207.762 78.8558 208.208 78.8238 208.612 78.7765C209.016 78.7308 209.365 78.6507 209.66 78.5379C209.955 78.4238 210.184 78.2707 210.348 78.0765C210.513 77.8836 210.594 77.6308 210.594 77.3187C210.594 77.2425 210.58 77.1629 210.55 77.0789C210.521 76.9957 210.471 76.9175 210.399 76.8457C210.327 76.7746 210.228 76.7148 210.102 76.6687C209.975 76.6226 209.82 76.5996 209.635 76.5996C209.34 76.5996 209.065 76.6629 208.808 76.7886C208.551 76.9156 208.322 77.0816 208.12 77.2879C207.917 77.4937 207.745 77.7347 207.602 78.0078C207.459 78.2808 207.349 78.5687 207.274 78.8718ZM208.473 82.4836C208.044 82.4836 207.674 82.4218 207.362 82.3007C207.051 82.1789 206.79 82.0097 206.579 81.7945C206.369 81.5808 206.214 81.3308 206.112 81.0437C206.011 80.7586 205.961 80.4547 205.961 80.1347C205.961 79.5457 206.049 78.9777 206.226 78.4297C206.403 77.8836 206.655 77.3996 206.983 76.9777C207.312 76.5578 207.712 76.2226 208.182 75.9738C208.654 75.7265 209.188 75.6015 209.786 75.6015C210.132 75.6015 210.429 75.6468 210.676 75.7347C210.925 75.8226 211.127 75.9437 211.282 76.0945C211.439 76.2457 211.554 76.4207 211.63 76.6187C211.706 76.8168 211.744 77.0195 211.744 77.2308C211.744 77.6265 211.672 77.9617 211.529 78.2347C211.385 78.5078 211.196 78.7367 210.961 78.9226C210.724 79.1078 210.449 79.2507 210.134 79.3515C209.818 79.4539 209.489 79.5336 209.149 79.5918C208.808 79.6507 208.463 79.6906 208.113 79.7129C207.764 79.7328 207.433 79.7527 207.122 79.7687C207.114 79.8355 207.11 79.8906 207.11 79.9328V80.0336C207.11 80.2265 207.132 80.4105 207.179 80.5828C207.226 80.7547 207.312 80.9078 207.437 81.0379C207.564 81.1687 207.738 81.2707 207.961 81.3468C208.184 81.4226 208.477 81.4597 208.839 81.4597C208.999 81.4597 209.166 81.4457 209.338 81.4156C209.511 81.3867 209.674 81.3488 209.831 81.3027C209.987 81.2566 210.125 81.2105 210.248 81.1636C210.369 81.1175 210.455 81.0738 210.506 81.0316L210.607 82.0289C210.439 82.1218 210.168 82.2207 209.792 82.3257C209.418 82.4297 208.979 82.4836 208.473 82.4836Z" fill="white"/>
<path d="M214.445 82.4961C213.814 82.4961 213.351 82.357 213.056 82.08C212.762 81.8007 212.614 81.398 212.614 80.8668C212.614 80.5218 212.674 80.08 212.791 79.5418L214.142 73.9218L215.367 73.7211L214.875 75.7527H217.109L216.869 76.739H214.634L213.94 79.6429C213.839 80.0379 213.788 80.3828 213.788 80.6777C213.788 80.9558 213.864 81.1558 214.015 81.2769C214.168 81.4 214.42 81.4597 214.774 81.4597C215.017 81.4597 215.258 81.4211 215.493 81.341C215.728 81.2609 215.91 81.1871 216.036 81.1199L216.124 82.1168C215.999 82.1929 215.784 82.275 215.481 82.3629C215.178 82.4519 214.832 82.4961 214.445 82.4961Z" fill="white"/>
<path d="M219.648 74.5663C219.454 74.5663 219.291 74.5073 219.161 74.3893C219.03 74.2721 218.966 74.1085 218.966 73.8971C218.966 73.6284 219.05 73.4151 219.218 73.2592C219.386 73.1042 219.575 73.0264 219.786 73.0264C219.98 73.0264 220.143 73.0874 220.279 73.2092C220.414 73.3311 220.48 73.5014 220.48 73.7202C220.48 73.9733 220.393 74.1772 220.216 74.3335C220.039 74.4893 219.848 74.5663 219.648 74.5663ZM218.284 82.3194H217.109L218.688 75.7534H219.863" fill="white"/>
<path d="M222.501 82.4961C221.87 82.4961 221.407 82.357 221.112 82.08C220.818 81.8007 220.67 81.398 220.67 80.8668C220.67 80.5218 220.73 80.08 220.847 79.5418L222.198 73.9218L223.423 73.7211L222.931 75.7527H225.165L224.925 76.739H222.69L221.996 79.6429C221.895 80.0379 221.844 80.3828 221.844 80.6777C221.844 80.9558 221.92 81.1558 222.071 81.2769C222.224 81.4 222.476 81.4597 222.83 81.4597C223.073 81.4597 223.314 81.4211 223.549 81.341C223.784 81.2609 223.966 81.1871 224.092 81.1199L224.18 82.1168C224.055 82.1929 223.84 82.275 223.537 82.3629C223.234 82.4519 222.888 82.4961 222.501 82.4961Z" fill="white"/>
<path d="M226.718 78.8718C227.206 78.8558 227.652 78.8238 228.056 78.7765C228.46 78.7308 228.809 78.6507 229.104 78.5379C229.399 78.4238 229.628 78.2707 229.792 78.0765C229.957 77.8836 230.038 77.6308 230.038 77.3187C230.038 77.2425 230.024 77.1629 229.994 77.0789C229.965 76.9957 229.915 76.9175 229.843 76.8457C229.771 76.7746 229.672 76.7148 229.546 76.6687C229.419 76.6226 229.264 76.5996 229.079 76.5996C228.784 76.5996 228.509 76.6629 228.252 76.7886C227.995 76.9156 227.766 77.0816 227.564 77.2879C227.361 77.4937 227.189 77.7347 227.046 78.0078C226.903 78.2808 226.793 78.5687 226.718 78.8718ZM227.917 82.4836C227.488 82.4836 227.118 82.4218 226.806 82.3007C226.495 82.1789 226.234 82.0097 226.023 81.7945C225.813 81.5808 225.658 81.3308 225.556 81.0437C225.455 80.7586 225.405 80.4547 225.405 80.1347C225.405 79.5457 225.493 78.9777 225.67 78.4297C225.847 77.8836 226.099 77.3996 226.427 76.9777C226.756 76.5578 227.156 76.2226 227.626 75.9738C228.098 75.7265 228.632 75.6015 229.23 75.6015C229.576 75.6015 229.873 75.6468 230.12 75.7347C230.369 75.8226 230.571 75.9437 230.726 76.0945C230.883 76.2457 230.998 76.4207 231.074 76.6187C231.15 76.8168 231.188 77.0195 231.188 77.2308C231.188 77.6265 231.116 77.9617 230.973 78.2347C230.829 78.5078 230.64 78.7367 230.405 78.9226C230.168 79.1078 229.893 79.2507 229.578 79.3515C229.262 79.4539 228.933 79.5336 228.593 79.5918C228.252 79.6507 227.907 79.6906 227.558 79.7129C227.208 79.7328 226.877 79.7527 226.566 79.7687C226.558 79.8355 226.554 79.8906 226.554 79.9328V80.0336C226.554 80.2265 226.576 80.4105 226.623 80.5828C226.67 80.7547 226.756 80.9078 226.881 81.0379C227.008 81.1687 227.182 81.2707 227.405 81.3468C227.628 81.4226 227.921 81.4597 228.283 81.4597C228.443 81.4597 228.61 81.4457 228.782 81.4156C228.955 81.3867 229.118 81.3488 229.275 81.3027C229.431 81.2566 229.569 81.2105 229.692 81.1636C229.813 81.1175 229.899 81.0738 229.95 81.0316L230.051 82.0289C229.883 82.1218 229.612 82.2207 229.236 82.3257C228.862 82.4297 228.423 82.4836 227.917 82.4836Z" fill="white"/>
<path d="M236.175 78.8718C236.663 78.8558 237.109 78.8238 237.513 78.7765C237.916 78.7308 238.266 78.6507 238.561 78.5379C238.855 78.4238 239.084 78.2707 239.248 78.0765C239.414 77.8836 239.495 77.6308 239.495 77.3187C239.495 77.2425 239.48 77.1629 239.45 77.0789C239.422 76.9957 239.372 76.9175 239.3 76.8457C239.227 76.7746 239.129 76.7148 239.002 76.6687C238.875 76.6226 238.72 76.5996 238.536 76.5996C238.241 76.5996 237.966 76.6629 237.709 76.7886C237.452 76.9156 237.223 77.0816 237.02 77.2879C236.818 77.4937 236.645 77.7347 236.502 78.0078C236.359 78.2808 236.25 78.5687 236.175 78.8718ZM237.373 82.4836C236.945 82.4836 236.575 82.4218 236.263 82.3007C235.952 82.1789 235.691 82.0097 235.48 81.7945C235.27 81.5808 235.114 81.3308 235.013 81.0437C234.911 80.7586 234.861 80.4547 234.861 80.1347C234.861 79.5457 234.95 78.9777 235.127 78.4297C235.304 77.8836 235.555 77.3996 235.884 76.9777C236.213 76.5578 236.613 76.2226 237.082 75.9738C237.555 75.7265 238.089 75.6015 238.686 75.6015C239.032 75.6015 239.33 75.6468 239.577 75.7347C239.825 75.8226 240.027 75.9437 240.182 76.0945C240.339 76.2457 240.455 76.4207 240.53 76.6187C240.607 76.8168 240.645 77.0195 240.645 77.2308C240.645 77.6265 240.573 77.9617 240.43 78.2347C240.286 78.5078 240.097 78.7367 239.861 78.9226C239.625 79.1078 239.35 79.2507 239.034 79.3515C238.718 79.4539 238.389 79.5336 238.05 79.5918C237.709 79.6507 237.364 79.6906 237.014 79.7129C236.664 79.7328 236.334 79.7527 236.023 79.7687C236.014 79.8355 236.011 79.8906 236.011 79.9328V80.0336C236.011 80.2265 236.032 80.4105 236.08 80.5828C236.127 80.7547 236.213 80.9078 236.338 81.0379C236.464 81.1687 236.639 81.2707 236.861 81.3468C237.084 81.4226 237.377 81.4597 237.739 81.4597C237.9 81.4597 238.066 81.4457 238.239 81.4156C238.411 81.3867 238.575 81.3488 238.732 81.3027C238.888 81.2566 239.025 81.2105 239.148 81.1636C239.27 81.1175 239.355 81.0738 239.407 81.0316L239.507 82.0289C239.339 82.1218 239.068 82.2207 238.693 82.3257C238.318 82.4297 237.88 82.4836 237.373 82.4836Z" fill="white"/>
<path d="M242.273 82.3191H241.099L242.613 76.0062C243.001 75.8882 243.42 75.7929 243.87 75.7222C244.32 75.65 244.723 75.614 245.076 75.614C245.454 75.614 245.781 75.6672 246.054 75.773C246.328 75.8769 246.549 76.0203 246.717 76.2011C246.886 76.3832 247.01 76.6019 247.09 76.8582C247.169 77.1152 247.209 77.3953 247.209 77.698C247.209 77.891 247.193 78.0961 247.159 78.3109C247.125 78.5242 247.083 78.741 247.033 78.9601L246.225 82.3191H245.05L245.795 79.2132C245.854 78.9769 245.912 78.7371 245.966 78.4929C246.02 78.2492 246.048 78.0179 246.048 77.7992C246.048 77.4621 245.956 77.182 245.77 76.959C245.585 76.7359 245.24 76.6242 244.735 76.6242C244.524 76.6242 244.318 76.6371 244.116 76.6621C243.914 76.6882 243.745 76.7211 243.611 76.7632" fill="white"/>
<path d="M250.809 75.753H253.006L252.779 76.7381H250.581L249.571 80.9049C249.47 81.335 249.382 81.7171 249.306 82.0542C249.231 82.3913 249.14 82.7061 249.034 83.001C248.93 83.2952 248.791 83.5799 248.618 83.853C248.446 84.126 248.211 84.4112 247.918 84.7049L246.882 84.5542C247.135 84.2253 247.332 83.9479 247.476 83.721C247.619 83.4932 247.739 83.2612 247.835 83.026C247.932 82.7913 248.016 82.5182 248.088 82.212C248.159 81.9049 248.254 81.5069 248.372 81.0182L249.773 75.16C249.874 74.7389 250.002 74.3651 250.159 74.0362C250.314 73.7081 250.512 73.4319 250.751 73.2092C250.992 72.9862 251.276 72.8151 251.604 72.6979C251.932 72.5799 252.324 72.521 252.779 72.521C253.073 72.521 253.353 72.5503 253.618 72.61C253.883 72.6682 254.083 72.7311 254.217 72.7991L253.751 73.7331C253.683 73.7003 253.568 73.6569 253.404 73.6061C253.239 73.5561 252.998 73.5311 252.677 73.5311C252.4 73.5311 252.164 73.5721 251.97 73.651C251.777 73.7311 251.613 73.8432 251.478 73.9862C251.343 74.128 251.235 74.301 251.156 74.5042C251.076 74.7049 251.006 74.9331 250.948 75.185" fill="white"/>
<path d="M255.316 81.4859C255.67 81.4859 255.973 81.4097 256.225 81.259C256.477 81.1066 256.697 80.9297 256.882 80.7289C256.889 80.5859 256.905 80.4359 256.925 80.2797C256.948 80.125 256.973 79.966 257.007 79.8066L257.766 76.675C257.723 76.659 257.654 76.6457 257.557 76.6367C257.459 76.6289 257.373 76.625 257.298 76.625C256.818 76.625 256.386 76.7168 255.998 76.9019C255.611 77.0879 255.28 77.334 255.007 77.641C254.732 77.9476 254.523 78.3066 254.375 78.7148C254.229 79.1226 254.154 79.55 254.154 79.9957C254.154 80.1726 254.17 80.3519 254.204 80.5316C254.239 80.7136 254.3 80.8738 254.388 81.0117C254.475 81.1507 254.595 81.2648 254.741 81.3527C254.889 81.4418 255.08 81.4859 255.316 81.4859ZM257.197 82.3949C257.154 82.3027 257.113 82.1988 257.072 82.0859C257.029 81.9718 256.995 81.8519 256.97 81.725C256.784 81.8937 256.536 82.0617 256.225 82.2308C255.914 82.3988 255.53 82.484 255.077 82.484C254.705 82.484 254.388 82.4238 254.123 82.3066C253.857 82.1886 253.641 82.0238 253.473 81.8136C253.304 81.6039 253.18 81.3558 253.1 81.0687C253.02 80.7828 252.979 80.4679 252.979 80.1218C252.979 79.5578 253.075 79.0078 253.264 78.4679C253.454 77.9297 253.739 77.45 254.116 77.0289C254.495 76.6078 254.972 76.2668 255.543 76.0058C256.116 75.7449 256.784 75.6148 257.55 75.6148C257.779 75.6148 258.043 75.6398 258.347 75.691C258.65 75.741 258.909 75.825 259.129 75.9429L258.157 79.9078C258.114 80.1019 258.079 80.2867 258.05 80.4636C258.02 80.6398 258.005 80.825 258.005 81.0179C258.005 81.2129 258.023 81.4078 258.055 81.6058C258.089 81.8039 258.148 82.016 258.232 82.2429" fill="white"/>
<path d="M260.746 82.3191H259.572L261.086 76.0062C261.473 75.8882 261.893 75.7929 262.343 75.7222C262.793 75.65 263.196 75.614 263.549 75.614C263.927 75.614 264.254 75.6672 264.527 75.773C264.801 75.8769 265.022 76.0203 265.19 76.2011C265.359 76.3832 265.483 76.6019 265.563 76.8582C265.642 77.1152 265.682 77.3953 265.682 77.698C265.682 77.891 265.666 78.0961 265.632 78.3109C265.598 78.5242 265.556 78.741 265.506 78.9601L264.698 82.3191H263.523L264.268 79.2132C264.327 78.9769 264.384 78.7371 264.439 78.4929C264.493 78.2492 264.521 78.0179 264.521 77.7992C264.521 77.4621 264.429 77.182 264.243 76.959C264.058 76.7359 263.712 76.6242 263.208 76.6242C262.997 76.6242 262.791 76.6371 262.589 76.6621C262.387 76.6882 262.218 76.7211 262.084 76.7632" fill="white"/>
<path d="M266.832 79.9702C266.832 79.3979 266.918 78.8471 267.091 78.3171C267.264 77.7862 267.517 77.319 267.854 76.9151C268.191 76.5112 268.603 76.1889 269.092 75.9491C269.58 75.7092 270.14 75.5889 270.772 75.5889C271.049 75.5889 271.314 75.6081 271.567 75.646C271.82 75.6842 272.059 75.7573 272.286 75.8671L271.844 76.851C271.71 76.776 271.551 76.7171 271.371 76.6753C271.19 76.6331 270.957 76.612 270.67 76.612C270.258 76.612 269.887 76.7022 269.559 76.8831C269.231 77.0639 268.951 77.3049 268.72 77.603C268.487 77.9022 268.311 78.2471 268.189 78.6381C268.067 79.0299 268.006 79.4362 268.006 79.8573C268.006 80.076 268.029 80.2823 268.075 80.476C268.122 80.669 268.204 80.8389 268.322 80.987C268.439 81.1342 268.597 81.2503 268.796 81.335C268.993 81.419 269.244 81.46 269.547 81.46C269.698 81.46 269.858 81.446 270.027 81.4163C270.194 81.387 270.35 81.351 270.493 81.3092C270.637 81.2671 270.765 81.2229 270.878 81.176C270.993 81.1299 271.075 81.0862 271.125 81.044L271.226 82.0421C271.065 82.1421 270.818 82.2413 270.481 82.337C270.144 82.435 269.762 82.4831 269.332 82.4831C268.928 82.4831 268.57 82.4221 268.258 82.3003C267.947 82.178 267.686 82.0061 267.475 81.7831C267.266 81.56 267.105 81.294 266.996 80.987C266.886 80.6799 266.832 80.3413 266.832 79.9702Z" fill="white"/>
<path d="M273.714 78.8718C274.202 78.8558 274.648 78.8238 275.052 78.7765C275.455 78.7308 275.804 78.6507 276.1 78.5379C276.395 78.4238 276.623 78.2707 276.788 78.0765C276.952 77.8836 277.034 77.6308 277.034 77.3187C277.034 77.2425 277.02 77.1629 276.989 77.0789C276.961 76.9957 276.911 76.9175 276.839 76.8457C276.766 76.7746 276.668 76.7148 276.541 76.6687C276.414 76.6226 276.259 76.5996 276.075 76.5996C275.779 76.5996 275.504 76.6629 275.248 76.7886C274.991 76.9156 274.761 77.0816 274.559 77.2879C274.357 77.4937 274.184 77.7347 274.041 78.0078C273.898 78.2808 273.789 78.5687 273.714 78.8718ZM274.913 82.4836C274.484 82.4836 274.114 82.4218 273.802 82.3007C273.491 82.1789 273.229 82.0097 273.018 81.7945C272.809 81.5808 272.654 81.3308 272.552 81.0437C272.45 80.7586 272.4 80.4547 272.4 80.1347C272.4 79.5457 272.489 78.9777 272.666 78.4297C272.843 77.8836 273.095 77.3996 273.423 76.9777C273.752 76.5578 274.152 76.2226 274.622 75.9738C275.093 75.7265 275.627 75.6015 276.225 75.6015C276.572 75.6015 276.868 75.6468 277.116 75.7347C277.364 75.8226 277.566 75.9437 277.722 76.0945C277.879 76.2457 277.993 76.4207 278.07 76.6187C278.145 76.8168 278.184 77.0195 278.184 77.2308C278.184 77.6265 278.111 77.9617 277.968 78.2347C277.825 78.5078 277.636 78.7367 277.4 78.9226C277.164 79.1078 276.889 79.2507 276.573 79.3515C276.257 79.4539 275.929 79.5336 275.589 79.5918C275.248 79.6507 274.902 79.6906 274.552 79.7129C274.204 79.7328 273.873 79.7527 273.561 79.7687C273.554 79.8355 273.55 79.8906 273.55 79.9328V80.0336C273.55 80.2265 273.572 80.4105 273.618 80.5828C273.666 80.7547 273.752 80.9078 273.877 81.0379C274.004 81.1687 274.177 81.2707 274.4 81.3468C274.623 81.4226 274.916 81.4597 275.279 81.4597C275.439 81.4597 275.605 81.4457 275.777 81.4156C275.95 81.3867 276.114 81.3488 276.27 81.3027C276.427 81.2566 276.564 81.2105 276.688 81.1636C276.809 81.1175 276.895 81.0738 276.945 81.0316L277.047 82.0289C276.879 82.1218 276.607 82.2207 276.232 82.3257C275.857 82.4297 275.418 82.4836 274.913 82.4836Z" fill="white"/>
</svg>
