<svg width="332" height="100" viewBox="0 0 332 100" fill="none" xmlns="http://www.w3.org/2000/svg">
<path d="M312.643 99.811H19.177C8.586 99.811 0 91.225 0 80.634V19.177C0 8.586 8.586 1.56446e-06 19.177 1.56446e-06H312.643C323.234 1.56446e-06 331.82 8.586 331.82 19.177V80.634C331.82 91.225 323.234 99.811 312.643 99.811Z" fill="#12446C"/>
<path d="M51.6396 39.315H55.8546C57.0336 39.315 58.0416 39.132 58.8816 38.765C59.7196 38.398 60.4006 37.928 60.9216 37.355C61.4426 36.781 61.8286 36.127 62.0776 35.393C62.3276 34.66 62.4516 33.903 62.4516 33.124C62.4516 32.391 62.3506 31.69 62.1466 31.025C61.9416 30.36 61.6366 29.775 61.2286 29.271C60.8196 28.766 60.2866 28.352 59.6296 28.032C58.9716 27.71 58.1676 27.551 57.2156 27.551H51.6396V39.315ZM51.6396 48.496V62.913H40.6896V18.37H59.1886C61.9986 18.37 64.3436 18.767 66.2266 19.559C68.1076 20.354 69.6266 21.419 70.7826 22.756C71.9396 24.094 72.7656 25.612 73.2656 27.312C73.7626 29.013 74.0136 30.77 74.0136 32.583C74.0136 34.895 73.6616 37.015 72.9586 38.941C72.2556 40.869 71.1786 42.546 69.7296 43.974C68.2776 45.402 66.4416 46.513 64.2206 47.307C61.9986 48.1 59.3686 48.496 56.3316 48.496" fill="white"/>
<path d="M91.3546 37.955H95.5026C96.7266 37.955 97.7806 37.773 98.6646 37.407C99.5486 37.043 100.274 36.586 100.841 36.038C101.408 35.491 101.815 34.874 102.066 34.191C102.314 33.505 102.44 32.845 102.44 32.205C102.44 31.338 102.27 30.609 101.93 30.015C101.589 29.423 101.158 28.943 100.637 28.578C100.115 28.212 99.5376 27.95 98.9036 27.791C98.2676 27.631 97.6556 27.552 97.0676 27.552H91.3546V37.955ZM115.836 62.913H102.984L95.9786 47.068C95.8426 47.068 95.7396 47.057 95.6726 47.034C95.6046 47.011 95.5246 47 95.4346 47H91.3546V62.913H80.4046V18.37H99.1746C101.896 18.37 104.196 18.755 106.077 19.525C107.959 20.297 109.478 21.306 110.634 22.552C111.79 23.799 112.629 25.216 113.151 26.803C113.67 28.389 113.933 29.998 113.933 31.631C113.933 34.034 113.286 36.368 111.994 38.636C110.702 40.903 108.808 42.761 106.316 44.212" fill="white"/>
<path d="M149.032 43.589C150.093 44.747 150.062 46.546 148.941 47.667C147.82 48.788 146.022 48.818 144.865 47.757C144.795 49.326 143.502 50.577 141.916 50.577C140.331 50.577 139.038 49.326 138.969 47.757C137.811 48.818 136.013 48.788 134.891 47.667C133.77 46.546 133.74 44.747 134.801 43.589C133.232 43.52 131.982 42.227 131.982 40.642C131.982 39.056 133.232 37.763 134.801 37.694C133.74 36.536 133.77 34.738 134.891 33.617C136.013 32.496 137.811 32.466 138.969 33.526C139.038 31.958 140.331 30.707 141.916 30.707C143.502 30.707 144.795 31.958 144.865 33.526C146.022 32.465 147.82 32.496 148.941 33.617C150.063 34.738 150.093 36.536 149.032 37.694C150.601 37.763 151.851 39.056 151.851 40.642C151.851 42.227 150.601 43.52 149.032 43.589ZM162.454 30.713C161.524 27.971 160.142 25.624 158.306 23.675C156.47 21.726 154.213 20.218 151.54 19.152C148.865 18.087 145.803 17.554 142.358 17.554C138.685 17.554 135.444 18.144 132.634 19.322C129.822 20.501 127.488 22.144 125.629 24.253C123.77 26.36 122.365 28.877 121.413 31.801C120.461 34.725 119.984 37.933 119.984 41.424C119.984 44.916 120.471 48.032 121.446 50.774C122.42 53.518 123.827 55.853 125.663 57.779C127.499 59.707 129.743 61.18 132.395 62.199C135.048 63.22 138.05 63.729 141.406 63.729C144.851 63.729 147.957 63.197 150.723 62.132C153.488 61.067 155.845 59.514 157.796 57.474C159.744 55.433 161.241 52.928 162.284 49.959C163.327 46.99 163.848 43.599 163.848 39.792C163.848 36.483 163.382 33.457 162.454 30.713Z" fill="white"/>
<path d="M191.498 52.41L188.111 57.03C188.111 59.431 188.173 60.91 188.173 60.91C178.38 60.664 171.544 60.91 171.544 60.91C171.975 28.576 171.728 19.584 171.728 19.584C182.938 19.893 188.295 19.708 188.295 19.708C188.173 28.453 188.173 35.35 188.111 40.956C191.067 33.626 192.853 28.268 192.853 28.268C206.095 28.822 212.252 28.76 212.252 28.76C208.127 34.55 205.293 38.799 203.385 41.633C209.543 54.627 213.238 62.203 213.238 62.203C199.751 62.634 195.685 63.127 195.685 63.127C193.899 58.446 192.545 54.936 191.498 52.41Z" fill="#82C4C1"/>
<path d="M215.332 31.286C215.332 31.286 221.798 31.286 231.899 31.162C231.899 31.162 231.961 53.395 232.146 61.648C232.146 61.648 224.878 61.586 215.517 61.709C215.517 61.709 215.579 53.888 215.332 31.286Z" fill="#82C4C1"/>
<path d="M263 46.005C263 42.309 261.153 38.984 257.889 38.984C254.194 38.984 252.53 42.249 252.53 45.881C252.53 50.994 254.933 53.088 257.643 53.088C260.599 53.088 263 51.055 263 46.005ZM264.233 63.188C264.233 63.188 264.479 60.724 264.664 57.153C262.2 61.033 256.842 62.819 252.47 62.819C242.615 62.819 235.532 56.351 235.532 46.19C235.532 36.336 241.26 29.253 251.053 29.253C255.918 29.253 259.49 31.286 261.707 33.749L261.399 19.091C261.399 19.091 264.54 19.153 278.151 19.03C278.151 19.03 278.028 39.539 278.151 63.31C278.151 63.31 267.496 63.065 264.233 63.188Z" fill="#82C4C1"/>
<path d="M233.673 18.332C233.673 16.746 232.422 15.453 230.854 15.386C231.915 14.227 231.884 12.428 230.763 11.307C229.642 10.186 227.845 10.157 226.686 11.216C226.617 9.648 225.324 8.39801 223.738 8.39801C222.154 8.39801 220.861 9.648 220.791 11.216C219.633 10.157 217.834 10.186 216.713 11.307C215.592 12.428 215.563 14.227 216.623 15.386C215.054 15.453 213.804 16.746 213.804 18.332C213.804 19.918 215.054 21.211 216.623 21.28C215.563 22.437 215.592 24.236 216.713 25.357C217.834 26.478 219.633 26.509 220.791 25.448C220.861 27.016 222.154 28.268 223.738 28.268C225.324 28.268 226.617 27.016 226.686 25.448C227.845 26.509 229.642 26.478 230.763 25.357C231.884 24.236 231.915 22.437 230.854 21.28C232.422 21.211 233.673 19.918 233.673 18.332Z" fill="white"/>
<path d="M46.0306 79.998L45.7906 81.02H40.6896L42.7856 72.27H44.0106L42.1536 79.998" fill="#C5DEE5"/>
<path d="M49.1116 80.187C49.4646 80.187 49.7686 80.112 50.0196 79.961C50.2726 79.809 50.4916 79.632 50.6766 79.43C50.6856 79.287 50.7006 79.137 50.7206 78.982C50.7426 78.827 50.7696 78.668 50.8026 78.509L51.5616 75.377C51.5196 75.361 51.4496 75.348 51.3526 75.339C51.2556 75.33 51.1696 75.327 51.0936 75.327C50.6136 75.327 50.1806 75.419 49.7926 75.603C49.4056 75.789 49.0756 76.036 48.8026 76.343C48.5276 76.65 48.3186 77.009 48.1706 77.417C48.0236 77.825 47.9496 78.252 47.9496 78.698C47.9496 78.875 47.9666 79.053 47.9996 79.234C48.0336 79.416 48.0956 79.576 48.1836 79.714C48.2726 79.853 48.3896 79.967 48.5376 80.055C48.6846 80.144 48.8756 80.187 49.1116 80.187ZM50.9926 81.096C50.9506 81.005 50.9086 80.901 50.8666 80.787C50.8246 80.673 50.7906 80.553 50.7646 80.427C50.5796 80.596 50.3316 80.764 50.0196 80.932C49.7086 81.101 49.3266 81.186 48.8716 81.186C48.5016 81.186 48.1836 81.126 47.9186 81.009C47.6526 80.891 47.4356 80.726 47.2686 80.516C47.0996 80.305 46.9756 80.057 46.8956 79.771C46.8146 79.485 46.7746 79.17 46.7746 78.823C46.7746 78.26 46.8706 77.71 47.0596 77.17C47.2486 76.632 47.5336 76.152 47.9116 75.73C48.2906 75.31 48.7666 74.969 49.3386 74.707C49.9106 74.446 50.5796 74.317 51.3466 74.317C51.5736 74.317 51.8386 74.342 52.1416 74.393C52.4446 74.443 52.7056 74.527 52.9246 74.645L51.9526 78.61C51.9096 78.803 51.8746 78.989 51.8446 79.166C51.8146 79.342 51.8006 79.527 51.8006 79.72C51.8006 79.914 51.8176 80.11 51.8506 80.307C51.8846 80.505 51.9436 80.718 52.0276 80.945" fill="#C5DEE5"/>
<path d="M57.6846 80.099C57.7686 80.115 57.8596 80.127 57.9556 80.131C58.0526 80.135 58.1476 80.137 58.2406 80.137C58.7206 80.137 59.1496 80.045 59.5276 79.86C59.9076 79.674 60.2286 79.424 60.4936 79.107C60.7586 78.792 60.9636 78.43 61.1066 78.022C61.2496 77.613 61.3206 77.187 61.3206 76.74C61.3206 76.555 61.3006 76.374 61.2586 76.197C61.2166 76.021 61.1386 75.865 61.0236 75.73C60.9106 75.595 60.7566 75.488 60.5636 75.408C60.3696 75.328 60.1216 75.288 59.8186 75.288C59.6086 75.288 59.4146 75.308 59.2386 75.346C59.0606 75.383 58.9136 75.419 58.7956 75.452L57.6846 80.099ZM60.1086 74.29C60.5216 74.29 60.8776 74.35 61.1766 74.468C61.4746 74.585 61.7206 74.748 61.9146 74.954C62.1086 75.16 62.2526 75.404 62.3506 75.686C62.4476 75.968 62.4956 76.278 62.4956 76.614C62.4956 77.195 62.4076 77.757 62.2306 78.3C62.0536 78.842 61.7826 79.324 61.4156 79.746C61.0496 80.167 60.5866 80.503 60.0276 80.756C59.4676 81.008 58.8046 81.135 58.0376 81.135C57.9456 81.135 57.8446 81.13 57.7346 81.121C57.6256 81.113 57.5286 81.101 57.4456 81.083L56.9016 83.356H55.7276L57.7986 74.733C58.1526 74.589 58.5376 74.48 58.9536 74.404C59.3706 74.328 59.7546 74.29 60.1086 74.29Z" fill="#C5DEE5"/>
<path d="M64.9316 78.129C64.8896 78.314 64.8476 78.495 64.8056 78.672C64.7626 78.848 64.7426 79.018 64.7426 79.177C64.7426 79.464 64.8116 79.691 64.9516 79.859C65.0896 80.027 65.3486 80.134 65.7266 80.175L65.4616 81.136C65.1166 81.125 64.8246 81.073 64.5846 80.977C64.3446 80.88 64.1506 80.752 64.0036 80.591C63.8566 80.432 63.7486 80.243 63.6826 80.023C63.6146 79.804 63.5806 79.564 63.5806 79.303C63.5806 79.109 63.5976 78.909 63.6316 78.697C63.6646 78.487 63.7106 78.268 63.7706 78.041L65.3616 71.424L66.5856 71.223" fill="#C5DEE5"/>
<path d="M69.1236 80.187C69.4766 80.187 69.7806 80.112 70.0316 79.961C70.2846 79.809 70.5036 79.632 70.6896 79.43C70.6976 79.287 70.7126 79.137 70.7326 78.982C70.7546 78.827 70.7816 78.668 70.8146 78.509L71.5736 75.377C71.5316 75.361 71.4616 75.348 71.3646 75.339C71.2676 75.33 71.1816 75.327 71.1056 75.327C70.6256 75.327 70.1926 75.419 69.8046 75.603C69.4176 75.789 69.0876 76.036 68.8146 76.343C68.5396 76.65 68.3306 77.009 68.1826 77.417C68.0356 77.825 67.9616 78.252 67.9616 78.698C67.9616 78.875 67.9786 79.053 68.0116 79.234C68.0456 79.416 68.1076 79.576 68.1956 79.714C68.2836 79.853 68.4016 79.967 68.5496 80.055C68.6966 80.144 68.8876 80.187 69.1236 80.187ZM71.0046 81.096C70.9626 81.005 70.9206 80.901 70.8786 80.787C70.8366 80.673 70.8026 80.553 70.7766 80.427C70.5916 80.596 70.3436 80.764 70.0316 80.932C69.7206 81.101 69.3396 81.186 68.8836 81.186C68.5146 81.186 68.1956 81.126 67.9306 81.009C67.6646 80.891 67.4476 80.726 67.2806 80.516C67.1116 80.305 66.9876 80.057 66.9076 79.771C66.8266 79.485 66.7866 79.17 66.7866 78.823C66.7866 78.26 66.8826 77.71 67.0716 77.17C67.2606 76.632 67.5456 76.152 67.9236 75.73C68.3026 75.31 68.7786 74.969 69.3506 74.707C69.9226 74.446 70.5916 74.317 71.3586 74.317C71.5856 74.317 71.8506 74.342 72.1536 74.393C72.4566 74.443 72.7176 74.527 72.9366 74.645L71.9646 78.61C71.9216 78.803 71.8866 78.989 71.8566 79.166C71.8266 79.342 71.8126 79.527 71.8126 79.72C71.8126 79.914 71.8296 80.11 71.8626 80.307C71.8966 80.505 71.9556 80.718 72.0396 80.945" fill="#C5DEE5"/>
<path d="M75.6266 81.198C74.9956 81.198 74.5316 81.059 74.2376 80.782C73.9426 80.503 73.7956 80.1 73.7956 79.569C73.7956 79.223 73.8536 78.782 73.9726 78.244L75.3226 72.623L76.5476 72.423L76.0566 74.455H78.2906L78.0496 75.441H75.8156L75.1206 78.345C75.0206 78.739 74.9696 79.085 74.9696 79.38C74.9696 79.657 75.0456 79.857 75.1966 79.978C75.3496 80.102 75.5996 80.162 75.9546 80.162C76.1976 80.162 76.4386 80.123 76.6746 80.043C76.9086 79.962 77.0906 79.889 77.2176 79.821L77.3056 80.819C77.1796 80.895 76.9646 80.977 76.6626 81.064C76.3586 81.153 76.0136 81.198 75.6266 81.198Z" fill="#C5DEE5"/>
<path d="M79.8446 77.573C80.3316 77.557 80.7786 77.525 81.1816 77.478C81.5866 77.432 81.9356 77.352 82.2306 77.239C82.5246 77.125 82.7546 76.973 82.9186 76.778C83.0816 76.586 83.1646 76.332 83.1646 76.02C83.1646 75.945 83.1496 75.864 83.1206 75.78C83.0906 75.698 83.0406 75.62 82.9696 75.548C82.8976 75.477 82.7976 75.416 82.6726 75.37C82.5456 75.325 82.3896 75.302 82.2046 75.302C81.9106 75.302 81.6336 75.364 81.3776 75.491C81.1216 75.618 80.8906 75.784 80.6906 75.989C80.4876 76.195 80.3156 76.436 80.1726 76.709C80.0296 76.982 79.9196 77.27 79.8446 77.573ZM81.0436 81.186C80.6146 81.186 80.2436 81.123 79.9316 81.002C79.6206 80.88 79.3586 80.711 79.1496 80.496C78.9396 80.282 78.7836 80.032 78.6816 79.745C78.5816 79.461 78.5316 79.157 78.5316 78.836C78.5316 78.248 78.6196 77.68 78.7966 77.132C78.9726 76.586 79.2246 76.102 79.5536 75.68C79.8816 75.259 80.2816 74.925 80.7526 74.675C81.2246 74.428 81.7586 74.303 82.3566 74.303C82.7026 74.303 82.9976 74.348 83.2466 74.436C83.4956 74.525 83.6966 74.645 83.8526 74.796C84.0086 74.948 84.1246 75.123 84.1996 75.32C84.2766 75.518 84.3136 75.721 84.3136 75.932C84.3136 76.328 84.2426 76.664 84.0996 76.936C83.9556 77.209 83.7656 77.439 83.5316 77.625C83.2946 77.809 83.0196 77.952 82.7046 78.053C82.3886 78.155 82.0586 78.236 81.7186 78.293C81.3776 78.352 81.0316 78.393 80.6836 78.414C80.3336 78.434 80.0036 78.455 79.6926 78.47C79.6836 78.537 79.6806 78.593 79.6806 78.634V78.736C79.6806 78.928 79.7026 79.112 79.7476 79.284C79.7956 79.457 79.8816 79.609 80.0066 79.739C80.1336 79.87 80.3086 79.973 80.5316 80.048C80.7546 80.125 81.0476 80.161 81.4086 80.161C81.5696 80.161 81.7366 80.148 81.9086 80.118C82.0806 80.089 82.2446 80.05 82.4016 80.005C82.5566 79.959 82.6946 79.912 82.8176 79.866C82.9396 79.82 83.0246 79.775 83.0766 79.734L83.1776 80.73C83.0086 80.823 82.7376 80.923 82.3626 81.027C81.9876 81.132 81.5476 81.186 81.0436 81.186Z" fill="#C5DEE5"/>
<path d="M87.5196 74.455H89.7176L89.4896 75.44H87.2926L86.2826 79.607C86.1816 80.037 86.0936 80.419 86.0176 80.756C85.9416 81.093 85.8506 81.408 85.7456 81.703C85.6406 81.997 85.5016 82.282 85.3286 82.555C85.1566 82.828 84.9226 83.113 84.6286 83.407L83.5936 83.256C83.8466 82.927 84.0436 82.65 84.1866 82.423C84.3306 82.195 84.4496 81.963 84.5466 81.728C84.6436 81.493 84.7276 81.22 84.7986 80.914C84.8706 80.607 84.9656 80.209 85.0836 79.72L86.4846 73.862C86.5856 73.441 86.7136 73.067 86.8706 72.738C87.0256 72.41 87.2236 72.134 87.4626 71.911C87.7036 71.688 87.9876 71.517 88.3156 71.4C88.6436 71.282 89.0356 71.223 89.4896 71.223C89.7846 71.223 90.0636 71.252 90.3296 71.312C90.5946 71.37 90.7946 71.433 90.9286 71.501L90.4626 72.435C90.3946 72.402 90.2786 72.359 90.1156 72.308C89.9506 72.258 89.7086 72.233 89.3886 72.233C89.1116 72.233 88.8746 72.274 88.6816 72.353C88.4876 72.433 88.3246 72.545 88.1896 72.688C88.0546 72.83 87.9466 73.003 87.8666 73.206C87.7866 73.407 87.7176 73.635 87.6596 73.887" fill="#C5DEE5"/>
<path d="M92.1296 80.187C92.5076 80.187 92.8466 80.078 93.1456 79.86C93.4436 79.641 93.6966 79.361 93.9036 79.02C94.1096 78.68 94.2666 78.302 94.3766 77.889C94.4856 77.477 94.5416 77.078 94.5416 76.689C94.5416 76.261 94.4476 75.921 94.2626 75.668C94.0776 75.414 93.7586 75.289 93.3026 75.289C92.9246 75.289 92.5856 75.398 92.2866 75.618C91.9876 75.836 91.7356 76.116 91.5296 76.457C91.3226 76.798 91.1646 77.173 91.0556 77.587C90.9466 77.998 90.8916 78.398 90.8916 78.786C90.8916 79.216 90.9836 79.557 91.1696 79.809C91.3546 80.062 91.6746 80.187 92.1296 80.187ZM91.9276 81.186C91.2366 81.186 90.6966 80.98 90.3046 80.573C89.9136 80.164 89.7176 79.603 89.7176 78.887C89.7176 78.398 89.7866 77.886 89.9256 77.346C90.0646 76.807 90.2866 76.312 90.5886 75.857C90.8916 75.403 91.2826 75.028 91.7626 74.734C92.2426 74.439 92.8236 74.291 93.5056 74.291C94.1956 74.291 94.7366 74.495 95.1276 74.903C95.5196 75.312 95.7146 75.873 95.7146 76.589C95.7146 77.078 95.6456 77.591 95.5076 78.13C95.3676 78.668 95.1466 79.166 94.8436 79.62C94.5416 80.073 94.1496 80.448 93.6696 80.744C93.1896 81.037 92.6096 81.186 91.9276 81.186Z" fill="#C5DEE5"/>
<path d="M100.185 74.316C100.286 74.316 100.4 74.32 100.526 74.328C100.653 74.338 100.776 74.352 100.898 74.373C101.02 74.394 101.132 74.415 101.233 74.436C101.334 74.457 101.41 74.48 101.46 74.505L101.119 75.528C100.951 75.461 100.757 75.41 100.538 75.376C100.32 75.344 100.109 75.326 99.9076 75.326C99.7306 75.326 99.5546 75.338 99.3836 75.364C99.2106 75.39 99.0606 75.423 98.9336 75.465L97.5966 81.021H96.4216L97.9376 74.707C98.2736 74.589 98.6356 74.495 99.0226 74.424C99.4096 74.352 99.7976 74.316 100.185 74.316Z" fill="#C5DEE5"/>
<path d="M108.72 74.316C109.091 74.316 109.404 74.373 109.661 74.487C109.918 74.601 110.123 74.754 110.279 74.947C110.436 75.141 110.547 75.366 110.615 75.623C110.682 75.88 110.715 76.151 110.715 76.437C110.715 76.623 110.7 76.822 110.67 77.037C110.641 77.252 110.6 77.46 110.55 77.662L109.743 81.021H108.568L109.313 77.914C109.356 77.721 109.404 77.504 109.459 77.264C109.513 77.025 109.541 76.786 109.541 76.551C109.541 76.392 109.522 76.235 109.484 76.083C109.445 75.932 109.384 75.802 109.295 75.692C109.207 75.583 109.082 75.495 108.922 75.427C108.761 75.36 108.565 75.326 108.329 75.326C108.059 75.326 107.798 75.378 107.547 75.484C107.293 75.589 107.082 75.697 106.915 75.806C106.932 75.924 106.945 76.039 106.959 76.153C106.972 76.267 106.977 76.378 106.977 76.488C106.977 76.681 106.963 76.878 106.934 77.075C106.904 77.273 106.868 77.468 106.825 77.662L106.018 81.021H104.843L105.588 77.914C105.631 77.721 105.677 77.502 105.727 77.258C105.777 77.014 105.804 76.77 105.804 76.525C105.804 76.366 105.786 76.212 105.752 76.065C105.72 75.918 105.663 75.789 105.582 75.68C105.502 75.571 105.395 75.484 105.261 75.421C105.125 75.358 104.952 75.326 104.743 75.326C104.532 75.326 104.327 75.338 104.131 75.364C103.932 75.39 103.766 75.423 103.632 75.465L102.293 81.021H101.118L102.634 74.707C103.013 74.589 103.427 74.495 103.877 74.424C104.327 74.352 104.731 74.316 105.084 74.316C105.438 74.316 105.736 74.378 105.981 74.499C106.225 74.621 106.418 74.784 106.561 74.985C106.645 74.926 106.761 74.859 106.907 74.784C107.054 74.707 107.223 74.636 107.413 74.569C107.602 74.501 107.809 74.442 108.032 74.392C108.256 74.342 108.484 74.316 108.72 74.316Z" fill="#C5DEE5"/>
<path d="M113.19 77.573C113.678 77.557 114.124 77.525 114.528 77.478C114.932 77.432 115.281 77.352 115.576 77.239C115.871 77.125 116.1 76.973 116.264 76.778C116.428 76.586 116.51 76.332 116.51 76.02C116.51 75.945 116.496 75.864 116.466 75.78C116.436 75.698 116.386 75.62 116.315 75.548C116.243 75.477 116.144 75.416 116.018 75.37C115.891 75.325 115.735 75.302 115.55 75.302C115.256 75.302 114.98 75.364 114.723 75.491C114.467 75.618 114.237 75.784 114.036 75.989C113.833 76.195 113.661 76.436 113.518 76.709C113.375 76.982 113.265 77.27 113.19 77.573ZM114.389 81.186C113.96 81.186 113.589 81.123 113.278 81.002C112.966 80.88 112.705 80.711 112.495 80.496C112.285 80.282 112.129 80.032 112.028 79.745C111.927 79.461 111.877 79.157 111.877 78.836C111.877 78.248 111.965 77.68 112.142 77.132C112.319 76.586 112.57 76.102 112.899 75.68C113.227 75.259 113.627 74.925 114.098 74.675C114.57 74.428 115.104 74.303 115.702 74.303C116.048 74.303 116.344 74.348 116.592 74.436C116.841 74.525 117.042 74.645 117.198 74.796C117.354 74.948 117.47 75.123 117.546 75.32C117.622 75.518 117.659 75.721 117.659 75.932C117.659 76.328 117.588 76.664 117.445 76.936C117.301 77.209 117.112 77.439 116.877 77.625C116.64 77.809 116.365 77.952 116.05 78.053C115.734 78.155 115.405 78.236 115.064 78.293C114.723 78.352 114.378 78.393 114.029 78.414C113.68 78.434 113.349 78.455 113.038 78.47C113.03 78.537 113.026 78.593 113.026 78.634V78.736C113.026 78.928 113.048 79.112 113.094 79.284C113.141 79.457 113.227 79.609 113.353 79.739C113.48 79.87 113.654 79.973 113.877 80.048C114.1 80.125 114.393 80.161 114.755 80.161C114.915 80.161 115.082 80.148 115.254 80.118C115.426 80.089 115.59 80.05 115.747 80.005C115.902 79.959 116.04 79.912 116.163 79.866C116.285 79.82 116.371 79.775 116.422 79.734L116.523 80.73C116.355 80.823 116.083 80.923 115.708 81.027C115.333 81.132 114.894 81.186 114.389 81.186Z" fill="#C5DEE5"/>
<path d="M123.695 80.187C124.048 80.187 124.35 80.114 124.597 79.967C124.846 79.82 125.063 79.65 125.248 79.455C125.256 79.321 125.271 79.176 125.292 79.02C125.313 78.864 125.344 78.694 125.386 78.509L126.145 75.352C126.069 75.335 125.984 75.325 125.892 75.321C125.799 75.316 125.711 75.314 125.627 75.314C125.147 75.314 124.713 75.407 124.326 75.592C123.939 75.777 123.609 76.025 123.335 76.337C123.061 76.648 122.851 77.009 122.703 77.417C122.556 77.825 122.483 78.252 122.483 78.698C122.483 78.892 122.504 79.077 122.546 79.253C122.588 79.43 122.655 79.587 122.748 79.727C122.84 79.866 122.964 79.977 123.121 80.062C123.276 80.146 123.468 80.187 123.695 80.187ZM126.372 79.72C126.372 79.914 126.388 80.11 126.422 80.307C126.456 80.505 126.515 80.718 126.599 80.945L125.564 81.096C125.471 80.912 125.4 80.687 125.349 80.427C125.163 80.596 124.916 80.764 124.604 80.932C124.292 81.101 123.91 81.186 123.455 81.186C123.085 81.186 122.765 81.128 122.496 81.014C122.226 80.901 122.003 80.739 121.826 80.528C121.649 80.319 121.519 80.068 121.434 79.778C121.35 79.487 121.308 79.17 121.308 78.823C121.308 78.26 121.404 77.71 121.593 77.17C121.782 76.632 122.064 76.152 122.438 75.73C122.813 75.31 123.282 74.971 123.846 74.714C124.41 74.457 125.067 74.328 125.816 74.328C125.908 74.328 126.001 74.334 126.094 74.342C126.187 74.351 126.283 74.362 126.384 74.38L127.091 71.425L128.316 71.223L126.536 78.61C126.494 78.803 126.456 78.989 126.422 79.166C126.388 79.342 126.372 79.527 126.372 79.72Z" fill="#C5DEE5"/>
<path d="M129.554 77.573C130.042 77.557 130.488 77.525 130.892 77.478C131.296 77.432 131.645 77.352 131.94 77.239C132.235 77.125 132.464 76.973 132.628 76.778C132.792 76.586 132.874 76.332 132.874 76.02C132.874 75.945 132.86 75.864 132.83 75.78C132.8 75.698 132.75 75.62 132.679 75.548C132.607 75.477 132.508 75.416 132.382 75.37C132.255 75.325 132.099 75.302 131.914 75.302C131.62 75.302 131.344 75.364 131.087 75.491C130.831 75.618 130.601 75.784 130.4 75.989C130.197 76.195 130.025 76.436 129.882 76.709C129.739 76.982 129.629 77.27 129.554 77.573ZM130.753 81.186C130.324 81.186 129.953 81.123 129.642 81.002C129.33 80.88 129.069 80.711 128.859 80.496C128.649 80.282 128.493 80.032 128.392 79.745C128.291 79.461 128.241 79.157 128.241 78.836C128.241 78.248 128.329 77.68 128.506 77.132C128.683 76.586 128.934 76.102 129.263 75.68C129.591 75.259 129.991 74.925 130.462 74.675C130.934 74.428 131.468 74.303 132.066 74.303C132.412 74.303 132.708 74.348 132.956 74.436C133.205 74.525 133.406 74.645 133.562 74.796C133.718 74.948 133.834 75.123 133.91 75.32C133.986 75.518 134.023 75.721 134.023 75.932C134.023 76.328 133.952 76.664 133.809 76.936C133.665 77.209 133.476 77.439 133.241 77.625C133.004 77.809 132.729 77.952 132.414 78.053C132.098 78.155 131.769 78.236 131.428 78.293C131.087 78.352 130.742 78.393 130.394 78.414C130.044 78.434 129.713 78.455 129.402 78.47C129.394 78.537 129.39 78.593 129.39 78.634V78.736C129.39 78.928 129.412 79.112 129.458 79.284C129.505 79.457 129.591 79.609 129.717 79.739C129.844 79.87 130.018 79.973 130.241 80.048C130.464 80.125 130.757 80.161 131.119 80.161C131.279 80.161 131.446 80.148 131.618 80.118C131.79 80.089 131.954 80.05 132.111 80.005C132.266 79.959 132.404 79.912 132.527 79.866C132.649 79.82 132.735 79.775 132.786 79.734L132.887 80.73C132.719 80.823 132.447 80.923 132.073 81.027C131.697 81.132 131.258 81.186 130.753 81.186Z" fill="#C5DEE5"/>
<path d="M136.119 80.2C136.296 80.2 136.475 80.184 136.655 80.15C136.836 80.116 136.997 80.061 137.135 79.985C137.274 79.91 137.388 79.806 137.476 79.676C137.565 79.545 137.609 79.384 137.609 79.19C137.609 79.064 137.588 78.953 137.546 78.856C137.504 78.759 137.436 78.668 137.344 78.584C137.251 78.5 137.135 78.418 136.997 78.338C136.858 78.258 136.691 78.168 136.498 78.067C136.304 77.974 136.127 77.882 135.968 77.788C135.808 77.696 135.667 77.587 135.545 77.461C135.422 77.334 135.328 77.185 135.26 77.013C135.193 76.84 135.159 76.631 135.159 76.387C135.159 75.756 135.386 75.248 135.842 74.866C136.296 74.483 136.956 74.291 137.824 74.291C138.228 74.291 138.583 74.331 138.89 74.411C139.198 74.491 139.41 74.565 139.528 74.632L139.087 75.592C138.968 75.525 138.779 75.453 138.518 75.377C138.257 75.302 137.967 75.264 137.647 75.264C137.487 75.264 137.327 75.28 137.167 75.314C137.007 75.348 136.862 75.404 136.731 75.485C136.601 75.565 136.496 75.67 136.416 75.8C136.336 75.931 136.296 76.089 136.296 76.274C136.296 76.501 136.384 76.688 136.561 76.836C136.738 76.983 137.003 77.137 137.356 77.296C137.575 77.397 137.771 77.501 137.944 77.605C138.117 77.711 138.263 77.828 138.386 77.959C138.507 78.089 138.601 78.244 138.663 78.42C138.727 78.597 138.758 78.808 138.758 79.051C138.758 79.405 138.691 79.716 138.556 79.985C138.422 80.256 138.234 80.478 137.994 80.655C137.754 80.832 137.47 80.964 137.141 81.053C136.814 81.141 136.456 81.185 136.069 81.185C135.782 81.185 135.523 81.166 135.292 81.128C135.061 81.091 134.858 81.047 134.686 80.995C134.513 80.945 134.37 80.893 134.257 80.838C134.143 80.784 134.057 80.739 133.998 80.706L134.452 79.746C134.511 79.78 134.593 79.822 134.699 79.872C134.804 79.923 134.93 79.973 135.077 80.023C135.225 80.074 135.386 80.116 135.563 80.15C135.74 80.184 135.926 80.2 136.119 80.2Z" fill="#C5DEE5"/>
<path d="M143.998 80.099C144.081 80.115 144.173 80.127 144.269 80.131C144.366 80.135 144.46 80.137 144.553 80.137C145.033 80.137 145.462 80.045 145.841 79.86C146.22 79.674 146.542 79.424 146.807 79.107C147.072 78.792 147.276 78.43 147.42 78.022C147.563 77.613 147.634 77.187 147.634 76.74C147.634 76.555 147.613 76.374 147.571 76.197C147.529 76.021 147.451 75.865 147.338 75.73C147.223 75.595 147.07 75.488 146.876 75.408C146.683 75.328 146.434 75.288 146.131 75.288C145.921 75.288 145.727 75.308 145.551 75.346C145.374 75.383 145.227 75.419 145.109 75.452L143.998 80.099ZM146.422 74.29C146.834 74.29 147.19 74.35 147.489 74.468C147.788 74.585 148.034 74.748 148.227 74.954C148.421 75.16 148.566 75.404 148.663 75.686C148.76 75.968 148.808 76.278 148.808 76.614C148.808 77.195 148.72 77.757 148.543 78.3C148.366 78.842 148.095 79.324 147.729 79.746C147.362 80.167 146.9 80.503 146.34 80.756C145.78 81.008 145.117 81.135 144.351 81.135C144.258 81.135 144.157 81.13 144.048 81.121C143.938 81.113 143.842 81.101 143.758 81.083L143.215 83.356H142.041L144.111 74.733C144.465 74.589 144.85 74.48 145.267 74.404C145.683 74.328 146.068 74.29 146.422 74.29Z" fill="#C5DEE5"/>
<path d="M153.252 74.316C153.354 74.316 153.467 74.32 153.593 74.328C153.72 74.338 153.844 74.352 153.966 74.373C154.087 74.394 154.199 74.415 154.3 74.436C154.402 74.457 154.477 74.48 154.528 74.505L154.187 75.528C154.019 75.461 153.824 75.41 153.607 75.376C153.387 75.344 153.177 75.326 152.975 75.326C152.798 75.326 152.623 75.338 152.451 75.364C152.278 75.39 152.129 75.423 152.003 75.465L150.664 81.021H149.49L151.005 74.707C151.342 74.589 151.704 74.495 152.091 74.424C152.478 74.352 152.866 74.316 153.252 74.316Z" fill="#C5DEE5"/>
<path d="M156.838 80.187C157.217 80.187 157.555 80.078 157.854 79.86C158.153 79.641 158.406 79.361 158.613 79.02C158.818 78.68 158.976 78.302 159.085 77.889C159.195 77.477 159.25 77.078 159.25 76.689C159.25 76.261 159.157 75.921 158.972 75.668C158.786 75.414 158.467 75.289 158.012 75.289C157.633 75.289 157.294 75.398 156.996 75.618C156.697 75.836 156.444 76.116 156.238 76.457C156.032 76.798 155.874 77.173 155.765 77.587C155.655 77.998 155.601 78.398 155.601 78.786C155.601 79.216 155.693 79.557 155.878 79.809C156.063 80.062 156.384 80.187 156.838 80.187ZM156.636 81.186C155.946 81.186 155.405 80.98 155.013 80.573C154.623 80.164 154.426 79.603 154.426 78.887C154.426 78.398 154.496 77.886 154.635 77.346C154.774 76.807 154.995 76.312 155.298 75.857C155.601 75.403 155.992 75.028 156.472 74.734C156.952 74.439 157.533 74.291 158.214 74.291C158.904 74.291 159.446 74.495 159.836 74.903C160.228 75.312 160.424 75.873 160.424 76.589C160.424 77.078 160.354 77.591 160.216 78.13C160.077 78.668 159.856 79.166 159.553 79.62C159.25 80.073 158.858 80.448 158.378 80.744C157.898 81.037 157.318 81.186 156.636 81.186Z" fill="#C5DEE5"/>
<path d="M162.772 80.2C162.949 80.2 163.128 80.184 163.308 80.15C163.489 80.116 163.65 80.061 163.788 79.985C163.927 79.91 164.041 79.806 164.129 79.676C164.218 79.545 164.262 79.384 164.262 79.19C164.262 79.064 164.241 78.953 164.199 78.856C164.157 78.759 164.089 78.668 163.997 78.584C163.904 78.5 163.788 78.418 163.65 78.338C163.511 78.258 163.344 78.168 163.151 78.067C162.957 77.974 162.78 77.882 162.621 77.788C162.461 77.696 162.32 77.587 162.198 77.461C162.075 77.334 161.981 77.185 161.913 77.013C161.846 76.84 161.812 76.631 161.812 76.387C161.812 75.756 162.039 75.248 162.495 74.866C162.949 74.483 163.609 74.291 164.477 74.291C164.881 74.291 165.236 74.331 165.543 74.411C165.851 74.491 166.063 74.565 166.181 74.632L165.74 75.592C165.621 75.525 165.432 75.453 165.171 75.377C164.91 75.302 164.62 75.264 164.3 75.264C164.14 75.264 163.98 75.28 163.82 75.314C163.66 75.348 163.515 75.404 163.384 75.485C163.254 75.565 163.149 75.67 163.069 75.8C162.989 75.931 162.949 76.089 162.949 76.274C162.949 76.501 163.037 76.688 163.214 76.836C163.391 76.983 163.656 77.137 164.009 77.296C164.228 77.397 164.424 77.501 164.597 77.605C164.77 77.711 164.916 77.828 165.039 77.959C165.16 78.089 165.254 78.244 165.316 78.42C165.38 78.597 165.411 78.808 165.411 79.051C165.411 79.405 165.344 79.716 165.209 79.985C165.075 80.256 164.887 80.478 164.647 80.655C164.407 80.832 164.123 80.964 163.794 81.053C163.467 81.141 163.109 81.185 162.722 81.185C162.435 81.185 162.176 81.166 161.945 81.128C161.714 81.091 161.511 81.047 161.339 80.995C161.166 80.945 161.023 80.893 160.91 80.838C160.796 80.784 160.71 80.739 160.651 80.706L161.105 79.746C161.164 79.78 161.246 79.822 161.352 79.872C161.457 79.923 161.583 79.973 161.73 80.023C161.878 80.074 162.039 80.116 162.216 80.15C162.393 80.184 162.579 80.2 162.772 80.2Z" fill="#C5DEE5"/>
<path d="M171.913 80.187C172.266 80.187 172.568 80.114 172.816 79.967C173.065 79.82 173.282 79.65 173.467 79.455C173.475 79.321 173.489 79.176 173.511 79.02C173.531 78.864 173.563 78.694 173.605 78.509L174.363 75.352C174.288 75.335 174.203 75.325 174.111 75.321C174.017 75.316 173.929 75.314 173.845 75.314C173.366 75.314 172.932 75.407 172.545 75.592C172.158 75.777 171.827 76.025 171.553 76.337C171.28 76.648 171.069 77.009 170.922 77.417C170.774 77.825 170.702 78.252 170.702 78.698C170.702 78.892 170.722 79.077 170.764 79.253C170.806 79.43 170.874 79.587 170.967 79.727C171.059 79.866 171.183 79.977 171.339 80.062C171.495 80.146 171.686 80.187 171.913 80.187ZM174.59 79.72C174.59 79.914 174.607 80.11 174.641 80.307C174.674 80.505 174.734 80.718 174.818 80.945L173.782 81.096C173.69 80.912 173.618 80.687 173.567 80.427C173.382 80.596 173.134 80.764 172.822 80.932C172.511 81.101 172.128 81.186 171.674 81.186C171.303 81.186 170.983 81.128 170.714 81.014C170.445 80.901 170.222 80.739 170.045 80.528C169.868 80.319 169.738 80.068 169.653 79.778C169.569 79.487 169.527 79.17 169.527 78.823C169.527 78.26 169.622 77.71 169.811 77.17C170.001 76.632 170.282 76.152 170.657 75.73C171.031 75.31 171.501 74.971 172.065 74.714C172.629 74.457 173.286 74.328 174.035 74.328C174.127 74.328 174.22 74.334 174.312 74.342C174.405 74.351 174.501 74.362 174.603 74.38L175.31 71.425L176.535 71.223L174.754 78.61C174.712 78.803 174.674 78.989 174.641 79.166C174.607 79.342 174.59 79.527 174.59 79.72Z" fill="#C5DEE5"/>
<path d="M177.772 77.573C178.26 77.557 178.706 77.525 179.111 77.478C179.515 77.432 179.864 77.352 180.158 77.239C180.453 77.125 180.682 76.973 180.846 76.778C181.011 76.586 181.093 76.332 181.093 76.02C181.093 75.945 181.078 75.864 181.049 75.78C181.019 75.698 180.969 75.62 180.897 75.548C180.826 75.477 180.726 75.416 180.601 75.37C180.474 75.325 180.318 75.302 180.133 75.302C179.838 75.302 179.563 75.364 179.306 75.491C179.049 75.618 178.82 75.784 178.618 75.989C178.416 76.195 178.244 76.436 178.1 76.709C177.957 76.982 177.848 77.27 177.772 77.573ZM178.971 81.186C178.543 81.186 178.172 81.123 177.86 81.002C177.549 80.88 177.288 80.711 177.077 80.496C176.867 80.282 176.712 80.032 176.611 79.745C176.509 79.461 176.459 79.157 176.459 78.836C176.459 78.248 176.547 77.68 176.724 77.132C176.901 76.586 177.153 76.102 177.481 75.68C177.81 75.259 178.21 74.925 178.681 74.675C179.152 74.428 179.687 74.303 180.284 74.303C180.63 74.303 180.927 74.348 181.175 74.436C181.423 74.525 181.625 74.645 181.78 74.796C181.937 74.948 182.053 75.123 182.128 75.32C182.204 75.518 182.242 75.721 182.242 75.932C182.242 76.328 182.17 76.664 182.027 76.936C181.884 77.209 181.694 77.439 181.459 77.625C181.223 77.809 180.947 77.952 180.632 78.053C180.316 78.155 179.988 78.236 179.647 78.293C179.306 78.352 178.961 78.393 178.611 78.414C178.262 78.434 177.932 78.455 177.621 78.47C177.612 78.537 177.608 78.593 177.608 78.634V78.736C177.608 78.928 177.631 79.112 177.677 79.284C177.724 79.457 177.81 79.609 177.936 79.739C178.063 79.87 178.237 79.973 178.46 80.048C178.683 80.125 178.975 80.161 179.338 80.161C179.497 80.161 179.664 80.148 179.836 80.118C180.009 80.089 180.173 80.05 180.329 80.005C180.485 79.959 180.623 79.912 180.746 79.866C180.867 79.82 180.954 79.775 181.005 79.734L181.105 80.73C180.937 80.823 180.666 80.923 180.29 81.027C179.916 81.132 179.477 81.186 178.971 81.186Z" fill="#C5DEE5"/>
<path d="M187.368 78.129C187.326 78.314 187.284 78.495 187.242 78.672C187.199 78.848 187.178 79.018 187.178 79.177C187.178 79.464 187.248 79.691 187.386 79.859C187.525 80.027 187.784 80.134 188.163 80.175L187.898 81.136C187.553 81.125 187.26 81.073 187.021 80.977C186.781 80.88 186.587 80.752 186.44 80.591C186.292 80.432 186.185 80.243 186.117 80.023C186.05 79.804 186.017 79.564 186.017 79.303C186.017 79.109 186.033 78.909 186.067 78.697C186.101 78.487 186.147 78.268 186.206 78.041L187.796 71.424L189.021 71.223" fill="#C5DEE5"/>
<path d="M191.559 80.187C191.913 80.187 192.216 80.112 192.469 79.961C192.722 79.809 192.941 79.632 193.125 79.43C193.134 79.287 193.148 79.137 193.17 78.982C193.191 78.827 193.218 78.668 193.252 78.509L194.009 75.377C193.968 75.361 193.898 75.348 193.802 75.339C193.705 75.33 193.618 75.327 193.543 75.327C193.063 75.327 192.63 75.419 192.241 75.603C191.855 75.789 191.523 76.036 191.25 76.343C190.977 76.65 190.766 77.009 190.62 77.417C190.472 77.825 190.398 78.252 190.398 78.698C190.398 78.875 190.415 79.053 190.448 79.234C190.482 79.416 190.544 79.576 190.632 79.714C190.721 79.853 190.839 79.967 190.986 80.055C191.132 80.144 191.325 80.187 191.559 80.187ZM193.441 81.096C193.398 81.005 193.357 80.901 193.316 80.787C193.273 80.673 193.24 80.553 193.214 80.427C193.029 80.596 192.781 80.764 192.469 80.932C192.157 81.101 191.775 81.186 191.321 81.186C190.95 81.186 190.632 81.126 190.366 81.009C190.102 80.891 189.884 80.726 189.716 80.516C189.548 80.305 189.423 80.057 189.345 79.771C189.264 79.485 189.223 79.17 189.223 78.823C189.223 78.26 189.319 77.71 189.507 77.17C189.698 76.632 189.982 76.152 190.361 75.73C190.74 75.31 191.215 74.969 191.787 74.707C192.359 74.446 193.029 74.317 193.795 74.317C194.023 74.317 194.288 74.342 194.591 74.393C194.894 74.443 195.154 74.527 195.373 74.645L194.4 78.61C194.359 78.803 194.323 78.989 194.294 79.166C194.264 79.342 194.25 79.527 194.25 79.72C194.25 79.914 194.266 80.11 194.3 80.307C194.334 80.505 194.393 80.718 194.477 80.945" fill="#C5DEE5"/>
<path d="M200.133 80.099C200.217 80.115 200.308 80.127 200.404 80.131C200.501 80.135 200.595 80.137 200.69 80.137C201.168 80.137 201.597 80.045 201.976 79.86C202.356 79.674 202.677 79.424 202.942 79.107C203.207 78.792 203.413 78.43 203.556 78.022C203.698 77.613 203.77 77.187 203.77 76.74C203.77 76.555 203.748 76.374 203.706 76.197C203.665 76.021 203.588 75.865 203.473 75.73C203.358 75.595 203.206 75.488 203.013 75.408C202.818 75.328 202.57 75.288 202.267 75.288C202.057 75.288 201.863 75.308 201.686 75.346C201.509 75.383 201.363 75.419 201.245 75.452L200.133 80.099ZM202.557 74.29C202.97 74.29 203.326 74.35 203.624 74.468C203.923 74.585 204.17 74.748 204.363 74.954C204.557 75.16 204.701 75.404 204.798 75.686C204.895 75.968 204.945 76.278 204.945 76.614C204.945 77.195 204.856 77.757 204.679 78.3C204.502 78.842 204.231 79.324 203.865 79.746C203.498 80.167 203.036 80.503 202.475 80.756C201.915 81.008 201.252 81.135 200.486 81.135C200.395 81.135 200.292 81.13 200.183 81.121C200.073 81.113 199.977 81.101 199.893 81.083L199.35 83.356H198.176L200.247 74.733C200.601 74.589 200.986 74.48 201.402 74.404C201.818 74.328 202.204 74.29 202.557 74.29Z" fill="#C5DEE5"/>
<path d="M207.242 77.573C207.73 77.557 208.176 77.525 208.58 77.478C208.984 77.432 209.333 77.352 209.628 77.239C209.923 77.125 210.152 76.973 210.316 76.778C210.481 76.586 210.562 76.332 210.562 76.02C210.562 75.945 210.548 75.864 210.518 75.78C210.489 75.698 210.439 75.62 210.367 75.548C210.295 75.477 210.196 75.416 210.07 75.37C209.943 75.325 209.788 75.302 209.603 75.302C209.308 75.302 209.033 75.364 208.776 75.491C208.519 75.618 208.29 75.784 208.088 75.989C207.885 76.195 207.713 76.436 207.57 76.709C207.427 76.982 207.317 77.27 207.242 77.573ZM208.441 81.186C208.012 81.186 207.642 81.123 207.33 81.002C207.019 80.88 206.758 80.711 206.547 80.496C206.337 80.282 206.182 80.032 206.08 79.745C205.979 79.461 205.929 79.157 205.929 78.836C205.929 78.248 206.017 77.68 206.194 77.132C206.371 76.586 206.623 76.102 206.951 75.68C207.28 75.259 207.68 74.925 208.15 74.675C208.622 74.428 209.156 74.303 209.754 74.303C210.1 74.303 210.397 74.348 210.644 74.436C210.893 74.525 211.095 74.645 211.25 74.796C211.407 74.948 211.522 75.123 211.598 75.32C211.674 75.518 211.712 75.721 211.712 75.932C211.712 76.328 211.64 76.664 211.497 76.936C211.353 77.209 211.164 77.439 210.929 77.625C210.692 77.809 210.417 77.952 210.102 78.053C209.786 78.155 209.457 78.236 209.117 78.293C208.776 78.352 208.431 78.393 208.081 78.414C207.732 78.434 207.401 78.455 207.09 78.47C207.082 78.537 207.078 78.593 207.078 78.634V78.736C207.078 78.928 207.1 79.112 207.147 79.284C207.194 79.457 207.28 79.609 207.405 79.739C207.532 79.87 207.706 79.973 207.929 80.048C208.152 80.125 208.445 80.161 208.807 80.161C208.967 80.161 209.134 80.148 209.306 80.118C209.479 80.089 209.642 80.05 209.799 80.005C209.955 79.959 210.093 79.912 210.216 79.866C210.337 79.82 210.423 79.775 210.474 79.734L210.575 80.73C210.407 80.823 210.136 80.923 209.76 81.027C209.386 81.132 208.947 81.186 208.441 81.186Z" fill="#C5DEE5"/>
<path d="M214.413 81.198C213.782 81.198 213.319 81.059 213.024 80.782C212.73 80.503 212.582 80.1 212.582 79.569C212.582 79.223 212.642 78.782 212.759 78.244L214.11 72.623L215.335 72.423L214.843 74.455H217.077L216.837 75.441H214.602L213.908 78.345C213.807 78.739 213.756 79.085 213.756 79.38C213.756 79.657 213.832 79.857 213.983 79.978C214.136 80.102 214.388 80.162 214.742 80.162C214.985 80.162 215.226 80.123 215.461 80.043C215.696 79.962 215.878 79.889 216.004 79.821L216.092 80.819C215.967 80.895 215.752 80.977 215.449 81.064C215.146 81.153 214.8 81.198 214.413 81.198Z" fill="#C5DEE5"/>
<path d="M219.616 73.268C219.422 73.268 219.259 73.209 219.129 73.091C218.998 72.974 218.934 72.81 218.934 72.599C218.934 72.33 219.018 72.117 219.186 71.961C219.354 71.806 219.543 71.728 219.754 71.728C219.948 71.728 220.111 71.789 220.247 71.911C220.382 72.033 220.448 72.203 220.448 72.422C220.448 72.675 220.361 72.879 220.184 73.035C220.007 73.191 219.816 73.268 219.616 73.268ZM218.252 81.021H217.077L218.656 74.455H219.831" fill="#C5DEE5"/>
<path d="M222.469 81.198C221.838 81.198 221.375 81.059 221.08 80.782C220.786 80.503 220.638 80.1 220.638 79.569C220.638 79.223 220.698 78.782 220.815 78.244L222.166 72.623L223.391 72.423L222.899 74.455H225.133L224.893 75.441H222.658L221.964 78.345C221.863 78.739 221.812 79.085 221.812 79.38C221.812 79.657 221.888 79.857 222.039 79.978C222.192 80.102 222.444 80.162 222.798 80.162C223.041 80.162 223.282 80.123 223.517 80.043C223.752 79.962 223.934 79.889 224.06 79.821L224.148 80.819C224.023 80.895 223.808 80.977 223.505 81.064C223.202 81.153 222.856 81.198 222.469 81.198Z" fill="#C5DEE5"/>
<path d="M226.686 77.573C227.174 77.557 227.62 77.525 228.024 77.478C228.428 77.432 228.777 77.352 229.072 77.239C229.367 77.125 229.596 76.973 229.76 76.778C229.925 76.586 230.006 76.332 230.006 76.02C230.006 75.945 229.992 75.864 229.962 75.78C229.933 75.698 229.883 75.62 229.811 75.548C229.739 75.477 229.64 75.416 229.514 75.37C229.387 75.325 229.232 75.302 229.047 75.302C228.752 75.302 228.477 75.364 228.22 75.491C227.963 75.618 227.734 75.784 227.532 75.989C227.329 76.195 227.157 76.436 227.014 76.709C226.871 76.982 226.761 77.27 226.686 77.573ZM227.885 81.186C227.456 81.186 227.086 81.123 226.774 81.002C226.463 80.88 226.202 80.711 225.991 80.496C225.781 80.282 225.626 80.032 225.524 79.745C225.423 79.461 225.373 79.157 225.373 78.836C225.373 78.248 225.461 77.68 225.638 77.132C225.815 76.586 226.067 76.102 226.395 75.68C226.724 75.259 227.124 74.925 227.594 74.675C228.066 74.428 228.6 74.303 229.198 74.303C229.544 74.303 229.841 74.348 230.088 74.436C230.337 74.525 230.539 74.645 230.694 74.796C230.851 74.948 230.966 75.123 231.042 75.32C231.118 75.518 231.156 75.721 231.156 75.932C231.156 76.328 231.084 76.664 230.941 76.936C230.797 77.209 230.608 77.439 230.373 77.625C230.136 77.809 229.861 77.952 229.546 78.053C229.23 78.155 228.901 78.236 228.561 78.293C228.22 78.352 227.875 78.393 227.526 78.414C227.176 78.434 226.845 78.455 226.534 78.47C226.526 78.537 226.522 78.593 226.522 78.634V78.736C226.522 78.928 226.544 79.112 226.591 79.284C226.638 79.457 226.724 79.609 226.849 79.739C226.976 79.87 227.15 79.973 227.373 80.048C227.596 80.125 227.889 80.161 228.251 80.161C228.411 80.161 228.578 80.148 228.75 80.118C228.923 80.089 229.086 80.05 229.243 80.005C229.399 79.959 229.537 79.912 229.66 79.866C229.781 79.82 229.867 79.775 229.918 79.734L230.019 80.73C229.851 80.823 229.58 80.923 229.204 81.027C228.83 81.132 228.391 81.186 227.885 81.186Z" fill="#C5DEE5"/>
<path d="M236.143 77.573C236.631 77.557 237.077 77.525 237.481 77.478C237.884 77.432 238.234 77.352 238.529 77.239C238.823 77.125 239.052 76.973 239.216 76.778C239.382 76.586 239.463 76.332 239.463 76.02C239.463 75.945 239.448 75.864 239.418 75.78C239.39 75.698 239.34 75.62 239.268 75.548C239.195 75.477 239.097 75.416 238.97 75.37C238.843 75.325 238.688 75.302 238.504 75.302C238.209 75.302 237.934 75.364 237.677 75.491C237.42 75.618 237.191 75.784 236.988 75.989C236.786 76.195 236.613 76.436 236.47 76.709C236.327 76.982 236.218 77.27 236.143 77.573ZM237.341 81.186C236.913 81.186 236.543 81.123 236.231 81.002C235.92 80.88 235.659 80.711 235.448 80.496C235.238 80.282 235.082 80.032 234.981 79.745C234.879 79.461 234.829 79.157 234.829 78.836C234.829 78.248 234.918 77.68 235.095 77.132C235.272 76.586 235.523 76.102 235.852 75.68C236.181 75.259 236.581 74.925 237.05 74.675C237.523 74.428 238.057 74.303 238.654 74.303C239 74.303 239.298 74.348 239.545 74.436C239.793 74.525 239.995 74.645 240.15 74.796C240.307 74.948 240.423 75.123 240.498 75.32C240.575 75.518 240.613 75.721 240.613 75.932C240.613 76.328 240.541 76.664 240.398 76.936C240.254 77.209 240.065 77.439 239.829 77.625C239.593 77.809 239.318 77.952 239.002 78.053C238.686 78.155 238.357 78.236 238.018 78.293C237.677 78.352 237.332 78.393 236.982 78.414C236.632 78.434 236.302 78.455 235.991 78.47C235.982 78.537 235.979 78.593 235.979 78.634V78.736C235.979 78.928 236 79.112 236.048 79.284C236.095 79.457 236.181 79.609 236.306 79.739C236.432 79.87 236.607 79.973 236.829 80.048C237.052 80.125 237.345 80.161 237.707 80.161C237.868 80.161 238.034 80.148 238.207 80.118C238.379 80.089 238.543 80.05 238.7 80.005C238.856 79.959 238.993 79.912 239.116 79.866C239.238 79.82 239.323 79.775 239.375 79.734L239.475 80.73C239.307 80.823 239.036 80.923 238.661 81.027C238.286 81.132 237.848 81.186 237.341 81.186Z" fill="#C5DEE5"/>
<path d="M242.241 81.021H241.067L242.581 74.708C242.969 74.59 243.388 74.495 243.838 74.424C244.288 74.352 244.691 74.316 245.044 74.316C245.422 74.316 245.749 74.369 246.022 74.475C246.296 74.579 246.517 74.722 246.685 74.903C246.854 75.085 246.978 75.304 247.058 75.56C247.137 75.817 247.177 76.097 247.177 76.4C247.177 76.593 247.161 76.798 247.127 77.013C247.093 77.226 247.051 77.443 247.001 77.662L246.193 81.021H245.018L245.763 77.915C245.822 77.679 245.88 77.439 245.934 77.195C245.988 76.951 246.016 76.72 246.016 76.501C246.016 76.164 245.924 75.884 245.738 75.661C245.553 75.438 245.208 75.326 244.703 75.326C244.492 75.326 244.286 75.339 244.084 75.364C243.882 75.39 243.713 75.423 243.579 75.465" fill="#C5DEE5"/>
<path d="M250.777 74.455H252.974L252.747 75.44H250.549L249.539 79.607C249.438 80.037 249.35 80.419 249.274 80.756C249.199 81.093 249.108 81.408 249.002 81.703C248.898 81.997 248.759 82.282 248.586 82.555C248.414 82.828 248.179 83.113 247.886 83.407L246.85 83.256C247.103 82.927 247.3 82.65 247.444 82.423C247.587 82.195 247.707 81.963 247.803 81.728C247.9 81.493 247.984 81.22 248.056 80.914C248.127 80.607 248.222 80.209 248.34 79.72L249.741 73.862C249.842 73.441 249.97 73.067 250.127 72.738C250.282 72.41 250.48 72.134 250.719 71.911C250.96 71.688 251.244 71.517 251.572 71.4C251.9 71.282 252.292 71.223 252.747 71.223C253.041 71.223 253.321 71.252 253.586 71.312C253.851 71.37 254.051 71.433 254.185 71.501L253.719 72.435C253.651 72.402 253.536 72.359 253.372 72.308C253.207 72.258 252.966 72.233 252.645 72.233C252.368 72.233 252.132 72.274 251.938 72.353C251.745 72.433 251.581 72.545 251.446 72.688C251.311 72.83 251.203 73.003 251.124 73.206C251.044 73.407 250.974 73.635 250.916 73.887" fill="#C5DEE5"/>
<path d="M255.284 80.187C255.638 80.187 255.941 80.112 256.193 79.961C256.445 79.809 256.665 79.632 256.85 79.43C256.857 79.287 256.873 79.137 256.893 78.982C256.916 78.827 256.941 78.668 256.975 78.509L257.734 75.377C257.691 75.361 257.622 75.348 257.525 75.339C257.427 75.33 257.341 75.327 257.266 75.327C256.786 75.327 256.354 75.419 255.966 75.603C255.579 75.789 255.248 76.036 254.975 76.343C254.7 76.65 254.491 77.009 254.343 77.417C254.197 77.825 254.122 78.252 254.122 78.698C254.122 78.875 254.138 79.053 254.172 79.234C254.207 79.416 254.268 79.576 254.356 79.714C254.443 79.853 254.563 79.967 254.709 80.055C254.857 80.144 255.048 80.187 255.284 80.187ZM257.165 81.096C257.122 81.005 257.081 80.901 257.04 80.787C256.997 80.673 256.963 80.553 256.938 80.427C256.752 80.596 256.504 80.764 256.193 80.932C255.882 81.101 255.498 81.186 255.045 81.186C254.673 81.186 254.356 81.126 254.091 81.009C253.825 80.891 253.609 80.726 253.441 80.516C253.272 80.305 253.148 80.057 253.068 79.771C252.988 79.485 252.947 79.17 252.947 78.823C252.947 78.26 253.043 77.71 253.232 77.17C253.422 76.632 253.707 76.152 254.084 75.73C254.463 75.31 254.94 74.969 255.511 74.707C256.084 74.446 256.752 74.317 257.518 74.317C257.747 74.317 258.011 74.342 258.315 74.393C258.618 74.443 258.877 74.527 259.097 74.645L258.125 78.61C258.082 78.803 258.047 78.989 258.018 79.166C257.988 79.342 257.973 79.527 257.973 79.72C257.973 79.914 257.991 80.11 258.023 80.307C258.057 80.505 258.116 80.718 258.2 80.945" fill="#C5DEE5"/>
<path d="M260.714 81.021H259.54L261.054 74.708C261.441 74.59 261.861 74.495 262.311 74.424C262.761 74.352 263.164 74.316 263.517 74.316C263.895 74.316 264.222 74.369 264.495 74.475C264.769 74.579 264.99 74.722 265.158 74.903C265.327 75.085 265.451 75.304 265.531 75.56C265.61 75.817 265.65 76.097 265.65 76.4C265.65 76.593 265.634 76.798 265.6 77.013C265.566 77.226 265.524 77.443 265.474 77.662L264.666 81.021H263.491L264.236 77.915C264.295 77.679 264.352 77.439 264.407 77.195C264.461 76.951 264.489 76.72 264.489 76.501C264.489 76.164 264.397 75.884 264.211 75.661C264.026 75.438 263.68 75.326 263.176 75.326C262.965 75.326 262.759 75.339 262.557 75.364C262.355 75.39 262.186 75.423 262.052 75.465" fill="#C5DEE5"/>
<path d="M266.8 78.672C266.8 78.1 266.886 77.549 267.059 77.019C267.232 76.488 267.485 76.021 267.822 75.617C268.159 75.213 268.571 74.891 269.06 74.651C269.548 74.411 270.108 74.291 270.74 74.291C271.017 74.291 271.282 74.31 271.535 74.348C271.788 74.386 272.027 74.459 272.254 74.569L271.812 75.553C271.678 75.478 271.519 75.419 271.339 75.377C271.158 75.335 270.925 75.314 270.638 75.314C270.226 75.314 269.855 75.404 269.527 75.585C269.199 75.766 268.919 76.007 268.688 76.305C268.455 76.604 268.279 76.949 268.157 77.34C268.035 77.732 267.974 78.138 267.974 78.559C267.974 78.778 267.997 78.984 268.043 79.178C268.09 79.371 268.172 79.541 268.29 79.689C268.407 79.836 268.565 79.952 268.764 80.037C268.961 80.121 269.212 80.162 269.515 80.162C269.666 80.162 269.826 80.148 269.995 80.118C270.162 80.089 270.318 80.053 270.461 80.011C270.605 79.969 270.733 79.925 270.846 79.878C270.961 79.832 271.043 79.788 271.093 79.746L271.194 80.744C271.033 80.844 270.786 80.943 270.449 81.039C270.112 81.137 269.73 81.185 269.3 81.185C268.896 81.185 268.538 81.124 268.226 81.002C267.915 80.88 267.654 80.708 267.443 80.485C267.234 80.262 267.073 79.996 266.964 79.689C266.854 79.382 266.8 79.043 266.8 78.672Z" fill="#C5DEE5"/>
<path d="M273.682 77.573C274.17 77.557 274.616 77.525 275.02 77.478C275.423 77.432 275.772 77.352 276.068 77.239C276.363 77.125 276.591 76.973 276.756 76.778C276.92 76.586 277.002 76.332 277.002 76.02C277.002 75.945 276.988 75.864 276.957 75.78C276.929 75.698 276.879 75.62 276.807 75.548C276.734 75.477 276.636 75.416 276.509 75.37C276.382 75.325 276.227 75.302 276.043 75.302C275.747 75.302 275.472 75.364 275.216 75.491C274.959 75.618 274.729 75.784 274.527 75.989C274.325 76.195 274.152 76.436 274.009 76.709C273.866 76.982 273.757 77.27 273.682 77.573ZM274.881 81.186C274.452 81.186 274.082 81.123 273.77 81.002C273.459 80.88 273.197 80.711 272.986 80.496C272.777 80.282 272.622 80.032 272.52 79.745C272.418 79.461 272.368 79.157 272.368 78.836C272.368 78.248 272.457 77.68 272.634 77.132C272.811 76.586 273.063 76.102 273.391 75.68C273.72 75.259 274.12 74.925 274.59 74.675C275.061 74.428 275.595 74.303 276.193 74.303C276.54 74.303 276.836 74.348 277.084 74.436C277.332 74.525 277.534 74.645 277.69 74.796C277.847 74.948 277.961 75.123 278.038 75.32C278.113 75.518 278.152 75.721 278.152 75.932C278.152 76.328 278.079 76.664 277.936 76.936C277.793 77.209 277.604 77.439 277.368 77.625C277.132 77.809 276.857 77.952 276.541 78.053C276.225 78.155 275.897 78.236 275.557 78.293C275.216 78.352 274.87 78.393 274.52 78.414C274.172 78.434 273.841 78.455 273.529 78.47C273.522 78.537 273.518 78.593 273.518 78.634V78.736C273.518 78.928 273.54 79.112 273.586 79.284C273.634 79.457 273.72 79.609 273.845 79.739C273.972 79.87 274.145 79.973 274.368 80.048C274.591 80.125 274.884 80.161 275.247 80.161C275.407 80.161 275.573 80.148 275.745 80.118C275.918 80.089 276.082 80.05 276.238 80.005C276.395 79.959 276.532 79.912 276.656 79.866C276.777 79.82 276.863 79.775 276.913 79.734L277.015 80.73C276.847 80.823 276.575 80.923 276.2 81.027C275.825 81.132 275.386 81.186 274.881 81.186Z" fill="#C5DEE5"/>
</svg>
