<svg width="103" height="103" viewBox="0 0 103 103" fill="none" xmlns="http://www.w3.org/2000/svg">
<path d="M102.265 51.6298C101.844 47.6358 100.056 44.0618 97.319 41.1698C98.538 35.5188 97.567 29.8208 94.108 25.3948C91.637 22.2308 88.225 20.1468 84.371 19.1458C82.41 13.7068 78.5671 9.38877 73.2891 7.46777C69.5161 6.09477 65.517 6.13676 61.719 7.32876C57.175 3.75676 51.628 2.12975 46.133 3.29875C42.206 4.13375 38.838 6.28676 36.248 9.31076C30.501 8.68876 24.935 10.2508 20.894 14.1528C18.007 16.9428 16.2911 20.5528 15.6971 24.4908C10.4941 27.0078 6.60103 31.2808 5.24203 36.7318C4.27103 40.6288 4.73002 44.5978 6.31302 48.2518C3.23502 53.1448 2.19804 58.8317 3.93304 64.1747C5.17504 67.9937 7.66903 71.1188 10.948 73.3768C10.93 79.1578 13.064 84.5298 17.367 88.1398C21.341 91.4748 26.474 92.7238 31.717 92.0918C35.441 98.3358 41.492 102.402 48.331 102.402C52.346 102.402 56.089 100.996 59.25 98.5757C64.742 100.38 70.51 100.01 75.275 97.0328C78.68 94.9048 81.108 91.7297 82.508 88.0007C88.122 86.6197 92.8171 83.2497 95.2801 78.2018C97.0401 74.5918 97.4171 70.6108 96.6281 66.7088C100.656 62.5628 102.851 57.2168 102.265 51.6298Z" fill="#C5DEE5"/>
<path d="M99.1701 48.7057C98.7501 44.7117 96.9611 41.1378 94.2241 38.2458C95.4431 32.5948 94.4721 26.8968 91.0141 22.4708C88.5421 19.3068 85.1301 17.2228 81.2761 16.2218C79.3151 10.7828 75.4731 6.46476 70.1941 4.54376C66.4211 3.17076 62.4231 3.21275 58.6241 4.40475C54.0801 0.832745 48.533 -0.794259 43.038 0.37474C39.111 1.20974 35.7431 3.36275 33.1531 6.38675C27.4061 5.76475 21.8411 7.32674 17.8001 11.2287C14.9121 14.0187 13.1961 17.6288 12.6021 21.5668C7.39906 24.0838 3.50605 28.3567 2.14805 33.8077C1.17605 37.7047 1.63507 41.6737 3.21807 45.3277C0.140072 50.2207 -0.896932 55.9077 0.839068 61.2507C2.08007 65.0697 4.57408 68.1947 7.85308 70.4527C7.83508 76.2337 9.96905 81.6058 14.2731 85.2158C18.2461 88.5508 23.3791 89.7998 28.6221 89.1678C32.3461 95.4118 38.3981 99.4777 45.2361 99.4777C49.2511 99.4777 52.9941 98.0717 56.1551 95.6517C61.6481 97.4557 67.4161 97.0857 72.1801 94.1087C75.5851 91.9807 78.014 88.8057 79.413 85.0767C85.027 83.6957 89.7221 80.3257 92.1851 75.2777C93.9451 71.6677 94.3221 67.6867 93.5331 63.7847C97.5611 59.6387 99.7571 54.2927 99.1701 48.7057Z" fill="#558CC9"/>
<path d="M27.609 33.5548H29.443C29.955 33.5548 30.394 33.4748 30.759 33.3158C31.124 33.1558 31.42 32.9518 31.647 32.7028C31.873 32.4528 32.041 32.1678 32.149 31.8488C32.258 31.5298 32.312 31.2008 32.312 30.8618C32.312 30.5428 32.268 30.2378 32.179 29.9488C32.09 29.6598 31.957 29.4048 31.78 29.1858C31.602 28.9658 31.37 28.7858 31.085 28.6468C30.798 28.5068 30.449 28.4378 30.035 28.4378H27.609V33.5548ZM27.609 37.5488V43.8198H22.846V24.4438H30.893C32.115 24.4438 33.135 24.6168 33.954 24.9618C34.772 25.3068 35.433 25.7698 35.936 26.3518C36.439 26.9338 36.798 27.5938 37.016 28.3338C37.232 29.0738 37.341 29.8378 37.341 30.6268C37.341 31.6318 37.188 32.5548 36.882 33.3918C36.576 34.2308 36.108 34.9598 35.478 35.5818C34.846 36.2028 34.047 36.6858 33.081 37.0308C32.115 37.3758 30.971 37.5488 29.65 37.5488" fill="white"/>
<path d="M44.8851 32.9638H46.6891C47.2221 32.9638 47.68 32.8848 48.065 32.7258C48.449 32.5668 48.7651 32.3688 49.0111 32.1298C49.2581 31.8918 49.435 31.6238 49.544 31.3268C49.652 31.0288 49.7071 30.7408 49.7071 30.4628C49.7071 30.0858 49.6331 29.7678 49.4851 29.5098C49.3371 29.2528 49.149 29.0438 48.923 28.8848C48.696 28.7258 48.444 28.6118 48.169 28.5428C47.892 28.4728 47.6261 28.4378 47.3701 28.4378H44.8851V32.9638ZM55.5341 43.8198H49.9431L46.896 36.9278C46.837 36.9278 46.793 36.9228 46.763 36.9128C46.734 36.9028 46.6991 36.8978 46.6601 36.8978H44.8851V43.8198H40.1221V24.4448H48.2871C49.4701 24.4448 50.4711 24.6118 51.2891 24.9468C52.1071 25.2828 52.768 25.7218 53.271 26.2638C53.774 26.8058 54.1391 27.4228 54.3661 28.1128C54.5921 28.8028 54.7061 29.5028 54.7061 30.2128C54.7061 31.2588 54.425 32.2738 53.863 33.2598C53.301 34.2458 52.4771 35.0548 51.3931 35.6858" fill="white"/>
<path d="M69.973 35.4138C70.434 35.9178 70.4211 36.6998 69.9341 37.1878C69.4461 37.6748 68.664 37.6878 68.16 37.2268C68.13 37.9088 67.5681 38.4538 66.8781 38.4538C66.1881 38.4538 65.626 37.9088 65.596 37.2268C65.092 37.6878 64.31 37.6748 63.822 37.1878C63.334 36.6998 63.321 35.9178 63.783 35.4138C63.1 35.3838 62.556 34.8218 62.556 34.1318C62.556 33.4418 63.1 32.8798 63.783 32.8498C63.321 32.3458 63.334 31.5638 63.822 31.0758C64.31 30.5888 65.092 30.5758 65.596 31.0368C65.626 30.3548 66.1881 29.8098 66.8781 29.8098C67.5671 29.8098 68.13 30.3548 68.16 31.0368C68.664 30.5748 69.4461 30.5888 69.9341 31.0758C70.4211 31.5638 70.434 32.3458 69.973 32.8498C70.655 32.8798 71.199 33.4418 71.199 34.1318C71.199 34.8218 70.655 35.3838 69.973 35.4138ZM75.8111 29.8128C75.4071 28.6198 74.8061 27.5998 74.0071 26.7518C73.2081 25.9038 72.227 25.2478 71.064 24.7838C69.9 24.3208 68.569 24.0888 67.07 24.0888C65.472 24.0888 64.062 24.3458 62.84 24.8578C61.617 25.3708 60.602 26.0858 59.793 27.0028C58.984 27.9198 58.3731 29.0148 57.9591 30.2868C57.5451 31.5578 57.338 32.9538 57.338 34.4718C57.338 35.9908 57.55 37.3458 57.974 38.5388C58.397 39.7328 59.009 40.7488 59.808 41.5858C60.607 42.4248 61.5831 43.0658 62.7361 43.5088C63.8901 43.9528 65.196 44.1748 66.656 44.1748C68.154 44.1748 69.5061 43.9428 70.7091 43.4798C71.9111 43.0168 72.937 42.3408 73.785 41.4538C74.632 40.5658 75.284 39.4768 75.737 38.1848C76.191 36.8928 76.418 35.4188 76.418 33.7618C76.418 32.3228 76.2151 31.0068 75.8111 29.8128Z" fill="white"/>
<path d="M32.9361 69.9188L31.2361 72.2368C31.2361 73.4418 31.267 74.1838 31.267 74.1838C26.353 74.0608 22.923 74.1838 22.923 74.1838C23.14 57.9588 23.0161 53.4468 23.0161 53.4468C28.6411 53.6018 31.329 53.5088 31.329 53.5088C31.267 57.8968 31.2671 61.3588 31.2361 64.1708C32.7201 60.4928 33.6161 57.8048 33.6161 57.8048C40.2601 58.0828 43.35 58.0517 43.35 58.0517C41.28 60.9567 39.8581 63.0888 38.9011 64.5108C41.9911 71.0318 43.8451 74.8328 43.8451 74.8328C37.0771 75.0488 35.037 75.2968 35.037 75.2968C34.141 72.9478 33.4621 71.1868 32.9361 69.9188Z" fill="#12446C"/>
<path d="M44.8961 59.3188C44.8961 59.3188 48.1411 59.3188 53.2091 59.2568C53.2091 59.2568 53.2401 70.4128 53.3331 74.5538C53.3331 74.5538 49.6861 74.5228 44.9891 74.5848C44.9891 74.5848 45.0201 70.6608 44.8961 59.3188Z" fill="#12446C"/>
<path d="M68.816 66.7047C68.816 64.8507 67.889 63.1817 66.25 63.1817C64.396 63.1817 63.561 64.8198 63.561 66.6428C63.561 69.2078 64.767 70.2587 66.127 70.2587C67.61 70.2587 68.816 69.2387 68.816 66.7047ZM69.434 75.3267C69.434 75.3267 69.557 74.0907 69.65 72.2987C68.414 74.2457 65.725 75.1418 63.532 75.1418C58.586 75.1418 55.032 71.8968 55.032 66.7978C55.032 61.8528 57.907 58.2987 62.82 58.2987C65.262 58.2987 67.053 59.3187 68.166 60.5547L68.012 53.1997C68.012 53.1997 69.589 53.2308 76.418 53.1688C76.418 53.1688 76.357 63.4597 76.418 75.3887C76.418 75.3887 71.071 75.2647 69.434 75.3267Z" fill="#12446C"/>
<path d="M54.1 52.8188C54.1 52.0228 53.471 51.3748 52.685 51.3398C53.217 50.7588 53.2011 49.8558 52.6391 49.2938C52.0761 48.7308 51.175 48.7158 50.594 49.2478C50.558 48.4608 49.9101 47.8338 49.1141 47.8338C48.3191 47.8338 47.669 48.4608 47.635 49.2478C47.055 48.7158 46.1511 48.7308 45.5891 49.2938C45.0261 49.8558 45.012 50.7588 45.544 51.3398C44.757 51.3748 44.1301 52.0228 44.1301 52.8188C44.1301 53.6148 44.757 54.2628 45.544 54.2978C45.012 54.8788 45.0261 55.7818 45.5891 56.3438C46.1511 56.9068 47.055 56.9218 47.635 56.3898C47.669 57.1768 48.3191 57.8038 49.1141 57.8038C49.9101 57.8038 50.558 57.1768 50.594 56.3898C51.175 56.9218 52.0761 56.9068 52.6391 56.3438C53.2011 55.7818 53.217 54.8788 52.685 54.2978C53.471 54.2628 54.1 53.6148 54.1 52.8188Z" fill="white"/>
</svg>
