<svg width="237" height="71" viewBox="0 0 237 71" fill="none" xmlns="http://www.w3.org/2000/svg">
<path d="M223.807 70.2379H12.379C5.542 70.2379 0 64.6957 0 57.859V12.379C0 5.54301 5.542 1.72639e-05 12.379 1.72639e-05H223.807C230.643 1.72639e-05 236.185 5.54301 236.185 12.379V57.859C236.185 64.6957 230.643 70.2379 223.807 70.2379Z" fill="black"/>
<path d="M31.135 32.934H34.5301C35.4801 32.934 36.292 32.7867 36.967 32.491C37.642 32.1949 38.191 31.8168 38.61 31.3559C39.03 30.893 39.341 30.3668 39.542 29.775C39.742 29.1848 39.842 28.575 39.842 27.9469C39.842 27.357 39.762 26.793 39.598 26.257C39.432 25.7207 39.187 25.25 38.858 24.8438C38.528 24.4379 38.1 24.1047 37.571 23.8457C37.039 23.5867 36.392 23.459 35.6261 23.459H31.135V32.934ZM31.135 40.3289V51.941H22.316V16.064H37.214C39.478 16.064 41.367 16.384 42.883 17.022C44.398 17.662 45.6211 18.52 46.5531 19.597C47.4851 20.675 48.1501 21.897 48.5531 23.267C48.9531 24.6367 49.1551 26.052 49.1551 27.5117C49.1551 29.3738 48.8711 31.082 48.3051 32.6328C47.7391 34.186 46.8711 35.536 45.7051 36.6867C44.5351 37.836 43.057 38.7309 41.267 39.3707C39.478 40.0098 37.36 40.3289 34.914 40.3289" fill="white"/>
<path d="M63.122 31.8387H66.463C67.449 31.8387 68.297 31.693 69.01 31.3977C69.722 31.1039 70.306 30.736 70.763 30.2949C71.219 29.8539 71.547 29.3578 71.749 28.8067C71.949 28.2547 72.05 27.7227 72.05 27.2078C72.05 26.5098 71.913 25.9207 71.639 25.4438C71.365 24.9668 71.018 24.5797 70.598 24.2867C70.178 23.9918 69.712 23.7809 69.202 23.652C68.69 23.5238 68.197 23.4586 67.723 23.4586H63.122V31.8387ZM82.84 51.9406H72.488L66.847 39.1777C66.737 39.1777 66.654 39.1699 66.6 39.1508C66.545 39.1328 66.481 39.1238 66.408 39.1238H63.122V51.9406H54.303V16.064H69.421C71.612 16.064 73.464 16.375 74.98 16.995C76.495 17.616 77.719 18.429 78.65 19.433C79.581 20.437 80.256 21.578 80.677 22.857C81.095 24.1348 81.306 25.4309 81.306 26.7449C81.306 28.6809 80.786 30.561 79.745 32.3867C78.704 34.2129 77.179 35.7098 75.172 36.8777" fill="white"/>
<path d="M109.576 36.3762C110.43 37.309 110.406 38.757 109.503 39.6602C108.6 40.5629 107.151 40.5871 106.219 39.7332C106.163 40.9973 105.122 42.0039 103.845 42.0039C102.568 42.0039 101.526 40.9973 101.471 39.7332C100.539 40.5871 99.09 40.5629 98.187 39.6602C97.284 38.757 97.26 37.309 98.114 36.3762C96.85 36.3211 95.843 35.2789 95.843 34.002C95.843 32.725 96.85 31.684 98.114 31.6281C97.26 30.6961 97.284 29.2473 98.187 28.3442C99.09 27.441 100.539 27.4172 101.471 28.2711C101.526 27.0082 102.568 26 103.845 26C105.122 26 106.163 27.0082 106.219 28.2711C107.151 27.4172 108.6 27.441 109.503 28.3442C110.406 29.2473 110.43 30.6961 109.576 31.6281C110.839 31.684 111.847 32.725 111.847 34.002C111.847 35.2789 110.839 36.3211 109.576 36.3762ZM120.386 26.0063C119.637 23.7973 118.524 21.907 117.045 20.337C115.567 18.767 113.749 17.552 111.595 16.694C109.441 15.836 106.975 15.407 104.201 15.407C101.243 15.407 98.632 15.882 96.369 16.831C94.104 17.78 92.224 19.104 90.727 20.802C89.229 22.5 88.097 24.527 87.331 26.882C86.564 29.2371 86.1801 31.8211 86.1801 34.632C86.1801 37.4449 86.573 39.9539 87.358 42.1629C88.142 44.3731 89.275 46.2539 90.754 47.8051C92.233 49.3582 94.04 50.5442 96.176 51.3652C98.313 52.1871 100.731 52.5973 103.434 52.5973C106.209 52.5973 108.711 52.168 110.938 51.311C113.165 50.4531 115.064 49.202 116.634 47.559C118.204 45.916 119.409 43.8981 120.249 41.5063C121.089 39.1152 121.509 36.384 121.509 33.318C121.509 30.6531 121.134 28.216 120.386 26.0063Z" fill="white"/>
<path d="M143.779 43.4809L141.051 47.2016C141.051 49.1356 141.101 50.3266 141.101 50.3266C133.213 50.1285 127.708 50.3266 127.708 50.3266C128.055 24.2848 127.856 17.042 127.856 17.042C136.885 17.291 141.199 17.142 141.199 17.142C141.101 24.1848 141.101 29.7406 141.051 34.2547C143.432 28.3516 144.87 24.0356 144.87 24.0356C155.535 24.4828 160.495 24.4328 160.495 24.4328C157.172 29.0957 154.89 32.5188 153.353 34.8008C158.313 45.2668 161.289 51.3676 161.289 51.3676C150.426 51.7156 147.152 52.1117 147.152 52.1117C145.713 48.3426 144.623 45.5149 143.779 43.4809Z" fill="white"/>
<path d="M162.975 26.4672C162.975 26.4672 168.183 26.4672 176.318 26.3684C176.318 26.3684 176.368 44.2742 176.517 50.9211C176.517 50.9211 170.663 50.8711 163.125 50.9711C163.125 50.9711 163.175 44.6711 162.975 26.4672Z" fill="white"/>
<path d="M201.368 38.3223C201.368 35.3453 199.882 32.6672 197.251 32.6672C194.275 32.6672 192.935 35.2973 192.935 38.2235C192.935 42.3402 194.871 44.0274 197.053 44.0274C199.434 44.0274 201.368 42.3895 201.368 38.3223ZM202.362 52.1621C202.362 52.1621 202.559 50.1774 202.708 47.3012C200.723 50.4262 196.408 51.8645 192.887 51.8645C184.95 51.8645 179.246 46.6555 179.246 38.4711C179.246 30.5344 183.858 24.8305 191.746 24.8305C195.664 24.8305 198.541 26.4672 200.326 28.4512L200.08 16.645C200.08 16.645 202.609 16.694 213.571 16.596C213.571 16.596 213.473 33.1145 213.571 52.2602C213.571 52.2602 204.989 52.0621 202.362 52.1621Z" fill="white"/>
<path d="M177.748 16.034C177.748 14.757 176.741 13.716 175.477 13.66C176.332 12.728 176.307 11.279 175.404 10.376C174.502 9.47303 173.053 9.44902 172.12 10.303C172.065 9.04002 171.023 8.03202 169.746 8.03202C168.469 8.03202 167.428 9.04002 167.372 10.303C166.44 9.44902 164.991 9.47303 164.088 10.376C163.185 11.279 163.161 12.727 164.015 13.66C162.752 13.716 161.745 14.757 161.745 16.034C161.745 17.311 162.752 18.352 164.015 18.408C163.161 19.34 163.185 20.789 164.088 21.692C164.991 22.595 166.44 22.619 167.372 21.765C167.428 23.028 168.469 24.036 169.746 24.036C171.023 24.036 172.065 23.028 172.12 21.765C173.053 22.619 174.502 22.595 175.404 21.692C176.307 20.789 176.332 19.34 175.477 18.408C176.741 18.352 177.748 17.311 177.748 16.034Z" fill="white"/>
</svg>
