<svg width="192" height="45" viewBox="0 0 192 45" fill="none" xmlns="http://www.w3.org/2000/svg">
<path d="M8.81899 24.901H12.214C13.164 24.901 13.976 24.754 14.652 24.458C15.327 24.162 15.875 23.784 16.295 23.323C16.715 22.86 17.025 22.334 17.226 21.742C17.427 21.152 17.527 20.542 17.527 19.914C17.527 19.324 17.446 18.76 17.282 18.224C17.116 17.688 16.871 17.217 16.542 16.811C16.213 16.405 15.783 16.072 15.255 15.813C14.724 15.554 14.077 15.426 13.31 15.426H8.81899V24.901ZM8.81899 32.296V43.908H0V8.03099H14.899C17.162 8.03099 19.051 8.351 20.568 8.989C22.082 9.629 23.306 10.487 24.237 11.564C25.169 12.642 25.833 13.864 26.237 15.234C26.638 16.604 26.839 18.019 26.839 19.479C26.839 21.341 26.556 23.049 25.99 24.6C25.423 26.153 24.556 27.503 23.389 28.654C22.22 29.803 20.741 30.698 18.952 31.338C17.162 31.977 15.044 32.296 12.598 32.296" fill="black"/>
<path d="M40.8061 23.806H44.1471C45.1331 23.806 45.981 23.66 46.694 23.365C47.406 23.071 47.9901 22.703 48.4471 22.262C48.9031 21.821 49.2311 21.325 49.4331 20.774C49.6331 20.222 49.7341 19.69 49.7341 19.175C49.7341 18.477 49.597 17.888 49.323 17.411C49.049 16.934 48.7021 16.547 48.2821 16.254C47.8621 15.959 47.3961 15.748 46.8861 15.619C46.3741 15.491 45.8811 15.426 45.4071 15.426H40.8061V23.806ZM60.5241 43.908H50.1721L44.5311 31.145C44.4211 31.145 44.3381 31.137 44.2841 31.118C44.2291 31.1 44.165 31.091 44.092 31.091H40.8061V43.908H31.9871V8.03099H47.1051C49.2961 8.03099 51.1481 8.342 52.6641 8.962C54.1791 9.583 55.4031 10.396 56.3341 11.4C57.2651 12.404 57.9401 13.545 58.3611 14.824C58.7791 16.102 58.9911 17.398 58.9911 18.712C58.9911 20.648 58.4701 22.528 57.4291 24.354C56.3881 26.18 54.8631 27.677 52.8561 28.845" fill="black"/>
<path d="M87.26 28.343C88.114 29.276 88.091 30.724 87.187 31.627C86.284 32.531 84.835 32.554 83.903 31.7C83.848 32.965 82.807 33.972 81.53 33.972C80.252 33.972 79.211 32.965 79.155 31.7C78.223 32.554 76.775 32.531 75.871 31.627C74.968 30.724 74.944 29.276 75.798 28.343C74.534 28.288 73.527 27.247 73.527 25.969C73.527 24.692 74.534 23.651 75.798 23.595C74.944 22.663 74.968 21.215 75.871 20.311C76.775 19.408 78.223 19.384 79.155 20.238C79.211 18.975 80.252 17.967 81.53 17.967C82.807 17.967 83.848 18.975 83.903 20.238C84.835 19.384 86.284 19.408 87.187 20.311C88.091 21.215 88.114 22.663 87.26 23.595C88.523 23.651 89.532 24.692 89.532 25.969C89.532 27.247 88.523 28.288 87.26 28.343ZM98.071 17.973C97.321 15.765 96.208 13.874 94.73 12.304C93.251 10.734 91.433 9.51898 89.28 8.66098C87.125 7.80398 84.659 7.37398 81.885 7.37398C78.927 7.37398 76.316 7.84898 74.053 8.79798C71.789 9.74698 69.908 11.072 68.411 12.769C66.914 14.467 65.782 16.494 65.016 18.849C64.248 21.204 63.864 23.788 63.864 26.599C63.864 29.413 64.257 31.922 65.042 34.131C65.827 36.34 66.959 38.222 68.439 39.772C69.917 41.325 71.725 42.511 73.86 43.332C75.998 44.154 78.416 44.565 81.118 44.565C83.893 44.565 86.396 44.135 88.623 43.279C90.85 42.42 92.748 41.169 94.319 39.526C95.889 37.883 97.093 35.865 97.933 33.473C98.773 31.082 99.194 28.351 99.194 25.285C99.194 22.62 98.818 20.183 98.071 17.973Z" fill="black"/>
<path d="M121.463 35.448L118.735 39.169C118.735 41.103 118.785 42.294 118.785 42.294C110.897 42.096 105.392 42.294 105.392 42.294C105.739 16.252 105.54 9.00898 105.54 9.00898C114.568 9.25798 118.883 9.10898 118.883 9.10898C118.785 16.152 118.785 21.708 118.735 26.222C121.116 20.319 122.554 16.003 122.554 16.003C133.219 16.45 138.179 16.4 138.179 16.4C134.856 21.063 132.574 24.486 131.037 26.768C135.997 37.234 138.973 43.335 138.973 43.335C128.11 43.683 124.836 44.079 124.836 44.079C123.397 40.31 122.307 37.482 121.463 35.448Z" fill="black"/>
<path d="M140.659 18.435C140.659 18.435 145.867 18.435 154.002 18.336C154.002 18.336 154.052 36.242 154.201 42.889C154.201 42.889 148.348 42.839 140.808 42.939C140.808 42.939 140.858 36.639 140.659 18.435Z" fill="black"/>
<path d="M179.053 30.29C179.053 27.313 177.566 24.634 174.935 24.634C171.96 24.634 170.621 27.265 170.621 30.191C170.621 34.307 172.555 35.995 174.737 35.995C177.119 35.995 179.053 34.357 179.053 30.29ZM180.046 44.13C180.046 44.13 180.244 42.145 180.392 39.268C178.408 42.393 174.094 43.832 170.571 43.832C162.635 43.832 156.93 38.623 156.93 30.439C156.93 22.502 161.542 16.798 169.43 16.798C173.349 16.798 176.226 18.434 178.01 20.418L177.764 8.613C177.764 8.613 180.294 8.662 191.255 8.564C191.255 8.564 191.157 25.082 191.255 44.227C191.255 44.227 182.674 44.03 180.046 44.13Z" fill="black"/>
<path d="M155.432 8.002C155.432 6.725 154.425 5.684 153.161 5.627C154.016 4.695 153.991 3.247 153.088 2.343C152.186 1.441 150.737 1.416 149.804 2.27C149.749 1.007 148.707 2.47979e-06 147.43 2.47979e-06C146.153 2.47979e-06 145.112 1.007 145.056 2.27C144.124 1.416 142.675 1.441 141.772 2.343C140.869 3.247 140.845 4.695 141.699 5.627C140.436 5.684 139.429 6.725 139.429 8.002C139.429 9.279 140.436 10.32 141.699 10.375C140.845 11.307 140.869 12.756 141.772 13.659C142.675 14.563 144.124 14.586 145.056 13.732C145.112 14.995 146.153 16.004 147.43 16.004C148.707 16.004 149.749 14.995 149.804 13.732C150.737 14.586 152.186 14.563 153.088 13.659C153.991 12.756 154.016 11.307 153.161 10.375C154.425 10.32 155.432 9.279 155.432 8.002Z" fill="black"/>
</svg>
